<svg width="640" height="480" fill="none" xmlns="http://www.w3.org/2000/svg"><style>.st5{fill:#dc2825}</style><g id="Layer_3"><path d="M177 207.8H49.8c-14.7 0-26.7-12-26.7-26.7V79.7A26.6 26.6 0 0 1 49.8 53H177c14.7 0 26.7 12 26.7 26.7v101.4a26.6 26.6 0 0 1-26.7 26.7z" style="fill:#fff;stroke:#3caa35;stroke-width:12;stroke-miterlimit:10"/><path d="M384.6 207.8H257.4c-14.7 0-26.7-12-26.7-26.7V79.7c0-14.7 12-26.7 26.7-26.7h127.2c14.7 0 26.7 12 26.7 26.7v101.4a26.6 26.6 0 0 1-26.7 26.7z" style="fill:#fff;stroke:#00aff0;stroke-width:12;stroke-miterlimit:10"/><path d="M597.6 207.8H470.4c-14.7 0-26.7-12-26.7-26.7V79.7c0-14.7 12-26.7 26.7-26.7h127.2c14.7 0 26.7 12 26.7 26.7v101.4a26.6 26.6 0 0 1-26.7 26.7z" style="fill:#fff;stroke:#dc2825;stroke-width:12;stroke-miterlimit:10"/><path d="M384.6 415.3H257.4c-14.7 0-26.7-12-26.7-26.7V287.2c0-14.7 12-26.7 26.7-26.7h127.2c14.7 0 26.7 12 26.7 26.7v101.4a26.6 26.6 0 0 1-26.7 26.7z" style="fill:#fff;stroke:#6046be;stroke-width:12;stroke-miterlimit:10"/><linearGradient id="SVGID_1_" gradientUnits="userSpaceOnUse" x1="-12.4" y1="177.9" x2="154.4" y2="177.9" gradientTransform="rotate(-90 171 237.9)"><stop offset="0" style="stop-color:#0172fe"/><stop offset="1" style="stop-color:#00c6ff"/></linearGradient><path d="M201.3 287.2v101.4c0 14.7-12 26.7-26.7 26.7H47.4c-14.7 0-26.7-12-26.7-26.7V287.2c0-14.7 12-26.7 26.7-26.7h127.2a26.6 26.6 0 0 1 26.7 26.7z" style="fill:#fff;stroke:url(#SVGID_1_);stroke-width:12;stroke-miterlimit:10"/></g><g id="Layer_1"><g><path class="st5" d="M513.3 81.9h-15.7c-3.6 0-6.5 1.3-8.6 3.8a11.4 11.4 0 0 0-3.2 7.9l.2 1.1a90.8 90.8 0 0 0 8.8 32.4 90.7 90.7 0 0 0 19 26.8 95.6 95.6 0 0 0 59.2 27.9c3.5.3 6.5-.7 9-3a11 11 0 0 0 3.8-8.7v-15.9c0-2.9-1-5.5-3-7.8a11.6 11.6 0 0 0-7.3-3.8c-3.5-.4-7-1.1-10.3-2.1-4.6-1.3-8.5-.4-11.8 2.9l-6.3 6.4a72 72 0 0 1-29.2-29.2l6.4-6.4c3.3-3.3 4.3-7.2 2.8-11.7a56 56 0 0 1-2-10.4 11 11 0 0 0-3.8-7.3c-2.3-1.9-5-2.9-8-2.9z" id="Layer14_0_FILL"/></g><g><path d="M353.5 98.2a46.5 46.5 0 0 0-42.4-13.1 29.3 29.3 0 0 0-13.2-3.3A27.5 27.5 0 0 0 272 99.1a28 28 0 0 0 1.4 24.3 44.7 44.7 0 0 0 3 26.6 48.2 48.2 0 0 0 25.2 25.3 46.5 46.5 0 0 0 26.6 3c2.1 1.2 4.4 2.1 6.7 2.6a28.3 28.3 0 0 0 17.8-1.1c3.4-1.4 6.5-3.4 9.1-6.1a28 28 0 0 0 4.6-33.5 45.8 45.8 0 0 0-2.9-27 42 42 0 0 0-10-15m-19 6.3c2.2 1.2 4 2.7 5.3 4.2a8.3 8.3 0 0 1 2.1 5.2c0 1.6-.6 2.9-1.8 3.8a6.8 6.8 0 0 1-4.2 1.3 5 5 0 0 1-3.5-1.3l-1.4-1.3-1.4-1.6a13.1 13.1 0 0 0-4-2.9c-1.9-.9-4.3-1.3-7-1.3-3 0-5.4.6-7.1 1.9a5.7 5.7 0 0 0-2.5 4.9c0 1.7 1 3.2 2.9 4.2a28 28 0 0 0 6.2 2l11.1 2.5c5.5 1.2 9.6 3.4 12.1 6.7 2 2.6 3.1 5.9 3.1 9.7 0 5.4-2 9.7-6 12.9a27.6 27.6 0 0 1-18 5.2c-7.7 0-13.9-1.6-18.5-4.9a15 15 0 0 1-4.4-4.7 9 9 0 0 1-1.4-4.9 5 5 0 0 1 1.6-3.9c1-1 2.4-1.5 4-1.5s2.9.5 4.1 1.6l1.5 1.6 1.5 1.9a15 15 0 0 0 4.1 3.6c2 1.1 4.6 1.6 7.6 1.6 3.3 0 5.9-.8 7.9-2.3 1.9-1.5 2.8-3.2 2.8-5.2a5 5 0 0 0-1.2-3.4c-.9-1.2-2.4-2-4.5-2.5l-14.9-3.8c-5.5-1.4-9.4-3.6-11.7-6.7a14.8 14.8 0 0 1-2.6-9 15 15 0 0 1 7.4-13.5c4.2-2.7 9.4-4 15.8-4a31.1 31.1 0 0 1 15 3.9z" style="fill:#00aff0" id="Layer13_0_FILL"/></g><g><path d="M348 289.3h-.1a128.1 128.1 0 0 0-48.6 0h-.1c-5 1.1-9.8 3.9-14.5 8.4a29.2 29.2 0 0 0-8.8 14v.1c-3 13.7-3 27.3 0 41v.1c1.1 4.7 3.9 9.2 8.2 13.5 4.3 4.3 8.9 7.2 13.8 8.6v10.9c0 2 .9 3.3 2.8 4 1.8.7 3.4.4 4.8-1l11.1-11.5 7.2.2c8.2 0 16.3-.8 24.3-2.3h.1c5-1.1 9.8-3.9 14.5-8.3 4.7-4.5 7.6-9.2 8.8-14.1v-.1c3-13.7 3-27.3 0-41v-.1a29.2 29.2 0 0 0-8.8-14 32.2 32.2 0 0 0-14.7-8.4m-1.9 8.7c3.3.7 6.7 2.7 10.1 6 3.4 3.3 5.5 6.5 6.3 9.7a85.5 85.5 0 0 1 0 37c-.8 3.2-2.9 6.4-6.3 9.7a21.3 21.3 0 0 1-10.1 6c-8.6 1.6-17.2 2.3-25.9 2.1l-.5.2-16.6 17.1c-.3.3-.7.4-1.1.2-.4-.2-.6-.5-.6-1v-18l-.2-.4-.3-.2h-.1a21 21 0 0 1-10-6 22.3 22.3 0 0 1-6.4-9.7 85.5 85.5 0 0 1 0-37c.8-3.2 2.9-6.4 6.4-9.7 3.4-3.3 6.8-5.3 10-6 15.2-2.8 30.3-2.8 45.3 0m-18.2 47.3c-.6.1-1.2 0-1.8-.2l-1.6-.6a23.7 23.7 0 0 1-13.1-14.5c-.4-.9-.3-1.8.2-2.6.2-.3.5-.7 1-1.1l1.4-1a4 4 0 0 0 1.8-2.6c.2-1 0-2-.5-3a61 61 0 0 0-6.3-8.8 2.7 2.7 0 0 0-1.8-1.2c-.7-.2-1.5-.1-2.2.2a14 14 0 0 0-5 3.8c-2 2.4-2.7 4.6-1.9 6.4l1.6 3.8 1.7 3.7a53.7 53.7 0 0 0 20.8 24 90 90 0 0 0 13.2 6.8l1.3.5 1.5.4 1.3-.4 1.3-.5c2.6-1.4 4.5-3.5 6-6.5.4-.8.5-1.5.2-2.2-.2-.7-.6-1.4-1.2-1.9l-4.2-3.1-4.4-3.1c-.8-.5-1.6-.7-2.4-.7-.8 0-1.6.3-2.3.9l-1.9 2.2c-1.2.7-2 1.2-2.7 1.3m-2.3-35.5 2 .2a21 21 0 0 1 11.6 6.2A21 21 0 0 1 345 328l.4 5.2c0 .5.2.9.4 1.2.2.3.6.5 1 .5s.8-.2 1-.5c.3-.3.4-.7.3-1.2l-.2-3.1a23.9 23.9 0 0 0-8.8-17.5 25 25 0 0 0-15.2-5.8h-1.2c-.5 0-.8.2-1.1.5-.3.3-.4.7-.4 1.1.1.5.4.8.9.9l1.4.2 2.1.3m1.4 10c-.4 0-.7.1-1 .3a1 1 0 0 0-.5.9c-.1.4 0 .7.2 1 .2.3.5.5 1 .6l1.1.2 1.1.1a5.1 5.1 0 0 1 3.6 3.9l.3 2c.1.9.6 1.4 1.5 1.5h.1l.7-.2.4-.8v-1.2a8.5 8.5 0 0 0-2.7-6.1 8.7 8.7 0 0 0-5.8-2.2m-2.1-3.9 2 .3a14.6 14.6 0 0 1 7.8 3.6c1 .9 1.8 2 2.5 3.1 1.2 2.1 1.9 4.6 1.9 7.3l.1 1.2c.2.6.6.9 1.3.8.7 0 1.1-.4 1.2-.9l.2-.9-.2-2.9c-.8-5.7-3.8-9.8-8.8-12.4a19.2 19.2 0 0 0-7.9-2.1c-.4 0-.8.1-1 .4-.2.2-.4.5-.4.9s.1.8.3 1.1c.2.3.5.4 1 .5z" style="fill:#6046be" id="Layer12_0_FILL"/></g><g><path d="M111.8 74.9a49.3 49.3 0 0 0-41.8 72l-5.2 25.6c-.1.7 0 1.3.5 1.8s1.1.7 1.8.5l25-5.9a54.2 54.2 0 0 0 21.3 5.1 48.9 48.9 0 0 0 35-13.8 49 49 0 0 0 15.3-34.3 49 49 0 0 0-14.8-37 49.2 49.2 0 0 0-37.1-14m-25 22a38.7 38.7 0 0 1 54.9 0 37.6 37.6 0 0 1 11.3 27.5 38.7 38.7 0 0 1-56.1 34.8l-3.4-1.8-15.3 3.6 3.2-15.7-1.7-3.3a38.5 38.5 0 0 1-1.3-32.6c1.9-4.6 4.7-8.8 8.4-12.5m53.8 40.5a3.4 3.4 0 0 0-2.3-2.2l-9.6-2.8a3 3 0 0 0-1.9 0c-.6.2-1.2.5-1.7.9l-2.3 2.4c-.5.5-1.1.9-1.8 1a5 5 0 0 1-2.1-.1c-2.3-.9-5.3-3.1-9.1-6.4a36.2 36.2 0 0 1-7.5-8.2c-.3-.6-.5-1.2-.4-1.9.1-.7.3-1.3.8-1.9l2.1-2.7c.4-.5.6-1.1.7-1.8a4 4 0 0 0-.2-1.9l-4.1-9.2a3.5 3.5 0 0 0-2.5-2.1c-1.1-.3-2.2 0-3.1.8-1.6 1.4-3 2.8-4 4.2a10.4 10.4 0 0 0-2.2 5.3c-.8 8 3.6 16.5 13.1 25.5a47 47 0 0 0 16.9 10.8c4.4 1.5 8.6 1.8 12.4.9 1.7-.4 3.4-1.4 5-2.9 1.2-1.2 2.4-2.7 3.6-4.6.6-.9.7-2 .2-3.1z" style="fill:#09ba27" id="Layer11_0_FILL"/></g><g><g id="Layer10_0_FILL"><linearGradient id="SVGID_2_" gradientUnits="userSpaceOnUse" x1="113.8" y1="386.1" x2="113.8" y2="286.1"><stop offset="0" style="stop-color:#0172fe"/><stop offset="1" style="stop-color:#00c6ff"/></linearGradient><path d="M113.8 286.1a49.7 49.7 0 0 0-34.9 13.6A48.3 48.3 0 0 0 63.8 334a46 46 0 0 0 16.6 35.7V384c0 .6.2 1.1.7 1.5.4.4.9.6 1.5.6a2 2 0 0 0 1.1-.3l11.6-7.2a51.5 51.5 0 0 0 53.5-10.3 47.8 47.8 0 0 0 15.1-34.3 49.6 49.6 0 0 0-15.1-34.3 49.9 49.9 0 0 0-35-13.6m8.6 45.4 21.7-11.9c.5-.2.9-.3 1.4-.2.5.1.9.4 1.2.8.3.4.5.9.4 1.4 0 .5-.2 1-.6 1.4l-25 25a2 2 0 0 1-1.4.6c-.5 0-1-.1-1.5-.5l-13.5-11.6-21.6 11.8c-.4.2-.8.3-1.3.2-.5-.1-.8-.3-1.2-.6-.4-.4-.7-.9-.7-1.5s.2-1.1.7-1.5l25-25c.4-.4.8-.6 1.3-.6.6 0 1.1.1 1.5.4l13.6 11.8z" style="fill:url(#SVGID_2_)"/></g></g><path d="M523.9 189.4c0-6.3-2.2-11.7-6.7-16.1-4.4-4.5-9.8-6.7-16-6.7s-11.5 2.2-16 6.7a22.1 22.1 0 0 0-6.6 16.1v90.4l-16.4-18.6-.4-.4a21.8 21.8 0 0 0-7.3-4.9 26 26 0 0 0-8.7-1.8h-.1a22.7 22.7 0 0 0-15.9 6.6 20 20 0 0 0-5.9 13.6 32 32 0 0 0 4.8 16.9 745.3 745.3 0 0 0 26.7 42.8c8 12.2 13.4 20.7 16.2 25.5 2.5 4.2 7 13.3 13.6 27.2a6.5 6.5 0 0 0 2.8 3.1c1.3.8 2.6 1.2 4.1 1.2H589c1.6 0 3.1-.5 4.5-1.5s2.3-2.3 2.8-3.9a634 634 0 0 0 9.5-32.2c5.4-20.2 8.2-34.3 8.2-42.4v-52.3c0-6.3-2.2-11.7-6.7-16.1a21.9 21.9 0 0 0-16-6.6c-3.2 0-6.2.6-8.9 1.8a21.4 21.4 0 0 0-8.2-10.3 22.2 22.2 0 0 0-12.9-4.1c-3.5 0-6.8.8-9.9 2.2a23.4 23.4 0 0 0-8.2-8.9 22.4 22.4 0 0 0-19.2-2.2v-25.1" style="fill:#fff"/><path class="st5" d="M596.3 419.9v-15.4H485.8v15.4h110.5M524 189.4c0-6.3-2.2-11.7-6.7-16.1-4.4-4.5-9.8-6.7-16-6.7s-11.5 2.2-16 6.7a22.1 22.1 0 0 0-6.6 16.1v90.4l-16.4-18.6-.4-.4a21.8 21.8 0 0 0-7.3-4.9 26 26 0 0 0-8.7-1.8h-.1a22.7 22.7 0 0 0-15.9 6.6 20 20 0 0 0-5.9 13.6 32 32 0 0 0 4.8 16.9 745.3 745.3 0 0 0 26.7 42.8c8 12.2 13.4 20.7 16.2 25.5 2.5 4.2 7 13.3 13.6 27.2a6.5 6.5 0 0 0 2.8 3.1c1.3.8 2.6 1.2 4.1 1.2H589c1.6 0 3.1-.5 4.5-1.5s2.3-2.3 2.8-3.9a634 634 0 0 0 9.5-32.2c5.4-20.2 8.2-34.3 8.2-42.4v-52.3c0-6.3-2.2-11.7-6.7-16.1a21.9 21.9 0 0 0-16-6.6c-3.2 0-6.2.6-8.9 1.8a21.4 21.4 0 0 0-8.2-10.3 22.2 22.2 0 0 0-12.9-4.1c-3.5 0-6.8.8-9.9 2.2a23.4 23.4 0 0 0-8.2-8.9 22.4 22.4 0 0 0-19.2-2.2v-25.1m-30 0c0-2.1.7-3.8 2.2-5.3s3.1-2.2 5.1-2.2c2 0 3.8.7 5.2 2.2s2.2 3.2 2.2 5.3V261c0 2.1.8 3.9 2.2 5.4a7.3 7.3 0 0 0 5.4 2.2 7.5 7.5 0 0 0 7.7-7.6v-24.9c0-2.1.7-3.8 2.2-5.3a7 7 0 0 1 5.2-2.2c2 0 3.7.7 5.2 2.2a7.1 7.1 0 0 1 2.2 5.3V271c0 2.1.8 3.9 2.2 5.4a7.3 7.3 0 0 0 5.4 2.2c2.1 0 3.9-.8 5.5-2.2a7.3 7.3 0 0 0 2.2-5.4v-24.9c0-2.1.7-3.8 2.2-5.3a6.9 6.9 0 0 1 5.2-2.2c2 0 3.7.7 5.2 2.2a7.5 7.5 0 0 1 2.2 5.3V281c0 2.1.8 3.9 2.3 5.4a7.3 7.3 0 0 0 5.4 2.2c2.1 0 3.9-.8 5.5-2.2a7.3 7.3 0 0 0 2.2-5.4v-22.3c0-2.1.7-3.8 2.2-5.3a7.3 7.3 0 0 1 10.4 0 7.7 7.7 0 0 1 2.2 5.3V311c0 5.6-1.9 15.8-5.6 30.5a684.8 684.8 0 0 1-9.6 34.1h-86.5a440.1 440.1 0 0 0-12-23.9c-3.1-5.3-8.6-14-16.7-26.2l-13-20.1c-5-8-9.4-15.2-13.1-21.8-3.3-5.7-3.7-9.8-1.4-12.1a7 7 0 0 1 5.1-2.1c2 0 3.7.7 5.1 2l29.6 33.8c1 1.2 2.3 2 3.9 2.4a8 8 0 0 0 4.6-.2 6.9 6.9 0 0 0 3.5-2.8 7.4 7.4 0 0 0 1.4-4.3V189.4z"/></g></svg>