<svg xmlns="http://www.w3.org/2000/svg" xmlns:xlink="http://www.w3.org/1999/xlink" xmlns:serif="http://www.serif.com/"><symbol id="2-locations-desk-ru" viewBox="0 0 4051 1473"><g fill-rule="evenodd" stroke-linecap="square" stroke-linejoin="round" stroke-miterlimit="1.5" clip-rule="evenodd"><path fill="#fff" fill-opacity=".5" d="M0 1473 1138 0l2913 1473H0Z"/><path fill="#613c82" d="M325 1060h2177v413H325z"/><path fill="none" stroke="#613c82" stroke-width="33.3" d="M2604 517h632v1228h-632z" transform="matrix(1 0 0 1 -102 -289)"/><path fill="none" stroke="#613c82" stroke-width="33.3" d="m3002 1745-5-589 387-289 186 135-7-146 132-3 13 256 59 47 1 591-766-2ZM2706 683h192v192h-192z" transform="matrix(1 0 0 1 -102 -289)"/><path fill="none" stroke="#613c82" stroke-width="33.3" d="M3338 1288h275v275h-275z" transform="matrix(1 0 0 1 -102 -289)"/><path fill="#613c82" d="m2898 1453 2-587 233-174 3 758-238 3Z"/><g fill="#dc3731" transform="matrix(1 0 0 1 -102 -289)"><circle cx="758.3" cy="963.1" r="332.3"/><circle cx="813.7" cy="819.8" r="217.7"/></g><path fill="#fff" fill-rule="nonzero" d="M888 817H688l83-99c32-37 57-67 77-96 21-32 38-68 38-112 0-83-58-161-172-161-68 0-106 30-125 52-21 23-43 65-45 117h78c3-51 35-97 95-97 59 0 89 42 89 87 0 31-13 54-28 77-18 25-46 60-64 83L528 892h360v-75Z"/><text x="223.2" y="325.2" fill="#fff" font-family="&quot;Verdana-Bold&quot;,&quot;Verdana&quot;,sans-serif" font-size="311.8" font-weight="700" transform="matrix(.58 0 0 .8 244 1090)">&#x412;&#x42B;&#x411;&#x415;&#x420;&#x418;&#x422;&#x415; &#x412;&#x410;&#x428;&#x423;</text><text x="576" y="1200.5" fill="#fff" font-family="&quot;ArialMT&quot;,&quot;Arial&quot;,sans-serif" font-size="838.8" transform="matrix(.43 0 0 .43 1973 862)">&gt;</text><text x="911.7" y="403.6" fill="#dc3731" font-family="&quot;Georgia-Bold&quot;,&quot;Georgia&quot;,serif" font-size="416.8" font-weight="700" transform="matrix(.56 0 0 .56 565 438)">&#x443;&#x434;&#x43E;&#x431;&#x43D;&#x44B;&#x435;</text><text x="911.7" y="820.3" fill="#dc3731" font-family="&quot;Georgia-Bold&quot;,&quot;Georgia&quot;,serif" font-size="416.8" font-weight="700" transform="matrix(.56 0 0 .56 565 438)">&#x43B;&#x43E;&#x43A;&#x430;&#x446;&#x438;&#x438;</text></g></symbol><symbol id="2-locations-desk" viewBox="0 0 4051 1473"><g style="fill-rule:evenodd;clip-rule:evenodd;stroke-linecap:square;stroke-linejoin:round;stroke-miterlimit:1.5;">
    <g transform="matrix(0.999943,0,0,0.999753,-102.11,-289.319)">
        <g id="des">
            <path d="M102.116,1762.35L1240.4,289.39L4153.35,1762.56L102.116,1762.34L102.116,1762.35Z" style="fill:white;fill-opacity:0.52;"/>
            <rect x="427.306" y="1350.3" width="2176.84" height="412.454" style="fill:rgb(97,60,130);"/>
            <g transform="matrix(1,0,0,1,-157.009,0)">
                <path d="M746.505,1453.2C691.511,1453.2 651.091,1494.44 651.091,1548.34C651.091,1602.23 691.511,1643.48 746.505,1643.48C801.499,1643.48 841.919,1602.23 841.919,1548.34C841.919,1494.44 801.499,1453.2 746.505,1453.2ZM746.505,1617.63C707.185,1617.63 679.138,1589.04 679.138,1548.34C679.138,1507.64 707.185,1479.05 746.505,1479.05C785.826,1479.05 813.873,1507.64 813.873,1548.34C813.873,1589.04 785.826,1617.63 746.505,1617.63Z" style="fill:white;fill-rule:nonzero;"/>
                <path d="M877.115,1639.9L923.585,1639.9C934.859,1639.9 950.532,1638.8 963.731,1630C979.129,1619.83 986.553,1602.23 986.553,1585.46C986.553,1568.68 979.679,1554.11 969.23,1545.04C955.207,1532.66 936.509,1530.46 923.31,1530.46L905.162,1530.46L905.162,1482.89L968.955,1482.89L968.955,1456.5L877.115,1456.5L877.115,1639.9ZM905.162,1556.86L922.76,1556.86C952.457,1556.86 959.056,1572.53 959.056,1585.73C959.056,1613.5 929.635,1613.5 922.21,1613.5L905.162,1613.5L905.162,1556.86Z" style="fill:white;fill-rule:nonzero;"/>
                <path d="M1122.94,1456.5L1021.75,1456.5L1021.75,1639.9L1122.94,1639.9L1122.94,1613.51L1049.8,1613.51L1049.8,1553.01L1120.74,1553.01L1120.74,1526.62L1049.8,1526.62L1049.8,1482.9L1122.94,1482.9L1122.94,1456.5Z" style="fill:white;fill-rule:nonzero;"/>
                <path d="M1159.23,1456.5L1159.23,1639.9L1187.28,1639.9L1187.28,1565.39L1199.92,1565.39C1213.4,1565.39 1230.17,1563.46 1244.75,1551.09C1259.87,1538.16 1262.62,1521.67 1262.62,1510.94C1262.62,1494.17 1255.19,1476.57 1239.8,1466.4C1226.6,1457.6 1210.92,1456.5 1199.65,1456.5L1159.23,1456.5ZM1187.28,1482.35L1199.65,1482.35C1231.55,1482.35 1235.67,1500.5 1235.67,1510.67C1235.67,1527.72 1224.12,1539.54 1199.92,1539.54L1187.28,1539.54L1187.28,1482.35Z" style="fill:white;fill-rule:nonzero;"/>
                <rect x="1291.22" y="1456.5" width="28.047" height="183.404" style="fill:white;"/>
                <path d="M1456.2,1482.89L1456.2,1456.49L1344.01,1456.49L1344.01,1482.89L1386.08,1482.89L1386.08,1639.9L1414.13,1639.9L1414.13,1482.89L1456.2,1482.89Z" style="fill:white;fill-rule:nonzero;"/>
                <path d="M1480.95,1639.9L1530.17,1639.9C1541.44,1639.9 1557.12,1638.8 1570.32,1630C1585.71,1619.83 1593.14,1602.23 1593.14,1585.46C1593.14,1568.68 1586.26,1554.11 1575.81,1545.04C1561.79,1532.66 1543.09,1530.46 1529.89,1530.46L1509,1530.46L1509,1456.5L1480.95,1456.5L1480.95,1639.9ZM1509,1556.86L1529.34,1556.86C1559.04,1556.86 1565.64,1572.53 1565.64,1585.73C1565.64,1613.5 1536.22,1613.5 1528.79,1613.5L1509,1613.5L1509,1556.86Z" style="fill:white;fill-rule:nonzero;"/>
                <path d="M1685.8,1456.5L1685.8,1639.9L1727.87,1639.9C1746.57,1639.9 1761.69,1639.35 1776.81,1626.98C1794.14,1612.96 1795.24,1592.61 1795.24,1583.81C1795.24,1565.11 1784.24,1547.51 1763.34,1541.19C1776.54,1530.74 1778.74,1516.99 1778.74,1507.64C1778.74,1483.72 1766.09,1471.9 1757.57,1466.12C1747.67,1459.25 1737.22,1456.5 1713.57,1456.5L1685.8,1456.5ZM1713.85,1482.9L1723.47,1482.9C1734.47,1482.9 1752.34,1485.65 1752.34,1508.47C1752.34,1535.14 1728.97,1535.42 1722.37,1535.42L1713.85,1535.42L1713.85,1482.9ZM1713.85,1558.51L1731.44,1558.51C1761.14,1558.51 1767.74,1573.36 1767.74,1586.29C1767.74,1597.83 1761.97,1613.51 1730.89,1613.51L1713.85,1613.51L1713.85,1558.51Z" style="fill:white;fill-rule:nonzero;"/>
                <path d="M1957.47,1639.9L1987.72,1639.9L1900.83,1445.77L1809.54,1639.9L1839.78,1639.9L1859.86,1595.63L1938.22,1595.63L1957.47,1639.9ZM1871.4,1569.23L1899.73,1507.09L1926.95,1569.23L1871.4,1569.23Z" style="fill:white;fill-rule:nonzero;"/>
                <path d="M2010.81,1639.9L2224.74,1639.9L2224.74,1456.5L2196.69,1456.5L2196.69,1613.5L2131.8,1613.5L2131.8,1456.5L2103.75,1456.5L2103.75,1613.5L2038.86,1613.5L2038.86,1456.5L2010.81,1456.5L2010.81,1639.9Z" style="fill:white;fill-rule:nonzero;"/>
                <path d="M2248.39,1456.5L2314.66,1585.18L2289.91,1639.9L2319.06,1639.9L2401.82,1456.5L2372.68,1456.5L2330.61,1551.64L2282.49,1456.5L2248.39,1456.5Z" style="fill:white;fill-rule:nonzero;"/>
            </g>
        </g>
        <g id="houses">
            <rect x="2603.78" y="516.862" width="632.429" height="1228.19" style="fill:none;stroke:rgb(97,60,130);stroke-width:33.33px;"/>
            <path d="M3001.83,1744.93L2996.59,1156.47L3383.94,866.704L3570.09,1002.28L3563.41,855.516L3694.64,853.046L3707.74,1108.68L3766.53,1155.77L3768.29,1746.61L3001.83,1744.93Z" style="fill:none;stroke:rgb(97,60,130);stroke-width:33.33px;"/>
            <rect x="2705.54" y="682.579" width="192.478" height="192.687" style="fill:none;stroke:rgb(97,60,130);stroke-width:33.33px;"/>
            <rect x="3337.97" y="1287.51" width="274.969" height="274.969" style="fill:none;stroke:rgb(97,60,130);stroke-width:33.33px;"/>
            <path d="M3000.66,1742.34L3002.09,1156.05L3235.12,981.313L3238.62,1739.37L3000.66,1742.34Z" style="fill:rgb(97,60,130);"/>
        </g>
        <g id="red">
            <circle cx="758.308" cy="963.093" r="332.254" style="fill:rgb(220,55,49);"/>
            <circle cx="813.652" cy="819.75" r="217.684" style="fill:rgb(220,55,49);"/>
            <g>
                <path d="M1316.85,839.658C1288.99,839.658 1278.72,822.06 1249.76,822.06C1224.83,822.06 1211.26,837.092 1211.26,864.956L1239.86,864.956C1239.86,859.089 1241.69,853.59 1251.59,853.59C1269.19,853.59 1281.29,868.622 1314.65,868.622C1350.58,868.622 1379.54,845.891 1379.54,812.528C1379.54,795.297 1371.84,780.265 1349.11,771.099C1367.08,762.3 1375.51,747.269 1375.51,731.87C1375.51,699.241 1344.35,677.977 1298.52,677.977C1258.19,677.977 1223.73,699.241 1217.13,736.637L1251.59,736.637C1256.72,715.739 1275.06,707.673 1298.52,707.673C1324.18,707.673 1340.31,717.939 1340.31,734.803C1340.31,746.169 1332.25,758.634 1304.75,758.634L1277.99,758.634L1277.99,788.697L1306.22,788.697C1338.11,788.697 1345.81,800.429 1345.81,814.361C1345.81,829.026 1329.68,839.658 1316.85,839.658Z" style="fill:rgb(220,55,49);fill-rule:nonzero;"/>
                <path d="M1520.32,677.977C1494.66,677.977 1471.93,690.808 1456.53,711.339L1456.53,681.643L1423.53,681.643L1423.53,927.282L1458.36,927.282L1458.36,837.459C1473.39,856.89 1495.76,868.622 1520.32,868.622C1569.08,868.622 1606.84,829.026 1606.84,773.299C1606.84,717.572 1569.08,677.977 1520.32,677.977ZM1514.45,836.359C1481.46,836.359 1457.26,809.962 1457.26,773.299C1457.26,736.637 1481.46,710.24 1514.45,710.24C1547.08,710.24 1570.91,736.637 1570.91,773.299C1570.91,809.962 1547.08,836.359 1514.45,836.359Z" style="fill:rgb(220,55,49);fill-rule:nonzero;"/>
                <path d="M1782.1,681.643L1720.51,822.427L1654.88,681.643L1614.18,681.643L1703.28,861.656L1697.78,874.488C1693.01,885.487 1686.41,895.019 1671.38,895.019C1660.75,895.019 1657.08,895.019 1646.82,894.286L1646.82,927.282C1651.58,927.648 1662.21,928.015 1673.58,928.015C1709.51,928.015 1722.34,904.918 1729.67,885.487L1818.76,681.643L1782.1,681.643Z" style="fill:rgb(220,55,49);fill-rule:nonzero;"/>
                <path d="M1961.01,681.643L1961.01,762.3L1907.85,762.3C1886.22,762.3 1876.69,752.768 1876.69,734.07L1876.69,681.643L1841.86,681.643L1841.86,735.17C1841.86,768.166 1863.49,793.83 1902.35,793.83L1961.01,793.83L1961.01,864.956L1995.84,864.956L1995.84,681.643L1961.01,681.643Z" style="fill:rgb(220,55,49);fill-rule:nonzero;"/>
                <path d="M2184.65,681.643L2184.65,756.801L2089.33,756.801L2089.33,681.643L2054.5,681.643L2054.5,864.956L2089.33,864.956L2089.33,789.797L2184.65,789.797L2184.65,864.956L2219.48,864.956L2219.48,681.643L2184.65,681.643Z" style="fill:rgb(220,55,49);fill-rule:nonzero;"/>
                <path d="M2276.31,608.318L2276.31,648.646L2315.17,648.646L2315.17,608.318L2276.31,608.318ZM2278.14,681.643L2278.14,864.956L2312.97,864.956L2312.97,681.643L2278.14,681.643Z" style="fill:rgb(220,55,49);fill-rule:nonzero;"/>
                <path d="M1416.2,1158.26L1336.28,974.947L1293.01,974.947L1213.09,1158.26L1250.85,1158.26L1314.28,1009.41L1377.34,1158.26L1416.2,1158.26Z" style="fill:rgb(220,55,49);fill-rule:nonzero;"/>
                <path d="M1526.56,1161.92C1581.19,1161.92 1623.35,1120.49 1623.35,1066.6C1623.35,1012.7 1581.19,971.275 1526.56,971.275C1471.57,971.275 1429.04,1012.7 1429.04,1066.6C1429.04,1120.49 1471.57,1161.92 1526.56,1161.92ZM1526.56,1129.66C1491.73,1129.66 1464.97,1102.16 1464.97,1066.6C1464.97,1031.04 1491.73,1003.54 1526.56,1003.54C1561.02,1003.54 1587.42,1031.04 1587.42,1066.6C1587.42,1102.16 1561.02,1129.66 1526.56,1129.66Z" style="fill:rgb(220,55,49);fill-rule:nonzero;"/>
                <path d="M1829.76,1125.63C1800.06,1125.63 1769.63,1077.24 1735.54,1062.2L1831.59,974.947L1787.97,974.947L1700.34,1055.97L1700.34,974.947L1665.51,974.947L1665.51,1158.26L1700.34,1158.26L1700.34,1083.1L1704.01,1083.1C1733.7,1083.1 1767.43,1158.26 1825.36,1158.26L1835.26,1158.26L1835.26,1125.63L1829.76,1125.63Z" style="fill:rgb(220,55,49);fill-rule:nonzero;"/>
                <path d="M2017.1,1125.26C2011.23,1125.26 2007.57,1121.59 2007.57,1115.36L2007.57,1044.97C2007.57,995.841 1972.01,971.277 1928.01,971.277C1885.85,971.277 1852.85,995.474 1845.89,1029.57L1882.91,1029.57C1889.51,1010.87 1909.68,1002.07 1926.18,1002.07C1954.04,1002.07 1970.9,1012.34 1970.9,1028.84C1970.9,1038 1967.97,1044.24 1932.04,1048.27L1911.51,1050.47C1867.52,1055.23 1844.42,1079.07 1844.42,1108.03C1844.42,1139.92 1866.05,1161.92 1906.75,1161.92C1934.61,1161.92 1960.64,1149.82 1976.04,1131.86C1977.87,1148.72 1988.5,1158.26 2006.47,1158.26L2024.07,1158.26L2024.07,1125.26L2017.1,1125.26ZM1910.41,1131.86C1890.25,1131.86 1878.88,1121.96 1878.88,1107.66C1878.88,1094.1 1885.85,1081.63 1915.54,1078.33L1936.08,1076.13C1956.61,1073.93 1967.97,1069.53 1975.67,1063.67L1975.67,1080.16C1975.67,1108.03 1945.24,1131.86 1910.41,1131.86Z" style="fill:rgb(220,55,49);fill-rule:nonzero;"/>
                <path d="M2230.84,1131.13L2230.84,974.947L2196.01,974.947L2196.01,1125.26L2100.69,1125.26L2100.69,974.947L2065.86,974.947L2065.86,1158.26L2209.58,1158.26C2229.01,1158.26 2236.34,1167.06 2236.34,1175.86C2236.34,1185.02 2230.84,1194.19 2212.14,1194.19C2178.05,1194.19 2154.22,1177.69 2118.29,1177.69C2090.06,1177.69 2076.86,1192.36 2076.86,1219.49L2076.86,1224.25L2109.49,1224.25L2109.49,1221.69C2109.49,1215.45 2110.59,1209.95 2123.05,1209.95C2142.48,1209.95 2174.75,1224.25 2212.51,1224.25C2257.24,1224.25 2271.9,1198.59 2271.9,1174.03C2271.9,1154.23 2257.6,1135.9 2230.84,1131.13Z" style="fill:rgb(220,55,49);fill-rule:nonzero;"/>
                <path d="M2295,901.618L2295,941.947L2333.86,941.947L2333.86,901.618L2295,901.618ZM2359.89,901.618L2359.89,941.947L2400.22,941.947L2400.22,901.618L2359.89,901.618ZM2426.25,901.618L2426.25,941.947L2466.58,941.947L2466.58,901.618L2426.25,901.618ZM2296.83,974.943L2296.83,1158.26L2331.66,1158.26L2331.66,974.943L2296.83,974.943ZM2390.32,974.943L2390.32,1158.26L2425.15,1158.26L2425.15,974.943L2390.32,974.943Z" style="fill:rgb(220,55,49);fill-rule:nonzero;"/>
            </g>
        </g>
        <path d="M989.816,1106.67L790.119,1106.67L873.527,1008.02C905.607,970.331 930.468,940.657 949.716,911.786C971.37,879.706 988.212,843.616 988.212,799.507C988.212,716.099 929.666,638.306 815.783,638.306C748.416,638.306 709.92,668.782 690.672,690.435C669.821,713.693 648.167,755.397 645.761,807.526L724.356,807.526C727.564,757.001 758.842,710.485 818.991,710.485C878.339,710.485 908.012,752.189 908.012,797.101C908.012,828.378 895.181,851.636 879.943,874.092C862.299,899.756 834.229,935.043 815.783,957.499L630.523,1182.06L989.816,1182.06L989.816,1106.67Z" style="fill:white;fill-rule:nonzero;"/>
    </g>
    <g transform="matrix(0.43216,0,0,0.43216,1972.54,862.455)">
        <g transform="matrix(838.848,0,0,838.848,576.004,1200.5)">
            <path d="M0.529,-0.313L0.055,-0.11L0.055,-0.198L0.43,-0.354L0.055,-0.508L0.055,-0.595L0.529,-0.395L0.529,-0.313Z" style="fill:white;fill-rule:nonzero;"/>
        </g>
    </g>
</g></symbol><symbol id="2-locations-mob-ru" viewBox="0 0 4167 1599"><g fill-rule="evenodd" stroke-linecap="square" stroke-linejoin="round" stroke-miterlimit="1.5" clip-rule="evenodd"><path fill="none" stroke="#613c82" stroke-width="33.3" d="M2604 352h632v1228h-632z"/><path fill="none" stroke="#613c82" stroke-width="33.3" d="m3002 1580-5-589 387-289 186 135-7-146 132-3 13 256 59 47 1 591-766-2ZM2706 518h192v192h-192z"/><path fill="none" stroke="#613c82" stroke-width="33.3" d="M3338 1123h275v275h-275z"/><path fill="#613c82" d="m3001 1577 1-586 233-175 4 758-238 3Z"/><g transform="translate(0 -165)"><circle cx="758.3" cy="963.1" r="332.3" fill="#dc3731"/><circle cx="813.7" cy="819.8" r="217.7" fill="#dc3731"/><text x="911.7" y="403.6" fill="#dc3731" font-family="&quot;Georgia-Bold&quot;,&quot;Georgia&quot;,serif" font-size="416.8" font-weight="700" transform="matrix(.65 0 0 .65 615 646)">&#x443;&#x434;&#x43E;&#x431;&#x43D;&#x44B;&#x435;</text><text x="911.7" y="820.3" fill="#dc3731" font-family="&quot;Georgia-Bold&quot;,&quot;Georgia&quot;,serif" font-size="416.8" font-weight="700" transform="matrix(.65 0 0 .65 615 646)">&#x43B;&#x43E;&#x43A;&#x430;&#x446;&#x438;&#x438;</text></g><path fill="#613c82" d="M0 1185h2607v413H0z"/><text x="576" y="1200.5" fill="#fff" font-family="&quot;ArialMT&quot;,&quot;Arial&quot;,sans-serif" font-size="838.8" transform="matrix(.53 0 0 .53 1904 912)">&gt;</text><path fill="#613c82" d="M3778 1185h387v413h-387z"/><text x="223.2" y="325.2" fill="#fff" font-family="&quot;Verdana-Bold&quot;,&quot;Verdana&quot;,sans-serif" font-size="311.8" font-weight="700" transform="matrix(.66 0 0 1.05 -83 1171)">&#x412;&#x42B;&#x411;&#x415;&#x420;&#x418;&#x422;&#x415; &#x412;&#x410;&#x428;&#x423;</text><path fill="#fff" fill-rule="nonzero" d="M990 942H790l84-99c32-38 56-67 76-96 21-32 38-68 38-112 0-84-58-162-172-162-68 0-106 31-125 52-21 24-43 65-45 118h78c4-51 35-98 95-98 59 0 89 42 89 87 0 31-13 55-28 77-18 26-46 61-64 83l-185 225h359v-75Z"/></g></symbol><symbol id="2-locations-mob" viewBox="0 0 4167 1599"><g fill-rule="evenodd" stroke-linecap="square" stroke-linejoin="round" stroke-miterlimit="1.5" clip-rule="evenodd"><path fill="none" stroke="#613c82" stroke-width="33.3" d="M2604 352h632v1228h-632z"/><path fill="none" stroke="#613c82" stroke-width="33.3" d="m3002 1580-5-589 387-289 186 135-7-146 132-3 13 256 59 47 1 591-766-2ZM2706 518h192v192h-192z"/><path fill="none" stroke="#613c82" stroke-width="33.3" d="M3338 1123h275v275h-275z"/><path fill="#613c82" d="m3001 1577 1-586 233-175 4 758-238 3Z"/><g fill="#dc3731" transform="translate(0 -165)"><circle cx="758.3" cy="963.1" r="332.3"/><circle cx="813.7" cy="819.8" r="217.7"/><g fill-rule="nonzero"><path d="M1317 840c-28 0-38-18-67-18-25 0-39 15-39 43h29c0-6 2-11 12-11 17 0 29 15 63 15 36 0 65-23 65-56 0-18-8-33-31-42 18-9 27-24 27-39 0-33-32-54-77-54-41 0-75 21-82 59h35c5-21 23-29 47-29 25 0 41 10 41 27 0 11-8 24-35 24h-27v30h28c32 0 40 11 40 25 0 15-16 26-29 26ZM1520 678c-25 0-48 13-63 33v-29h-33v245h34v-90c15 20 38 32 62 32 49 0 87-40 87-96 0-55-38-95-87-95Zm-6 158c-33 0-57-26-57-63 0-36 24-63 57-63s57 27 57 63c0 37-24 63-57 63ZM1782 682l-61 140-66-140h-41l89 180-5 12c-5 11-12 21-27 21l-24-1v33l27 1c36 0 48-23 56-43l89-203h-37ZM1961 682v80h-53c-22 0-31-9-31-28v-52h-35v53c0 33 21 59 60 59h59v71h35V682h-35ZM2185 682v75h-96v-75h-34v183h34v-75h96v75h34V682h-34ZM2276 608v41h39v-41h-39Zm2 74v183h35V682h-35ZM1416 1158l-80-183h-43l-80 183h38l63-149 63 149h39ZM1527 1162c54 0 96-42 96-95 0-54-42-96-96-96-55 0-98 42-98 96 0 53 43 95 98 95Zm0-32c-35 0-62-28-62-63 0-36 27-63 62-63 34 0 60 27 60 63 0 35-26 63-60 63ZM1830 1126c-30 0-60-49-94-64l96-87h-44l-88 81v-81h-34v183h34v-75h4c30 0 63 75 121 75h10v-32h-5ZM2017 1125c-6 0-9-3-9-10v-70c0-49-36-74-80-74-42 0-75 24-82 59h37c7-19 27-28 43-28 28 0 45 10 45 27 0 9-3 15-39 19l-20 2c-44 5-68 29-68 58 0 32 22 54 63 54 28 0 54-12 69-30 2 17 13 26 30 26h18v-33h-7Zm-107 7c-20 0-31-10-31-24s7-26 37-30l20-2c21-2 32-6 40-12v16c0 28-31 52-66 52ZM2231 1131V975h-35v150h-95V975h-35v183h144c19 0 26 9 26 18s-5 18-24 18c-34 0-58-16-94-16-28 0-41 14-41 41v5h32v-2c0-7 2-12 14-12 19 0 52 14 90 14 44 0 59-25 59-50 0-20-14-38-41-43ZM2295 902v40h39v-40h-39Zm65 0v40h40v-40h-40Zm66 0v40h41v-40h-41Zm-129 73v183h35V975h-35Zm93 0v183h35V975h-35Z"/></g></g><path fill="#613c82" d="M0 1185h2607v413H0z"/><path fill="#fff" fill-rule="nonzero" d="m2445 1409-211 90v-39l167-69-167-68v-39l211 89v36Z"/><path fill="#613c82" d="M3778 1185h387v413h-387z"/><g fill="#fff"><path fill-rule="nonzero" d="M266 1292c-60 0-104 45-104 104 0 58 44 103 104 103s104-45 104-103c0-59-44-104-104-104Zm0 179c-43 0-73-31-73-75 0-45 30-76 73-76s74 31 74 76c0 44-31 75-74 75ZM409 1495h51c12 0 29-1 43-10 17-11 25-31 25-49s-7-34-19-44a75 75 0 0 0-50-16h-20v-52h70v-29H409v200Zm30-90h20c32 0 39 17 39 31 0 31-32 31-40 31h-19v-62ZM677 1295H567v200h110v-28h-80v-66h78v-29h-78v-48h80v-29ZM717 1295v200h30v-81h14c15 0 33-2 49-15 16-15 19-33 19-44 0-19-8-38-24-49a78 78 0 0 0-44-11h-44Zm30 29h14c35 0 39 19 39 30 0 19-13 32-39 32h-14v-62Z"/><path d="M861 1295h30v200h-30z"/><path fill-rule="nonzero" d="M1041 1324v-29H918v29h46v171h31v-171h46ZM1068 1495h53c13 0 30-1 44-10 17-11 25-31 25-49s-7-34-19-44a75 75 0 0 0-50-16h-23v-81h-30v200Zm30-90h22c33 0 40 17 40 31 0 31-32 31-40 31h-22v-62ZM1291 1295v200h46c20 0 37 0 53-14 19-15 21-37 21-47 0-20-12-39-35-46 14-12 17-27 17-37 0-26-14-39-24-45-10-8-22-11-48-11h-30Zm31 29h10c12 0 32 3 32 28 0 29-26 29-33 29h-9v-57Zm0 83h19c32 0 40 16 40 30 0 13-7 30-41 30h-18v-60ZM1588 1495h33l-95-211-100 211h33l22-48h86l21 48Zm-94-77 31-67 29 67h-60ZM1646 1495h233v-200h-30v172h-71v-172h-31v172h-71v-172h-30v200ZM1905 1295l72 141-27 59h32l90-200h-31l-46 104-53-104h-37Z"/></g><path fill="#fff" fill-rule="nonzero" d="M990 942H790l84-99c32-38 56-67 76-96 21-32 38-68 38-112 0-84-58-162-172-162-68 0-106 31-125 52-21 24-43 65-45 118h78c4-51 35-98 95-98 59 0 89 42 89 87 0 31-13 55-28 77-18 26-46 61-64 83l-185 225h359v-75Z"/></g></symbol><symbol id="all-icons" viewBox="0 0 640 480">
	<g id="Layer_3">
		<path fill="#fff" stroke="#3caa35" stroke-miterlimit="10" stroke-width="12" d="M177 207.8H49.8c-14.7 0-26.7-12-26.7-26.7V79.7C23.1 64.9 35 53 49.8 53H177c14.7 0 26.7 12 26.7 26.7v101.4c0 14.8-11.9 26.7-26.7 26.7z"/>
		<path fill="#fff" stroke="#00aff0" stroke-miterlimit="10" stroke-width="12" d="M384.6 207.8H257.4c-14.7 0-26.7-12-26.7-26.7V79.7c0-14.7 12-26.7 26.7-26.7h127.2c14.7 0 26.7 12 26.7 26.7v101.4c0 14.8-11.9 26.7-26.7 26.7z"/>
		<path fill="#fff" stroke="#D3413B" stroke-miterlimit="10" stroke-width="10" d="M597.6 207.8H470.4c-14.7 0-26.7-12-26.7-26.7V79.7c0-14.7 12-26.7 26.7-26.7h127.2c14.7 0 26.7 12 26.7 26.7v101.4c0 14.8-11.9 26.7-26.7 26.7z"/>
		<path fill="#fff" stroke="#6046be" stroke-miterlimit="10" stroke-width="12" d="M384.6 415.3H257.4c-14.7 0-26.7-12-26.7-26.7V287.2c0-14.7 12-26.7 26.7-26.7h127.2c14.7 0 26.7 12 26.7 26.7v101.4c0 14.8-11.9 26.7-26.7 26.7z"/>
		<path fill="#fff" stroke="#0174FE" stroke-miterlimit="10" stroke-width="12" d="M201.3 287.2v101.4c0 14.7-12 26.7-26.7 26.7H47.4c-14.7 0-26.7-12-26.7-26.7V287.2c0-14.7 12-26.7 26.7-26.7h127.2c14.8 0 26.7 11.9 26.7 26.7z"/>
	</g>
	<g id="Layer_1">
		<g>
			<path fill="#D3413B" d="M513.3 81.9h-15.7c-3.6 0-6.5 1.3-8.6 3.8-2.1 2.3-3.2 4.9-3.2 7.9l.2 1.1c.9 11.4 3.9 22.2 8.8 32.4 4.7 10.1 11.1 19.1 19 26.8 8 8 16.9 14.3 26.8 19 10.2 4.9 21 7.9 32.4 8.9 3.5.3 6.5-.7 9-3 2.5-2.2 3.8-5.1 3.8-8.7v-15.9c0-2.9-1-5.5-3-7.8-1.9-2.1-4.3-3.4-7.3-3.8-3.5-.4-7-1.1-10.3-2.1-4.6-1.3-8.5-.4-11.8 2.9l-6.3 6.4c-12.6-6.9-22.3-16.6-29.2-29.2l6.4-6.4c3.3-3.3 4.3-7.2 2.8-11.7-1-3.5-1.7-7-2-10.4-.3-2.9-1.6-5.4-3.8-7.3-2.3-1.9-5-2.9-8-2.9z"/>
		</g>
		<g>
			<path fill="#00aff0" d="M353.5 98.2c-4.3-4.3-9.3-7.7-15-10.2-5.9-2.5-12-3.7-18.4-3.7-3 0-6 .3-9 .8-2-1.1-4.2-1.9-6.4-2.5-2.2-.6-4.4-.8-6.8-.8-3.7 0-7.3.7-10.8 2.1-3.4 1.4-6.4 3.4-9.1 6.1-2.6 2.6-4.6 5.7-6 9.1-1.4 3.4-2.1 7-2.1 10.7 0 2.4.3 4.8.9 7.1.6 2.3 1.4 4.5 2.6 6.5-.5 2.7-.8 5.4-.8 8.2 0 6.4 1.2 12.5 3.8 18.4 2.4 5.7 5.8 10.7 10.1 15.1 4.4 4.4 9.4 7.8 15.1 10.2 5.9 2.5 12 3.7 18.4 3.7 2.7 0 5.5-.2 8.2-.7 2.1 1.2 4.4 2.1 6.7 2.6 2.3.6 4.7 1 7.1 1 3.8 0 7.3-.7 10.7-2.1 3.4-1.4 6.5-3.4 9.1-6.1 2.6-2.6 4.6-5.7 6.1-9.1 1.4-3.4 2.1-7 2.1-10.7 0-2.4-.3-4.8-1-7.1-.6-2.3-1.5-4.5-2.6-6.6.5-2.9.8-5.7.8-8.6 0-6.5-1.2-12.6-3.7-18.4-2.2-5.7-5.6-10.7-10-15m-19 6.3c2.2 1.2 4 2.7 5.3 4.2 1.4 1.7 2.1 3.5 2.1 5.2 0 1.6-.6 2.9-1.8 3.8-1.2.9-2.6 1.3-4.2 1.3-1.3 0-2.5-.4-3.5-1.3-.4-.3-.8-.8-1.4-1.3-.9-1-1.3-1.5-1.4-1.6-1.3-1.3-2.6-2.3-4-2.9-1.9-.9-4.3-1.3-7-1.3-3 0-5.4.6-7.1 1.9-1.7 1.2-2.5 2.9-2.5 4.9 0 1.7 1 3.2 2.9 4.2 1.3.7 3.3 1.3 6.2 2l11.1 2.5c5.5 1.2 9.6 3.4 12.1 6.7 2 2.6 3.1 5.9 3.1 9.7 0 5.4-2 9.7-6 12.9-4.3 3.5-10.2 5.2-18 5.2-7.7 0-13.9-1.6-18.5-4.9-1.9-1.4-3.4-2.9-4.4-4.7-1-1.6-1.4-3.2-1.4-4.9 0-1.6.5-2.9 1.6-3.9 1-1 2.4-1.5 4-1.5s2.9.5 4.1 1.6c.4.4.9.9 1.5 1.6.3.4.8 1.1 1.5 1.9 1.3 1.6 2.7 2.8 4.1 3.6 2 1.1 4.6 1.6 7.6 1.6 3.3 0 5.9-.8 7.9-2.3 1.9-1.5 2.8-3.2 2.8-5.2 0-1.3-.4-2.5-1.2-3.4-.9-1.2-2.4-2-4.5-2.5l-14.9-3.8c-5.5-1.4-9.4-3.6-11.7-6.7-1.7-2.3-2.6-5.3-2.6-9 0-5.9 2.5-10.4 7.4-13.5 4.2-2.7 9.4-4 15.8-4 2.6 0 5.2.3 7.9 1 2.5.8 4.9 1.7 7.1 2.9z"/>
		</g>
		<g>
			<path fill="#6046be" d="M348 289.3h-.1c-16.2-3.1-32.5-3.1-48.6 0h-.1c-5 1.1-9.8 3.9-14.5 8.4-4.7 4.5-7.6 9.1-8.8 14v.1c-3 13.7-3 27.3 0 41v.1c1.1 4.7 3.9 9.2 8.2 13.5 4.3 4.3 8.9 7.2 13.8 8.6v10.9c0 2 .9 3.3 2.8 4 1.8.7 3.4.4 4.8-1l11.1-11.5c2.4.1 4.8.2 7.2.2 8.2 0 16.3-.8 24.3-2.3h.1c5-1.1 9.8-3.9 14.5-8.3 4.7-4.5 7.6-9.2 8.8-14.1v-.1c3-13.7 3-27.3 0-41v-.1c-1.2-4.9-4.1-9.5-8.8-14-4.9-4.5-9.7-7.3-14.7-8.4m-1.9 8.7c3.3.7 6.7 2.7 10.1 6 3.4 3.3 5.5 6.5 6.3 9.7 2.7 12.4 2.7 24.7 0 37-.8 3.2-2.9 6.4-6.3 9.7-3.4 3.3-6.8 5.3-10.1 6-8.6 1.6-17.2 2.3-25.9 2.1-.2 0-.3.1-.5.2l-16.6 17.1c-.3.3-.7.4-1.1.2-.4-.2-.6-.5-.6-1v-18c0-.1-.1-.3-.2-.4s-.2-.2-.3-.2h-.1c-3.3-.7-6.6-2.7-10-6-3.4-3.3-5.5-6.5-6.4-9.7-2.7-12.3-2.7-24.7 0-37 .8-3.2 2.9-6.4 6.4-9.7 3.4-3.3 6.8-5.3 10-6 15.2-2.8 30.3-2.8 45.3 0m-18.2 47.3c-.6.1-1.2 0-1.8-.2-.3-.1-.9-.3-1.6-.6-6.1-2.6-10.5-7.4-13.1-14.5-.4-.9-.3-1.8.2-2.6.2-.3.5-.7 1-1.1.7-.6 1.1-.9 1.4-1 1-.6 1.5-1.5 1.8-2.6.2-1 0-2-.5-3-1.6-2.8-3.7-5.7-6.3-8.8-.5-.7-1.1-1.1-1.8-1.2-.7-.2-1.5-.1-2.2.2-2.1 1-3.8 2.3-5 3.8-2 2.4-2.7 4.6-1.9 6.4.9 2.3 1.5 3.5 1.6 3.8.6 1.4 1.2 2.6 1.7 3.7 2.8 5.7 5.9 10.5 9.4 14.4 3.2 3.6 7 6.8 11.4 9.6 3.8 2.4 8.2 4.7 13.2 6.8.3.2.8.3 1.3.5l1.5.4 1.3-.4c.5-.2 1-.3 1.3-.5 2.6-1.4 4.5-3.5 6-6.5.4-.8.5-1.5.2-2.2-.2-.7-.6-1.4-1.2-1.9-.8-.7-2.2-1.7-4.2-3.1-1.7-1.2-3.2-2.3-4.4-3.1-.8-.5-1.6-.7-2.4-.7-.8 0-1.6.3-2.3.9-.1.1-.8.8-1.9 2.2-1.2.7-2 1.2-2.7 1.3m-2.3-35.5c.8.1 1.5.1 2 .2 4.5.8 8.4 2.9 11.6 6.2 3.2 3.4 5.2 7.3 5.8 11.8.1.9.2 2.6.4 5.2 0 .5.2.9.4 1.2.2.3.6.5 1 .5s.8-.2 1-.5c.3-.3.4-.7.3-1.2-.1-1.5-.2-2.5-.2-3.1-.1-1.2-.2-2.2-.4-3-1.1-5.9-3.9-10.8-8.4-14.5-4.3-3.6-9.4-5.5-15.2-5.8h-1.2c-.5 0-.8.2-1.1.5-.3.3-.4.7-.4 1.1.1.5.4.8.9.9.2.1.7.2 1.4.2.5.1 1.2.2 2.1.3m1.4 10c-.4 0-.7.1-1 .3-.3.2-.5.5-.5.9-.1.4 0 .7.2 1 .2.3.5.5 1 .6.2 0 .6.1 1.1.2.5 0 .9.1 1.1.1.6.2 1.1.5 1.6.8 1 .7 1.7 1.8 2 3.1.1.2.2.9.3 2 .1.9.6 1.4 1.5 1.5h.1c.3 0 .5-.1.7-.2.2-.2.3-.5.4-.8v-1.2c-.2-2.7-1.1-4.7-2.7-6.1-1.4-1.3-3.3-2.1-5.8-2.2m-2.1-3.9c.5.1 1.1.2 2 .3 1.8.3 3.3.7 4.6 1.4 1.2.6 2.2 1.3 3.2 2.2 1 .9 1.8 2 2.5 3.1 1.2 2.1 1.9 4.6 1.9 7.3 0 .5 0 .9.1 1.2.2.6.6.9 1.3.8.7 0 1.1-.4 1.2-.9 0-.1.1-.4.2-.9l-.2-2.9c-.8-5.7-3.8-9.8-8.8-12.4-2.2-1.2-4.9-1.9-7.9-2.1-.4 0-.8.1-1 .4-.2.2-.4.5-.4.9s.1.8.3 1.1c.2.3.5.4 1 .5z"/>
		</g>
		<g>
			<path fill="#09ba27" d="M111.8 74.9c-6.5.3-12.6 1.8-18.5 4.5-5.7 2.7-10.7 6.3-15 10.9-4.3 4.6-7.6 9.7-10 15.5-2.4 6-3.7 12.2-3.7 18.8 0 4 .5 7.9 1.4 11.7.9 3.7 2.2 7.2 4 10.6l-5.2 25.6c-.1.7 0 1.3.5 1.8s1.1.7 1.8.5l25-5.9c3.3 1.6 6.7 2.8 10.2 3.7 3.6.9 7.3 1.4 11.1 1.4 6.6.1 13-1.1 19.2-3.6 5.9-2.4 11.2-5.8 15.8-10.2 4.6-4.4 8.3-9.6 10.9-15.4 2.8-6 4.2-12.3 4.4-18.9.2-7.1-1-13.9-3.7-20.4-2.6-6.3-6.3-11.8-11.1-16.6-4.9-4.8-10.5-8.4-16.8-10.9-6.3-2.4-13.2-3.5-20.3-3.1m-25 22c3.6-3.6 7.8-6.4 12.6-8.4s9.7-3 14.8-3c5.2 0 10.1 1 14.9 3 4.7 1.9 8.9 4.7 12.6 8.4 3.7 3.7 6.5 7.9 8.4 12.6 1.9 4.7 2.9 9.7 2.9 14.9 0 5.1-1 10.1-2.9 14.9-2 4.8-4.8 9-8.4 12.6-3.7 3.7-7.9 6.5-12.6 8.5-4.7 2-9.7 2.9-14.9 2.9-6.1 0-11.9-1.4-17.3-4.1l-3.4-1.8-15.3 3.6 3.2-15.7-1.7-3.3c-2.8-5.5-4.2-11.4-4.2-17.7 0-5.2 1-10.2 2.9-14.9 1.9-4.6 4.7-8.8 8.4-12.5m53.8 40.5c-.4-1.1-1.2-1.9-2.3-2.2l-9.6-2.8c-.6-.2-1.3-.2-1.9 0-.6.2-1.2.5-1.7.9l-2.3 2.4c-.5.5-1.1.9-1.8 1-.7.1-1.4.1-2.1-.1-2.3-.9-5.3-3.1-9.1-6.4-3.8-3.3-6.3-6.1-7.5-8.2-.3-.6-.5-1.2-.4-1.9.1-.7.3-1.3.8-1.9l2.1-2.7c.4-.5.6-1.1.7-1.8.1-.7 0-1.3-.2-1.9l-4.1-9.2c-.5-1.1-1.3-1.8-2.5-2.1-1.1-.3-2.2 0-3.1.8-1.6 1.4-3 2.8-4 4.2-1.3 1.8-2.1 3.6-2.2 5.3-.8 8 3.6 16.5 13.1 25.5 5.8 5.4 11.4 9 16.9 10.8 4.4 1.5 8.6 1.8 12.4.9 1.7-.4 3.4-1.4 5-2.9 1.2-1.2 2.4-2.7 3.6-4.6.6-.9.7-2 .2-3.1z"/>
		</g>
		<g>
			<path fill="#0174FE" d="M113.8 286.1c-6.6-.1-13 1-19.1 3.4-5.9 2.4-11.2 5.8-15.8 10.2-4.6 4.4-8.2 9.5-10.8 15.3-2.7 6-4.1 12.3-4.3 19 0 6.9 1.5 13.5 4.4 19.7 2.9 6.2 7 11.6 12.2 16V384c0 .6.2 1.1.7 1.5.4.4.9.6 1.5.6.4 0 .8-.1 1.1-.3l11.6-7.2c6 2.3 12.2 3.4 18.6 3.4 6.6.1 13-1 19.1-3.5 5.9-2.4 11.2-5.8 15.8-10.2 4.6-4.4 8.2-9.5 10.9-15.3 2.7-6 4.1-12.4 4.2-19-.1-6.6-1.6-13-4.2-19-2.6-5.8-6.2-10.9-10.9-15.3-4.6-4.4-9.9-7.8-15.8-10.2-6.2-2.4-12.6-3.5-19.2-3.4m8.6 45.4 21.7-11.9c.5-.2.9-.3 1.4-.2.5.1.9.4 1.2.8.3.4.5.9.4 1.4 0 .5-.2 1-.6 1.4l-25 25c-.4.4-.9.6-1.4.6-.5 0-1-.1-1.5-.5l-13.5-11.6-21.6 11.8c-.4.2-.8.3-1.3.2-.5-.1-.8-.3-1.2-.6-.4-.4-.7-.9-.7-1.5s.2-1.1.7-1.5l25-25c.4-.4.8-.6 1.3-.6.6 0 1.1.1 1.5.4l13.6 11.8z"/>
		</g>
		<path fill="#fff" d="m191.85 135.313-76.272 51.446 7.829 11.606 76.271-51.445-7.828-11.607ZM22.432 1.108C17.145-.188 12.321.688 8.047 3.572 3.773 6.455 1.22 10.552.373 15.987c-.78 5.387.359 10.346 3.514 15.024l45.28 67.13-20.622-6.187-.476-.11c-2.618-.611-5.074-.684-7.486-.245a20.282 20.282 0 0 0-6.9 2.709l-.068.046a17.734 17.734 0 0 0-5.077 5.261c-1.31 2.073-2.182 4.497-2.578 7.033-.647 4.542.228 8.814 2.745 12.843 2.517 4.028 6.425 7.443 11.774 10.318 6.094 3.236 12.903 6.639 20.526 10.356a8770.72 8770.72 0 0 0 19.317 9.012c11.626 5.34 19.605 9.14 23.94 11.403 3.827 1.956 11.487 6.622 22.999 13.875 1.065.686 2.236 1.084 3.483 1 1.297-.01 2.393-.318 3.427-1.015l66.73-45.01c1.102-.744 1.886-1.812 2.35-3.206.464-1.394.434-2.777-.023-4.198a601.512 601.512 0 0 0-9.58-28.329c-6.395-17.51-11.527-29.283-15.584-35.298l-26.196-38.837c-3.156-4.679-7.377-7.666-12.683-8.84-5.237-1.222-10.062-.345-14.336 2.538-2.206 1.488-3.973 3.328-5.233 5.475-3.326-2.403-6.94-3.747-10.812-3.836-4.04-.192-7.706.768-10.946 2.953-2.413 1.628-4.287 3.756-5.723 6.237-3.163-1.864-6.546-2.715-10.11-2.796-3.634-.034-6.942 1.009-9.907 3.008-1.723 1.163-3.246 2.622-4.43 4.286L35.114 9.947c-3.156-4.677-7.377-7.664-12.683-8.84Zm-8.329 22.186c-1.055-1.564-1.424-3.157-1.14-4.974.284-1.817 1.04-3.085 2.424-4.018 1.384-.934 2.98-1.253 4.703-.789 1.722.464 3.13 1.356 4.184 2.92l35.967 53.322c1.054 1.564 2.512 2.531 4.234 2.995 1.792.417 3.389.098 4.842-.882 1.453-.98 2.416-2.388 2.7-4.205.285-1.817-.135-3.484-1.19-5.048L58.32 44.07c-1.055-1.564-1.424-3.156-1.14-4.974.285-1.817 1.11-3.131 2.493-4.065 1.384-.933 2.912-1.205 4.703-.788 1.792.417 3.13 1.356 4.185 2.92l17.53 25.99c1.056 1.565 2.513 2.532 4.236 2.995 1.791.417 3.388.099 4.841-.882 1.453-.98 2.297-2.415 2.7-4.205.285-1.817-.135-3.484-1.19-5.048L84.17 37.47c-1.055-1.564-1.425-3.156-1.14-4.973.215-1.77 1.109-3.132 2.492-4.066 1.384-.933 2.912-1.205 4.704-.788 1.722.463 3.13 1.356 4.184 2.92l17.531 25.99c1.055 1.565 2.513 2.532 4.304 2.949 1.791.417 3.389.098 4.842-.882 1.453-.98 2.296-2.416 2.7-4.205.285-1.817-.135-3.485-1.19-5.049L111.395 32.76c-1.055-1.564-1.424-3.157-1.14-4.974.266-1.696 1.11-3.132 2.493-4.065 1.384-.933 2.912-1.205 4.703-.788 1.722.463 3.18 1.43 4.185 2.92L147.907 64.8c2.813 4.17 6.622 12.653 11.446 25.327 3.507 9.229 7.019 19.212 10.487 29.876l-59.852 40.37c-10.092-6.304-16.878-10.395-20.309-12.198-4.807-2.5-12.983-6.412-24.716-11.718a1605.838 1605.838 0 0 1-19.092-8.901c-7.478-3.624-14.14-6.933-20.015-10.121-5.146-2.705-7.482-5.572-7.046-8.358.265-1.696 1.09-3.01 2.474-3.944 1.384-.933 2.911-1.206 4.533-.89l37.46 11.356c1.294.427 2.596.416 3.904-.033 1.308-.449 2.295-1.223 3.082-2.296.787-1.072 1.046-2.33 1.015-3.718-.03-1.389-.387-2.664-1.19-3.856L14.38 23.107l-.277.187Z" transform="translate(436.631192, 228.207331)" fill-rule="nonzero"/>
	</g>
</symbol><symbol id="angle-right" viewBox="0 0 256 512"><path fill="#fff" d="M224 273 88 409c-9 9-24 9-34 0l-22-23c-10-9-10-24 0-34l96-96-96-96c-10-10-10-25 0-34l22-23c10-9 25-9 34 0l136 136c10 9 10 25 0 34z"/></symbol><symbol id="call-icon" viewBox="0 0 512.2 512.2"><circle cx="256.3" cy="256.3" r="250" fill="#fff"/><path d="M256 512A256 256 0 0 1 75 75a256 256 0 0 1 362 362 254 254 0 0 1-181 75Zm0-493a237 237 0 1 0 1 474 237 237 0 0 0-1-474Z" fill="#bd2026"/><path d="M75 207c-7-23 3-55 20-70l39-34c6-5 12-8 18-8 10 0 19 8 23 23a383 383 0 0 0 25 61l-38 33c-9 8-10 27-2 41a383 383 0 0 0 86 97 39 39 0 0 0 24 9c7 0 13-2 17-6l38-33a383 383 0 0 0 57 32c22 10 27 28 10 43l-39 34a75 75 0 0 1-47 16 59 59 0 0 1-25-5A383 383 0 0 1 75 207Zm195-72 3-34a150 150 0 0 0-81 14l12 32a116 116 0 0 1 53-13 119 119 0 0 1 13 1Zm131 70a150 150 0 0 0-99-98l-10 32a116 116 0 0 1 76 77Zm-91 67v-15h-31a3 3 0 0 1-3-4v-11a3 3 0 0 1 0-2l30-47a3 3 0 0 1 2-2h23a3 3 0 0 1 3 3v42h6a3 3 0 0 1 3 4v13a3 3 0 0 1-3 4h-6v15a3 3 0 0 1-3 3h-18a3 3 0 0 1-3-3Zm0-36v-13l-1 1-7 12Zm97 14a153 153 0 0 0-1-16l-34 3a120 120 0 0 1 1 13 116 116 0 0 1-21 66l30 17a150 150 0 0 0 25-83Zm-192 25h55a3 3 0 0 0 4-3v-15a3 3 0 0 0-4-3h-20v-1c12-10 22-21 22-36 0-16-12-27-30-27-11 0-21 3-28 8a3 3 0 0 0-1 4l5 13a3 3 0 0 0 2 2 3 3 0 0 0 3 0c5-4 10-6 15-6 6 0 9 3 9 8 0 7-8 16-24 30l-10 9a3 3 0 0 0-1 3v11a3 3 0 0 0 3 3Z" fill="#bd2026"/></symbol><symbol id="click-to-call-ru" viewBox="0 0 154 138"><g style="enable-background:new 0 0 154 138">g style=&quot;enable-background:new 0 0 154 138&quot;&gt;<circle cx="76" cy="55" r="50" style="fill:#fff;stroke:#dd2033;stroke-width:10;stroke-miterlimit:10"/><path fill="#dd2033" d="M78.4 68.4s1.8.2 2.7-1L83 65c.9-1.2 3.1-1.9 5.2-.7 1.2.7 3.3 2 4.7 3 1.4 1 4.3 3.5 4.3 3.5 1.4 1.2 1.7 2.9.8 4.7-1 1.7-2.3 3.3-3.9 4.8-1.3 1.1-2.7 1.8-4 1.9h-.6c-.6 0-1.1-.1-1.7-.3v-.1c-2-.6-5.3-2-10.9-5-3.6-2-6.6-4-9.1-6-1.3-1.1-2.7-2.3-4.1-3.6l-.1-.1-.1-.1c-.1 0-.1-.1-.1-.1l-.1-.1c-1.4-1.4-2.6-2.8-3.6-4.1-2-2.5-4-5.5-6-9.1-3.1-5.5-4.5-8.9-5-10.9h-.1c-.2-.6-.3-1.1-.3-1.7v-.6c.2-1.3.8-2.6 1.9-4 1.5-1.6 3.1-2.9 4.8-3.9 1.8-.9 3.5-.6 4.7.8 0 0 2.4 2.9 3.5 4.3 1 1.3 2.3 3.5 3 4.7 1.2 2.1.4 4.3-.7 5.2l-2.4 1.9c-1.2 1-1 2.7-1 2.7s3.3 13 16.3 16.3"/><path fill="#dd2033" d="M98.9 57.5c-.7 0-1.3-.6-1.3-1.3-.1-7.8-2.3-13.7-6.8-18.1S80.7 31.5 74 31.5c-.7 0-1.3-.6-1.3-1.3 0-.7.6-1.3 1.3-1.3 7.4.1 13.6 2.5 18.6 7.4s7.5 11.6 7.6 19.9c0 .7-.6 1.3-1.3 1.3z"/><path fill="#dd2033" d="M92.3 54.9c-.7 0-1.3-.6-1.3-1.3.1-4.3-1.1-7.8-3.8-10.7-2.6-2.9-6.2-4.4-11.1-4.8-.7-.1-1.2-.7-1.2-1.4.1-.7.7-1.2 1.4-1.2 5.4.4 9.7 2.3 12.7 5.6 3.1 3.3 4.6 7.5 4.4 12.5.1.8-.4 1.3-1.1 1.3"/><path fill="#dd2033" d="M85.8 52.7c-.7 0-1.2-.5-1.3-1.2-.2-4.3-2.2-6.4-6.4-6.6-.7 0-1.2-.6-1.2-1.3s.6-1.2 1.3-1.2c5.5.3 8.5 3.4 8.8 9 .1.7-.5 1.3-1.2 1.3"/><path fill="#dd2033" d="M146.3 129.3H7.6c-4.2 0-7.6-3.4-7.6-7.6V102c0-4.2 3.4-7.6 7.6-7.6h138.7c4.2 0 7.6 3.4 7.6 7.6v19.7c.1 4.2-3.4 7.6-7.6 7.6z"/><text transform="translate(10.135 120.302)" style="font-size:23px;font-family:&apos;TrebuchetMS-BoldV, erdana, Geneva, Tahoma, sans-serif&apos;;fill:#fff">&#x41F;&#x41E;&#x417;&#x412;&#x41E;&#x41D;&#x418;&#x422;&#x42C;</text></g></symbol><symbol id="click-to-call" viewBox="0 0 154 138"><g style="enable-background:new 0 0 154 138"><circle cx="76" cy="55" r="50" style="fill:#fff;stroke:#dd2033;stroke-width:10;stroke-miterlimit:10"/><path fill="#dd2033" d="M78.4 68.4s1.8.2 2.7-1L83 65c.9-1.2 3.1-1.9 5.2-.7 1.2.7 3.3 2 4.7 3 1.4 1 4.3 3.5 4.3 3.5 1.4 1.2 1.7 2.9.8 4.7-1 1.7-2.3 3.3-3.9 4.8-1.3 1.1-2.7 1.8-4 1.9h-.6c-.6 0-1.1-.1-1.7-.3v-.1c-2-.6-5.3-2-10.9-5-3.6-2-6.6-4-9.1-6-1.3-1.1-2.7-2.3-4.1-3.6l-.1-.1-.1-.1c-.1 0-.1-.1-.1-.1l-.1-.1c-1.4-1.4-2.6-2.8-3.6-4.1-2-2.5-4-5.5-6-9.1-3.1-5.5-4.5-8.9-5-10.9h-.1c-.2-.6-.3-1.1-.3-1.7v-.6c.2-1.3.8-2.6 1.9-4 1.5-1.6 3.1-2.9 4.8-3.9 1.8-.9 3.5-.6 4.7.8 0 0 2.4 2.9 3.5 4.3 1 1.3 2.3 3.5 3 4.7 1.2 2.1.4 4.3-.7 5.2l-2.4 1.9c-1.2 1-1 2.7-1 2.7s3.3 13 16.3 16.3"/><path fill="#dd2033" d="M98.9 57.5c-.7 0-1.3-.6-1.3-1.3-.1-7.8-2.3-13.7-6.8-18.1S80.7 31.5 74 31.5c-.7 0-1.3-.6-1.3-1.3 0-.7.6-1.3 1.3-1.3 7.4.1 13.6 2.5 18.6 7.4s7.5 11.6 7.6 19.9c0 .7-.6 1.3-1.3 1.3z"/><path fill="#dd2033" d="M92.3 54.9c-.7 0-1.3-.6-1.3-1.3.1-4.3-1.1-7.8-3.8-10.7-2.6-2.9-6.2-4.4-11.1-4.8-.7-.1-1.2-.7-1.2-1.4.1-.7.7-1.2 1.4-1.2 5.4.4 9.7 2.3 12.7 5.6 3.1 3.3 4.6 7.5 4.4 12.5.1.8-.4 1.3-1.1 1.3"/><path fill="#dd2033" d="M85.8 52.7c-.7 0-1.2-.5-1.3-1.2-.2-4.3-2.2-6.4-6.4-6.6-.7 0-1.2-.6-1.2-1.3s.6-1.2 1.3-1.2c5.5.3 8.5 3.4 8.8 9 .1.7-.5 1.3-1.2 1.3"/><path fill="#dd2033" d="M146.3 129.3H7.6c-4.2 0-7.6-3.4-7.6-7.6V102c0-4.2 3.4-7.6 7.6-7.6h138.7c4.2 0 7.6 3.4 7.6 7.6v19.7c.1 4.2-3.4 7.6-7.6 7.6z"/><text transform="translate(10.135 120.302)" style="font-size:25px;font-family:&apos;TrebuchetMS-BoldV, erdana, Geneva, Tahoma, sans-serif&apos;;fill:#fff">&#x414;&#x417;&#x412;&#x41E;&#x41D;&#x418;&#x422;&#x418;</text></g></symbol><symbol id="click-to-viber-ru" viewBox="0 0 294 138"><g style="enable-background:new 0 0 294 138">&lt;<g style="enable-background:new 0 0 294 138"><path fill="#693786" d="M79.9 113.9c5.4.3 13.4.7 20.9 1 17.7.7 40.1 1.2 60.2.8 28.2.1 61.7-2.7 66.5-3 57.3-2.1 66-21.9 66.2-53.6.1-20.3-3.1-30-7.8-36-5.4-7.5-12.1-14-48.7-18.6C214.7 1.8 192.1.9 170.8.4c-26.8-.7-51.6-.4-71.7.7C68.6 2.8 31.6 6.4 23.4 11 13.1 15.5 8.9 21.6 8.6 22.2 3.4 29.3.2 39.8.4 56.6c.1 5.1.2 10.9 1 17.3 3.2 26.1 22.1 31.9 28.7 33.8 15.8 5 44.4 5.9 49.8 6.2"/><path d="M35.9 100.2C29.6 98.5 12 94.1 9 71.8c-.8-5.4-1-10.3-1.1-14.7-.2-14.4 2.7-23.3 7.6-29.3.3-.5 4.3-5.7 14.1-9.6 7.9-3.9 43.2-7 72.3-8.5 19.2-1 42.9-1.2 68.5-.6 20.4.4 41.9 1.2 63.4 3.4 34.9 3.9 41.3 9.4 46.5 15.9 2.8 4.1 4.4 9.3 5.9 17.8.8 7 .6 14-.3 21.2-2.7 22.1-8.1 33.3-61.2 37.5-4.6.3-9.6.9-14.9 1 0 0-22.1 1.2-48.6 1.6-19.2.3-40.6-.1-57.5-.7-7.1-.3-15.8-.9-15.8-.9s-14.5 19-19.2 24c-4.1 4-7.5 6.7-12.3 4.8-3.8-1.9-3.7-5.7-3.8-9.8-.1-3.5-.7-21.8-.7-21.8l-16-2.9z" style="fill:#fff;stroke:#693786;stroke-width:5;stroke-miterlimit:10"/><path fill="#693786" d="M62.9 72.1s1.8.2 2.7-1l1.9-2.4c.9-1.2 3.1-1.9 5.2-.7 1.2.7 3.3 2 4.7 3 1.4 1 4.3 3.5 4.3 3.5 1.4 1.2 1.7 2.9.8 4.7-1 1.7-2.3 3.3-3.9 4.8-1.3 1.1-2.7 1.8-4 1.9H74c-.6 0-1.1-.1-1.7-.3v-.1c-2-.6-5.3-2-10.9-5-3.6-2-6.6-4-9.1-6-1.3-1.1-2.7-2.3-4.1-3.6l-.1-.1-.1-.1c-.1 0-.1-.1-.1-.1l-.1-.1c-1.4-1.4-2.6-2.8-3.6-4.1-2-2.5-4-5.5-6-9.1-3.1-5.5-4.5-8.9-5-10.9h-.1c-.2-.6-.3-1.1-.3-1.7v-.6c.2-1.3.8-2.6 1.9-4 1.5-1.6 3.1-2.9 4.8-3.9 1.8-.9 3.5-.6 4.7.8 0 0 2.4 2.9 3.5 4.3 1 1.3 2.3 3.5 3 4.7 1.2 2.1.4 4.3-.7 5.2l-2.4 1.9c-1.2 1-1 2.7-1 2.7s3.3 13 16.3 16.3"/><path fill="#693786" d="M83.4 61.2c-.7 0-1.3-.6-1.3-1.3-.1-7.8-2.3-13.7-6.8-18.1s-10.1-6.6-16.8-6.6c-.7 0-1.3-.6-1.3-1.3s.6-1.3 1.3-1.3c7.4.1 13.6 2.5 18.6 7.4s7.5 11.6 7.6 19.9c0 .7-.6 1.3-1.3 1.3z"/><path fill="#693786" d="M76.7 58.6c-.7 0-1.3-.6-1.3-1.3.1-4.3-1.1-7.8-3.8-10.7-2.6-2.9-6.2-4.4-11.1-4.8-.7-.1-1.2-.7-1.2-1.4.1-.7.7-1.2 1.4-1.2 5.4.4 9.7 2.3 12.7 5.6 3.1 3.3 4.6 7.5 4.4 12.5.2.8-.4 1.3-1.1 1.3"/><path fill="#693786" d="M70.2 56.4c-.7 0-1.2-.5-1.3-1.2-.2-4.3-2.2-6.4-6.4-6.6-.7 0-1.2-.6-1.2-1.3s.6-1.2 1.3-1.2c5.5.3 8.5 3.4 8.8 9 .1.7-.4 1.3-1.2 1.3.1 0 .1 0 0 0"/><path fill="#693786" d="M138.7 38.4c0-1.7.6-3.1 1.8-4.3 1.2-1.2 2.6-1.8 4.3-1.8 1.7 0 3.1.6 4.3 1.8s1.8 2.6 1.8 4.3-.6 3.1-1.8 4.3c-1.2 1.2-2.6 1.8-4.3 1.8-1.7 0-3.2-.6-4.4-1.8-1.1-1.2-1.7-2.6-1.7-4.3"/><path fill="#693786" d="M237 77.5V54.1c0-2.9.5-5 1.4-6.4 1-1.4 2.4-2.1 4.4-2.1 1.2 0 2.2.3 3.1.9.9.6 1.7 1.5 2.4 2.8 1.2-1.3 2.5-2.3 3.8-2.9 1.3-.7 2.7-1 4.1-1 1.6 0 3 .6 4.2 1.7s1.7 2.5 1.7 4c0 2.3-2.1 4.3-6.4 5.8-1.5.6-2.7 1-3.5 1.4-1.5.7-2.4 1.5-2.9 2.3-.5.9-.7 2.4-.7 4.6v12.1c0 2.9-.5 5-1.4 6.4-1 1.4-2.4 2.1-4.4 2.1s-3.4-.7-4.4-2.1c-.9-1.3-1.4-3.4-1.4-6.2"/><path fill="#693786" d="M206.6 68.9c.3 2.2 1.8 3.9 3.4 5.1 1.5 1.2 3.6 1.8 6.1 1.8 2.2 0 4.6-.6 7.3-1.9 2.7-1.3 4.3-1.9 5-1.9 1.4 0 2.5.4 3.3 1.3.9.8 1.3 1.9 1.3 3.2 0 2.5-1.7 4.7-5.2 6.7s-7.6 3-12.3 3c-5.7 0-10.5-2-14.4-5.9-3.8-3.9-5.8-8.8-5.8-14.7 0-5.9 1.9-10.8 5.6-14.8 3.7-3.9 8.4-5.9 13.9-5.9 5.4 0 9.9 1.9 13.5 5.6 3.6 3.7 5.4 8.2 5.4 13.6 0 1.7-.4 3-1.2 3.7-.8.7-2.3 1-4.6 1h-21.3v.1zm-.5-6.8h17.1c-.2-2.2-1-4.4-2.6-5.8-1.6-1.4-3.5-2.2-5.7-2.2s-4.2.7-5.8 2.1c-1.5 1.4-2.5 3.6-3 5.9"/><path fill="#693786" d="M166.5 48.4c1.3-1.1 2.7-1.9 4.2-2.5s3.2-.8 5-.8c5 0 9.2 2 12.7 6 3.4 4 5.2 8.9 5.2 14.9 0 5.6-1.8 10.4-5.3 14.4s-7.7 6-12.6 6c-1.9 0-3.7-.3-5.3-1-1.6-.7-3-1.7-4.1-3-.7 1.2-1.5 2.2-2.5 2.8s-2 .9-3.1.9c-2 0-3.4-.7-4.4-2.1-.9-1.4-1.4-3.5-1.4-6.4V40.8c0-2.9.5-5 1.4-6.4s2.4-2.1 4.4-2.1 3.4.7 4.4 2.1c1 1.4 1.4 3.5 1.4 6.4v7.6zm-.8 17.4c0 3.2.8 5.7 2.3 7.7 1.6 1.9 3.6 2.9 6 2.9s4.4-1 6-2.9c1.6-2 2.4-4.5 2.4-7.6 0-3.2-.8-5.8-2.3-7.7-1.6-2-3.6-3-6-3-2.5 0-4.5 1-6 3-1.7 1.8-2.4 4.3-2.4 7.6"/><path fill="#693786" d="M150 78c0 2.7-.4 4.7-1.3 6s-2.2 1.9-4.1 1.9-3.2-.7-4.1-2-1.4-3.3-1.4-6V56.1c0-2.7.5-4.7 1.3-6 .9-1.3 2.3-1.9 4.2-1.9 1.8 0 3.2.7 4.1 1.9.9 1.3 1.3 3.3 1.3 6V78z"/><path fill="#693786" d="m107.9 81.5-16-39.8c-.2-.5-.4-1-.5-1.6s-.2-1.2-.2-1.8c0-1.7.6-3.1 1.8-4.2 1.2-1.1 2.7-1.7 4.4-1.7 1.3 0 2.4.4 3.2 1.2.8.8 1.6 2.1 2.3 3.9l10.8 29.3 10.5-28.9c.7-2.1 1.5-3.5 2.4-4.3s2.1-1.2 3.5-1.2c1.8 0 3.2.5 4.2 1.5s1.5 2.3 1.5 4c0 .7-.1 1.4-.2 2.1-.1.7-.3 1.4-.6 2.1l-15.5 39.1c-.7 1.8-1.5 3-2.4 3.8s-2.1 1.1-3.6 1.1c-1.4 0-2.5-.3-3.4-1-.8-.9-1.5-2-2.2-3.6"/><path fill="#693786" d="M245.8 129H103.1c-4.2 0-7.6-3.4-7.6-7.6v-19.7c0-4.2 3.4-7.6 7.6-7.6h142.7c4.2 0 7.6 3.4 7.6 7.6v19.7c.1 4.2-3.4 7.6-7.6 7.6z"/><text transform="translate(109.556 121.979)" style="font-size:25px;font-family:&apos;TrebuchetMS-BoldV, erdana, Geneva, Tahoma, sans-serif&apos;;fill:#fff">&#x41D;&#x410;&#x41F;&#x418;&#x421;&#x410;&#x422;&#x42C;</text></g></g></symbol><symbol id="click-to-viber" viewBox="0 0 294 138"><g style="enable-background:new 0 0 294 138"><path fill="#693786" d="M79.9 113.9c5.4.3 13.4.7 20.9 1 17.7.7 40.1 1.2 60.2.8 28.2.1 61.7-2.7 66.5-3 57.3-2.1 66-21.9 66.2-53.6.1-20.3-3.1-30-7.8-36-5.4-7.5-12.1-14-48.7-18.6C214.7 1.8 192.1.9 170.8.4c-26.8-.7-51.6-.4-71.7.7C68.6 2.8 31.6 6.4 23.4 11 13.1 15.5 8.9 21.6 8.6 22.2 3.4 29.3.2 39.8.4 56.6c.1 5.1.2 10.9 1 17.3 3.2 26.1 22.1 31.9 28.7 33.8 15.8 5 44.4 5.9 49.8 6.2"/><path d="M35.9 100.2C29.6 98.5 12 94.1 9 71.8c-.8-5.4-1-10.3-1.1-14.7-.2-14.4 2.7-23.3 7.6-29.3.3-.5 4.3-5.7 14.1-9.6 7.9-3.9 43.2-7 72.3-8.5 19.2-1 42.9-1.2 68.5-.6 20.4.4 41.9 1.2 63.4 3.4 34.9 3.9 41.3 9.4 46.5 15.9 2.8 4.1 4.4 9.3 5.9 17.8.8 7 .6 14-.3 21.2-2.7 22.1-8.1 33.3-61.2 37.5-4.6.3-9.6.9-14.9 1 0 0-22.1 1.2-48.6 1.6-19.2.3-40.6-.1-57.5-.7-7.1-.3-15.8-.9-15.8-.9s-14.5 19-19.2 24c-4.1 4-7.5 6.7-12.3 4.8-3.8-1.9-3.7-5.7-3.8-9.8-.1-3.5-.7-21.8-.7-21.8l-16-2.9z" style="fill:#fff;stroke:#693786;stroke-width:5;stroke-miterlimit:10"/><path fill="#693786" d="M62.9 72.1s1.8.2 2.7-1l1.9-2.4c.9-1.2 3.1-1.9 5.2-.7 1.2.7 3.3 2 4.7 3 1.4 1 4.3 3.5 4.3 3.5 1.4 1.2 1.7 2.9.8 4.7-1 1.7-2.3 3.3-3.9 4.8-1.3 1.1-2.7 1.8-4 1.9H74c-.6 0-1.1-.1-1.7-.3v-.1c-2-.6-5.3-2-10.9-5-3.6-2-6.6-4-9.1-6-1.3-1.1-2.7-2.3-4.1-3.6l-.1-.1-.1-.1c-.1 0-.1-.1-.1-.1l-.1-.1c-1.4-1.4-2.6-2.8-3.6-4.1-2-2.5-4-5.5-6-9.1-3.1-5.5-4.5-8.9-5-10.9h-.1c-.2-.6-.3-1.1-.3-1.7v-.6c.2-1.3.8-2.6 1.9-4 1.5-1.6 3.1-2.9 4.8-3.9 1.8-.9 3.5-.6 4.7.8 0 0 2.4 2.9 3.5 4.3 1 1.3 2.3 3.5 3 4.7 1.2 2.1.4 4.3-.7 5.2l-2.4 1.9c-1.2 1-1 2.7-1 2.7s3.3 13 16.3 16.3"/><path fill="#693786" d="M83.4 61.2c-.7 0-1.3-.6-1.3-1.3-.1-7.8-2.3-13.7-6.8-18.1s-10.1-6.6-16.8-6.6c-.7 0-1.3-.6-1.3-1.3s.6-1.3 1.3-1.3c7.4.1 13.6 2.5 18.6 7.4s7.5 11.6 7.6 19.9c0 .7-.6 1.3-1.3 1.3z"/><path fill="#693786" d="M76.7 58.6c-.7 0-1.3-.6-1.3-1.3.1-4.3-1.1-7.8-3.8-10.7-2.6-2.9-6.2-4.4-11.1-4.8-.7-.1-1.2-.7-1.2-1.4.1-.7.7-1.2 1.4-1.2 5.4.4 9.7 2.3 12.7 5.6 3.1 3.3 4.6 7.5 4.4 12.5.2.8-.4 1.3-1.1 1.3"/><path fill="#693786" d="M70.2 56.4c-.7 0-1.2-.5-1.3-1.2-.2-4.3-2.2-6.4-6.4-6.6-.7 0-1.2-.6-1.2-1.3s.6-1.2 1.3-1.2c5.5.3 8.5 3.4 8.8 9 .1.7-.4 1.3-1.2 1.3.1 0 .1 0 0 0"/><path fill="#693786" d="M138.7 38.4c0-1.7.6-3.1 1.8-4.3 1.2-1.2 2.6-1.8 4.3-1.8 1.7 0 3.1.6 4.3 1.8s1.8 2.6 1.8 4.3-.6 3.1-1.8 4.3c-1.2 1.2-2.6 1.8-4.3 1.8-1.7 0-3.2-.6-4.4-1.8-1.1-1.2-1.7-2.6-1.7-4.3"/><path fill="#693786" d="M237 77.5V54.1c0-2.9.5-5 1.4-6.4 1-1.4 2.4-2.1 4.4-2.1 1.2 0 2.2.3 3.1.9.9.6 1.7 1.5 2.4 2.8 1.2-1.3 2.5-2.3 3.8-2.9 1.3-.7 2.7-1 4.1-1 1.6 0 3 .6 4.2 1.7s1.7 2.5 1.7 4c0 2.3-2.1 4.3-6.4 5.8-1.5.6-2.7 1-3.5 1.4-1.5.7-2.4 1.5-2.9 2.3-.5.9-.7 2.4-.7 4.6v12.1c0 2.9-.5 5-1.4 6.4-1 1.4-2.4 2.1-4.4 2.1s-3.4-.7-4.4-2.1c-.9-1.3-1.4-3.4-1.4-6.2"/><path fill="#693786" d="M206.6 68.9c.3 2.2 1.8 3.9 3.4 5.1 1.5 1.2 3.6 1.8 6.1 1.8 2.2 0 4.6-.6 7.3-1.9 2.7-1.3 4.3-1.9 5-1.9 1.4 0 2.5.4 3.3 1.3.9.8 1.3 1.9 1.3 3.2 0 2.5-1.7 4.7-5.2 6.7s-7.6 3-12.3 3c-5.7 0-10.5-2-14.4-5.9-3.8-3.9-5.8-8.8-5.8-14.7 0-5.9 1.9-10.8 5.6-14.8 3.7-3.9 8.4-5.9 13.9-5.9 5.4 0 9.9 1.9 13.5 5.6 3.6 3.7 5.4 8.2 5.4 13.6 0 1.7-.4 3-1.2 3.7-.8.7-2.3 1-4.6 1h-21.3v.1zm-.5-6.8h17.1c-.2-2.2-1-4.4-2.6-5.8-1.6-1.4-3.5-2.2-5.7-2.2s-4.2.7-5.8 2.1c-1.5 1.4-2.5 3.6-3 5.9"/><path fill="#693786" d="M166.5 48.4c1.3-1.1 2.7-1.9 4.2-2.5s3.2-.8 5-.8c5 0 9.2 2 12.7 6 3.4 4 5.2 8.9 5.2 14.9 0 5.6-1.8 10.4-5.3 14.4s-7.7 6-12.6 6c-1.9 0-3.7-.3-5.3-1-1.6-.7-3-1.7-4.1-3-.7 1.2-1.5 2.2-2.5 2.8s-2 .9-3.1.9c-2 0-3.4-.7-4.4-2.1-.9-1.4-1.4-3.5-1.4-6.4V40.8c0-2.9.5-5 1.4-6.4s2.4-2.1 4.4-2.1 3.4.7 4.4 2.1c1 1.4 1.4 3.5 1.4 6.4v7.6zm-.8 17.4c0 3.2.8 5.7 2.3 7.7 1.6 1.9 3.6 2.9 6 2.9s4.4-1 6-2.9c1.6-2 2.4-4.5 2.4-7.6 0-3.2-.8-5.8-2.3-7.7-1.6-2-3.6-3-6-3-2.5 0-4.5 1-6 3-1.7 1.8-2.4 4.3-2.4 7.6"/><path fill="#693786" d="M150 78c0 2.7-.4 4.7-1.3 6s-2.2 1.9-4.1 1.9-3.2-.7-4.1-2-1.4-3.3-1.4-6V56.1c0-2.7.5-4.7 1.3-6 .9-1.3 2.3-1.9 4.2-1.9 1.8 0 3.2.7 4.1 1.9.9 1.3 1.3 3.3 1.3 6V78z"/><path fill="#693786" d="m107.9 81.5-16-39.8c-.2-.5-.4-1-.5-1.6s-.2-1.2-.2-1.8c0-1.7.6-3.1 1.8-4.2 1.2-1.1 2.7-1.7 4.4-1.7 1.3 0 2.4.4 3.2 1.2.8.8 1.6 2.1 2.3 3.9l10.8 29.3 10.5-28.9c.7-2.1 1.5-3.5 2.4-4.3s2.1-1.2 3.5-1.2c1.8 0 3.2.5 4.2 1.5s1.5 2.3 1.5 4c0 .7-.1 1.4-.2 2.1-.1.7-.3 1.4-.6 2.1l-15.5 39.1c-.7 1.8-1.5 3-2.4 3.8s-2.1 1.1-3.6 1.1c-1.4 0-2.5-.3-3.4-1-.8-.9-1.5-2-2.2-3.6"/><path fill="#693786" d="M245.8 129H103.1c-4.2 0-7.6-3.4-7.6-7.6v-19.7c0-4.2 3.4-7.6 7.6-7.6h142.7c4.2 0 7.6 3.4 7.6 7.6v19.7c.1 4.2-3.4 7.6-7.6 7.6z"/><text transform="translate(109.556 121.979)" style="font-size:25px;font-family:&apos;TrebuchetMS-BoldV, erdana, Geneva, Tahoma, sans-serif&apos;;fill:#fff">&#x41D;&#x410;&#x41F;&#x418;&#x421;&#x410;&#x422;&#x418;</text></g></symbol><symbol id="fbmess-icon" viewBox="0 0 513.1 513.1"><circle cx="256.6" cy="256.6" r="256.6" fill="#fff"/><path d="M256 0A256 256 0 0 0 75 438 256 256 0 1 0 437 75 254 254 0 0 0 256 0Zm0 493a237 237 0 1 1 1-474 237 237 0 0 1-1 474Z" fill="#34b2dd"/><path d="M256 82c-99 0-179 75-179 167 0 51 25 97 64 128l1 66 62-35a192 192 0 0 0 52 8c99 0 179-75 179-167S355 82 256 82Z" fill="#34b2dd"/><path fill="#fff" d="m236 204-98 103 89-49 46 49 97-103-89 47-45-47z"/></symbol><symbol id="ks-logo" viewBox="0 0 24 24"><g fill="none">
<path fill-rule="evenodd" clip-rule="evenodd" d="M12.0004 0C12.6632 0 13.2004 0.537258 13.2004 1.2V7.97905C13.2004 8.64179 12.6632 9.17905 12.0004 9.17905C11.3377 9.17905 10.8004 8.64179 10.8004 7.97905V1.2C10.8004 0.537258 11.3377 0 12.0004 0ZM23.9411 8.70424C24.1459 9.33454 23.801 10.0115 23.1707 10.2163L16.7234 12.3112C16.0931 12.516 15.4161 12.171 15.2113 11.5407C15.0065 10.9104 15.3515 10.2334 15.9818 10.0286L22.429 7.93379C23.0593 7.72899 23.7363 8.07393 23.9411 8.70424ZM0.0585679 8.70431C0.263366 8.07401 0.940351 7.72907 1.57066 7.93386L8.01791 10.0287C8.64822 10.2335 8.99316 10.9105 8.78836 11.5408C8.58356 12.1711 7.90658 12.516 7.27627 12.3112L0.829015 10.2164C0.198711 10.0116 -0.146231 9.33462 0.0585679 8.70431ZM14.0313 15.3532C14.5675 14.9637 15.3179 15.0825 15.7075 15.6187L19.6921 21.1031C20.0817 21.6392 19.9628 22.3897 19.4266 22.7792C18.8905 23.1688 18.14 23.0499 17.7505 22.5138L13.7659 17.0294C13.3763 16.4932 13.4952 15.7428 14.0313 15.3532ZM9.96949 15.3532C10.5057 15.7428 10.6245 16.4932 10.235 17.0294L6.25035 22.5138C5.8608 23.0499 5.11035 23.1688 4.57419 22.7792C4.03802 22.3897 3.91916 21.6392 4.30871 21.1031L8.29333 15.6187C8.68288 15.0825 9.43332 14.9637 9.96949 15.3532Z" fill="#0087E6"/>
</g></symbol><symbol id="location" viewBox="0 0 384 512"><path fill="#fff" d="M172 502C27 291 0 269 0 192a192 192 0 1 1 384 0c0 77-27 99-172 310a24 24 0 0 1-40 0zm20-230a80 80 0 1 0 0-160 80 80 0 0 0 0 160z"/></symbol><symbol id="logo-like-favicon" viewBox="0 0 215 53"><g fill="none"><path fill-rule="evenodd" clip-rule="evenodd" d="M13.7 6.4c-1 .2-1.2.7-2.2 1.3C8.1 10 8.3 10 5.3 13c-8.9 9-5.8 24.8 3.3 32 2.5 2 5.2 3.4 8.1 4.8 5 2.5 7.6 3.8 13.8 2.5 2.9-.5 3.3-.9 5.5-2 .8-.4 5.4-2 2.9-3.6-1.2-.7-4.4 1.4-5.4 2-2.4 1.2-3.5.1-6.4-.1v-1c1.2 0 4.4.2 5.2-.2 1.4-.7 1.2-2.5-1-2.7l-10.2-.4c-3.3.2-3.4 1.3-7.8-2-10.3-7.5-11-19-4-29.6L12.5 8c.8-.9.8-.4 1.1-1.6Z" fill="#659803"/><path fill-rule="evenodd" clip-rule="evenodd" d="M9.8 4.6c.8 3 1.7 1.8 6.3-.5 2.1-1 3.7 0 6.1.1v1c-2 0-6-.6-6 1.5 0 2 2.6 1.3 4.5 1.5l6.8.3c4 0 4-1 7.1 1 13.8 8.7 12.2 23.2 2.7 34.9l-1.7 2.2c1.3-.4 3.8-2.4 4.8-3.3 3-2.5 2-1.8 4.1-4 8-8.4 5.7-23.5-3.3-31C37.7 5.2 28.6 0 22.6 0c-2.6 0-5 .7-7 1.5-1.7.7-4.6 1.8-5.8 3Z" fill="#FE9603"/><path fill-rule="evenodd" clip-rule="evenodd" d="M20 23.6c2.8.3 2.6 2 2.7 2.4 2.4 12.3-3.8 12-2.7 6.2.5-2.2-1.2-3.2 0-8.6Zm3.3-1c-2.4-1.2-1.2-1.5-1.1-3.9 6.6-.1.2-7.8-1.5-3-.7 2.1.8.5-.8 2-1.4 1.4-2.6 2.3-3.6 3.9-3.4 4.9-2.8 5.4-4 10.5h1.8l-.6 4c.1 1.3-.1 1 3.8 1-.4-1-.5-.8-1.8-1.5 0-.7.3-1.6.5-2.3.5-1.1.2-1 1.6-1.2l1 3.6c.2.5-.1.9 1.3 1.2l6.5.1c-.4-1-.6-.3-1.4-1.4.5-1 .7-2.2.7-3.8 1.6 1.1 1.2 3.3 2.1 5.2h3.6c-.4-1.4-.1-1-1.8-1-1-4-3.6-12.2.4-14.8 1.3.3.7.2 1.5 1.2L33 24c3 2.8 1.4 2.2 3.4 2.2-.4.9-1.8 9.3-1.8 11 1.4-1 1.8-7 2.1-8.9.4-2.3.7-1.6 1.1-2.8-1.4-.8-2.6-1.7-3.8-2.9-2-2-1.4-2.2-2.5-4.5 4.7-1.1 2.2-4.6.3-4.6-1.5 0-1.6 1-2.2 2-1.3 2.4-4.8 1-6.2 7.2ZM52.9 4.6c0 2 2.5.4 2.5 2.5v11.2c0 1.9-.9 2-2.5 2.2 0 2.7-.5 2 7.8 2 1.2 0 1-.8 1-2-4.3-1-3.2-.2-3.2-14.1 4 0 5.7-.5 5.7 3.8 0 3-3.2 2.9-5 2.9v2.4c11.1 0 8.9-8.3 6.9-10.3-2.4-2.4-7.7-1.7-12.1-1.7-.9 0-1.1.3-1.1 1Z" fill="#FEFEFE"/><path d="M78.6 3.2c1.3 0 2.4.3 3.4.7 1 .4 2 1 2.6 1.9.8.8 1.4 1.8 1.8 3a12 12 0 0 1-.1 8c-.4 1-1 2-1.8 3a8 8 0 0 1-6 2.6c-1.2 0-2.3-.2-3.3-.7-1-.4-2-1-2.7-1.8a8.9 8.9 0 0 1-1.7-3 12.3 12.3 0 0 1 0-8c.5-1.1 1.1-2.1 1.9-3a8 8 0 0 1 6-2.7ZM78.5 6c-.6 0-1.2 0-1.8.3l-1.6.8a9.2 9.2 0 0 0-1.5 5.7c0 1.2.2 2.2.4 3 .3 1 .7 1.6 1.2 2.2a4.5 4.5 0 0 0 3.5 1.7l1.8-.3c.6-.2 1.1-.5 1.6-.9.4-.7.8-1.5 1-2.4a12.4 12.4 0 0 0 0-6.3c-.3-.9-.7-1.6-1.1-2.2-.5-.5-1-1-1.7-1.2-.6-.3-1.2-.4-1.8-.4ZM94.7 3.6h11.6v1.6L104 6.4l-.2.5v12.6l2.6-.2.3.3-.4 6.7H104l-.4-4-.3-.3H91.9l-.3.4-.3 4H89l-.6-5.7v-1.3h.8c.3 0 .6 0 .8-.2l.7-.5c.7-.8 1.3-1.9 1.6-3.3.4-1.4.6-3.2.7-5.2l.1-3.8-.3-.4-2.7-.6.2-2 4.5.2Zm1.5 2.5-.3.3-.1 3.6c-.2 4.4-1 7.5-2.2 9.4l6.7.2.3-.3v-13L96.2 6ZM117 3.6v1.6l-2.2 1.1-.2.5V10l-.2 5h.3l7.3-8.3v-.6l-.3-.4-2.7-.3.2-1.9h8.6v1.6l-2.2 1.2-.3.4v12.5l.3.4 2.3.5-.2 1.8h-8.2v-1.5l2.2-1.2.3-.5v-3.7l.1-4.6h-.2l-7.3 8.3v.6l.3.4 2.6.3-.1 1.9h-8.7v-1.5l2.2-1.3.3-.4V6.3l-.3-.4-2.1-.4.1-1.9h8.1ZM138.5 3.6v1.6l-2.2 1.1-.3.5v4.7l7.4-.2v-5l-.3-.5-2.6-.3.2-1.9h8.4v1.6L147 6.4l-.3.4v12.5l.3.4 2.2.5-.1 1.8h-8.2v-1.5l2.2-1.3.3-.4V14L136 14v5.5l.3.4 2.6.3-.1 1.9h-8.6v-1.5l2.2-1.3.3-.4V6.3l-.3-.4-2.2-.4.2-1.9h8.1ZM160 3.6v1.6l-2.3 1.1-.3.5v4.7l7.4-.2v-5l-.3-.5-2.6-.3.2-1.9h8.4v1.6l-2.1 1.2-.3.4v12.5l.3.4 2.2.5-.1 1.8h-8.2v-1.5l2.2-1.3.3-.4V14l-7.4-.1v5.5l.3.4 2.6.3-.1 1.9h-8.6v-1.5l2.2-1.3.3-.4V6.3l-.3-.4-2.2-.4.2-1.9h8.1ZM181.4 3.6l6.1-.2.3.4-.8 6-2.3-.2-.1-3.6h-2.3l-3.2.2-.3.4v4.8h2l2.4-.3.3.3-.3 2.5-4.4-.2v5.7l4.6.2h1.4l1-4.7 2.3.2-.5 7-4.2-.1H173v-1.5l2.4-1.3.2-.4V6.3l-.3-.4-2.2-.4.2-1.9h8.2ZM57 29.6h4l5.7-.2.4.4-.8 6.8-2.3-.1-.2-4.3h-3.3v13.1l.3.4 3.1.4-.1 1.9H53.7v-1.5l3.2-1.3.3-.4V32.3l-2.2-.1h-.9l-1 4.4-2.2-.2.4-7 5.8.2ZM77.5 29.6l6.1-.2.3.4-.9 6-2.2-.2-.2-3.6h-2.2l-3.2.2-.3.4v4.8h2l2.4-.3.3.3-.3 2.5-4.4-.2v5.7l4.5.2H81l1-4.7 2.2.2-.4 7-4.2-.1H69v-1.5l2.3-1.3.3-.4V32.3l-.3-.4-2.2-.4.2-1.9h8.2ZM105 29.6v1.6l-2.1 1.2-.3.4v12.5l.3.4 2.3.5-.2 1.8h-8v-1.5l2-1.3.3-.4V32.2l-6.6-.1-.3.3v13l.3.4 2.5.3L95 48h-8.4v-1.5l2.2-1.3.3-.4V32.3l-.3-.4-2.2-.4.2-1.9H105ZM114 29.6h11.4v1.6l-2.3 1.2-.2.5v12.4l.3.4 2.3.5-.1 1.8h-9v-1.6l3-1.2.2-.4V32.2l-4.2-.1-.3.3-.2 3.6c0 2.5-.3 4.6-.7 6.3-.4 1.6-.9 3-1.5 4-.4.6-1 1.1-1.6 1.5-.7.3-1.4.5-2.3.5l-1.3-.1c-.4 0-.8-.2-1.1-.3l.7-3.2 1.4.2c.7 0 1.3-.2 1.9-.6a28.4 28.4 0 0 0 1.8-8.1v-3.8l-.2-.4-2.7-.5.2-2 4.4.1ZM135.7 29.2c1.2 0 2.4.3 3.4.7 1 .4 1.9 1 2.6 1.9.8.8 1.3 1.8 1.7 3a12 12 0 0 1 0 8c-.5 1-1 2-1.8 3a8 8 0 0 1-6 2.6c-1.2 0-2.3-.2-3.4-.7-1-.4-1.9-1-2.6-1.8a8.9 8.9 0 0 1-1.7-3 12.3 12.3 0 0 1 0-8c.5-1.1 1.1-2.1 1.9-3a8 8 0 0 1 5.9-2.7Zm-.2 2.8c-.6 0-1.2 0-1.8.3l-1.5.8a9.2 9.2 0 0 0-1.5 5.7c0 1.2.1 2.2.4 3 .3 1 .7 1.6 1.2 2.2a4.5 4.5 0 0 0 3.5 1.7l1.8-.3c.6-.2 1-.5 1.5-.9.5-.7.9-1.5 1.1-2.4a12.4 12.4 0 0 0 0-6.3c-.3-.9-.7-1.6-1.1-2.2-.5-.5-1-1-1.7-1.2-.6-.3-1.2-.4-1.9-.4ZM153.3 30v7h-1.7v-5.7h-3.1V37h-1.6v-7h6.3ZM158 30c.6 0 1.2.1 1.6.3.5.2.8.5 1 .9.3.4.5.8.5 1.3 0 .6-.2 1-.4 1.4-.3.4-.6.7-1 .9a4 4 0 0 1-1.7.3h-1.4V37H155v-7h3Zm0 3.7c.4 0 .8 0 1-.3.3-.2.4-.5.4-.9s-.1-.7-.4-.9c-.2-.2-.6-.3-1-.3h-1.4v2.4h1.3ZM162.1 30h1.6v4.6l3.4-4.6h1.5v7H167v-4.6l-3.3 4.6H162v-7ZM175.2 33.3l1 .7c.2.3.3.6.3 1 0 .6-.2 1.1-.7 1.5-.5.3-1.1.5-2 .5h-3.5v-7h3.3c.8 0 1.4.2 1.9.5.4.3.7.7.7 1.3 0 .4-.1.7-.3 1l-.7.5Zm-3.3-.4h1.6c.3 0 .6 0 .8-.2l.2-.7c0-.2 0-.4-.3-.6l-.7-.2h-1.6v1.7Zm1.8 2.9c.8 0 1.2-.3 1.2-.9 0-.6-.4-.9-1.2-.9H172v1.8h1.8ZM182.5 35.5h-3.2l-.6 1.5H177l3.1-7h1.6l3.1 7h-1.7l-.6-1.5Zm-.5-1.2-1-2.7-1.2 2.7h2.2ZM190.8 31.3h-2.3V37H187v-5.7h-2.2V30h6v1.3ZM198.2 30v7h-1.6v-2.9h-3.2V37h-1.6v-7h1.6v2.8h3.2V30h1.6ZM200 30h1.6v4.6l3.3-4.6h1.5v7h-1.6v-4.6l-3.3 4.6H200v-7ZM208.2 30h1.6v4.6L213 30h1.5v7H213v-4.6l-3.3 4.6h-1.5v-7Zm3.2-.5c-1.3 0-2-.5-2-1.5h1.2c0 .5.3.7.8.7l.6-.1c.2-.2.2-.3.2-.6h1.1c0 .5-.1.9-.4 1.2-.4.2-.8.3-1.5.3ZM153.3 42v7h-1.7v-5.7h-3.1V49h-1.6v-7h6.3ZM159.7 47.5h-3.2l-.6 1.5h-1.7l3.1-7h1.6l3.1 7h-1.7l-.6-1.5Zm-.5-1.2-1-2.7-1.2 2.7h2.2ZM169.4 42v7h-1.6v-2.9h-3.2V49H163v-7h1.6v2.8h3.2V42h1.6ZM174.5 49.1a4 4 0 0 1-2-.4 3.6 3.6 0 0 1-1.8-3.2c0-.7.1-1.3.5-1.9.3-.5.7-1 1.3-1.3a4 4 0 0 1 2-.4 4 4 0 0 1 1.6.3c.5.2 1 .5 1.2 1l-1 .9c-.5-.6-1-.8-1.8-.8-.4 0-.8 0-1.1.2a2 2 0 0 0-.8.8l-.3 1.2.3 1.2c.2.3.4.6.8.8l1.1.2c.7 0 1.3-.2 1.8-.8l1 1c-.3.4-.7.7-1.2.9-.5.2-1 .3-1.6.3ZM178.4 42h1.6v7h-1.6v-7ZM185 49.1c-.6 0-1.3-.1-1.9-.5-.6-.3-1-.7-1.3-1.2-.4-.6-.5-1.2-.5-1.9a3.5 3.5 0 0 1 1.8-3.2c.6-.3 1.3-.4 2-.4a4 4 0 0 1 2 .4 3.5 3.5 0 0 1 1.8 3.2 3.5 3.5 0 0 1-1.8 3.1 4 4 0 0 1-2 .5Zm0-1.4c.5 0 .9 0 1.2-.2l.8-.8.3-1.2-.3-1.2a2 2 0 0 0-.8-.8l-1.1-.2a2.2 2.2 0 0 0-2 1l-.2 1.2.3 1.2a2.1 2.1 0 0 0 1.9 1ZM196.6 42v7H195v-2.9h-3.2V49h-1.6v-7h1.6v2.8h3.2V42h1.6ZM203 47.5h-3.2l-.6 1.5h-1.6l3-7h1.7l3.1 7h-1.7l-.6-1.5Zm-.4-1.2-1.1-2.7-1.1 2.7h2.2ZM211.3 43.3h-2.2V49h-1.6v-5.7h-2.2V42h6v1.3Z" fill="#fff"/></g></symbol><symbol id="logo" viewBox="0 0 215 53"><g fill="none"><path fill-rule="evenodd" clip-rule="evenodd" d="M13.7 6.4c-1 .2-1.2.7-2.2 1.3C8.1 10 8.3 10 5.3 13c-8.9 9-5.8 24.8 3.3 32 2.5 2 5.2 3.4 8.1 4.8 5 2.5 7.6 3.8 13.8 2.5 2.9-.5 3.3-.9 5.5-2 .8-.4 5.4-2 2.9-3.6-1.2-.7-4.4 1.4-5.4 2-2.4 1.2-3.5.1-6.4-.1v-1c1.2 0 4.4.2 5.2-.2 1.4-.7 1.2-2.5-1-2.7l-10.2-.4c-3.3.2-3.4 1.3-7.8-2-10.3-7.5-11-19-4-29.6L12.5 8c.8-.9.8-.4 1.1-1.6Z" fill="#659803"/><path fill-rule="evenodd" clip-rule="evenodd" d="M9.8 4.6c.8 3 1.7 1.8 6.3-.5 2.1-1 3.7 0 6.1.1v1c-2 0-6-.6-6 1.5 0 2 2.6 1.3 4.5 1.5l6.8.3c4 0 4-1 7.1 1 13.8 8.7 12.2 23.2 2.7 34.9l-1.7 2.2c1.3-.4 3.8-2.4 4.8-3.3 3-2.5 2-1.8 4.1-4 8-8.4 5.7-23.5-3.3-31C37.7 5.2 28.6 0 22.6 0c-2.6 0-5 .7-7 1.5-1.7.7-4.6 1.8-5.8 3Z" fill="#FE9603"/><path fill-rule="evenodd" clip-rule="evenodd" d="M20 23.6c2.8.3 2.6 2 2.7 2.4 2.4 12.3-3.8 12-2.7 6.2.5-2.2-1.2-3.2 0-8.6Zm3.3-1c-2.4-1.2-1.2-1.5-1.1-3.9 6.6-.1.2-7.8-1.5-3-.7 2.1.8.5-.8 2-1.4 1.4-2.6 2.3-3.6 3.9-3.4 4.9-2.8 5.4-4 10.5h1.8l-.6 4c.1 1.3-.1 1 3.8 1-.4-1-.5-.8-1.8-1.5 0-.7.3-1.6.5-2.3.5-1.1.2-1 1.6-1.2l1 3.6c.2.5-.1.9 1.3 1.2l6.5.1c-.4-1-.6-.3-1.4-1.4.5-1 .7-2.2.7-3.8 1.6 1.1 1.2 3.3 2.1 5.2h3.6c-.4-1.4-.1-1-1.8-1-1-4-3.6-12.2.4-14.8 1.3.3.7.2 1.5 1.2L33 24c3 2.8 1.4 2.2 3.4 2.2-.4.9-1.8 9.3-1.8 11 1.4-1 1.8-7 2.1-8.9.4-2.3.7-1.6 1.1-2.8-1.4-.8-2.6-1.7-3.8-2.9-2-2-1.4-2.2-2.5-4.5 4.7-1.1 2.2-4.6.3-4.6-1.5 0-1.6 1-2.2 2-1.3 2.4-4.8 1-6.2 7.2ZM52.9 4.6c0 2 2.5.4 2.5 2.5v11.2c0 1.9-.9 2-2.5 2.2 0 2.7-.5 2 7.8 2 1.2 0 1-.8 1-2-4.3-1-3.2-.2-3.2-14.1 4 0 5.7-.5 5.7 3.8 0 3-3.2 2.9-5 2.9v2.4c11.1 0 8.9-8.3 6.9-10.3-2.4-2.4-7.7-1.7-12.1-1.7-.9 0-1.1.3-1.1 1Z" fill="#FEFEFE"/><path d="M78.6 3.2c1.3 0 2.4.3 3.4.7 1 .4 2 1 2.6 1.9.8.8 1.4 1.8 1.8 3a12 12 0 0 1-.1 8c-.4 1-1 2-1.8 3a8 8 0 0 1-6 2.6c-1.2 0-2.3-.2-3.3-.7-1-.4-2-1-2.7-1.8a8.9 8.9 0 0 1-1.7-3 12.3 12.3 0 0 1 0-8c.5-1.1 1.1-2.1 1.9-3a8 8 0 0 1 6-2.7ZM78.5 6c-.6 0-1.2 0-1.8.3l-1.6.8a9.2 9.2 0 0 0-1.5 5.7c0 1.2.2 2.2.4 3 .3 1 .7 1.6 1.2 2.2a4.5 4.5 0 0 0 3.5 1.7l1.8-.3c.6-.2 1.1-.5 1.6-.9.4-.7.8-1.5 1-2.4a12.4 12.4 0 0 0 0-6.3c-.3-.9-.7-1.6-1.1-2.2-.5-.5-1-1-1.7-1.2-.6-.3-1.2-.4-1.8-.4ZM94.7 3.6h11.6v1.6L104 6.4l-.2.5v12.6l2.6-.2.3.3-.4 6.7H104l-.4-4-.3-.3H91.9l-.3.4-.3 4H89l-.6-5.7v-1.3h.8c.3 0 .6 0 .8-.2l.7-.5c.7-.8 1.3-1.9 1.6-3.3.4-1.4.6-3.2.7-5.2l.1-3.8-.3-.4-2.7-.6.2-2 4.5.2Zm1.5 2.5-.3.3-.1 3.6c-.2 4.4-1 7.5-2.2 9.4l6.7.2.3-.3v-13L96.2 6ZM117 3.6v1.6l-2.2 1.1-.2.5V10l-.2 5h.3l7.3-8.3v-.6l-.3-.4-2.7-.3.2-1.9h8.6v1.6l-2.2 1.2-.3.4v12.5l.3.4 2.3.5-.2 1.8h-8.2v-1.5l2.2-1.2.3-.5v-3.7l.1-4.6h-.2l-7.3 8.3v.6l.3.4 2.6.3-.1 1.9h-8.7v-1.5l2.2-1.3.3-.4V6.3l-.3-.4-2.1-.4.1-1.9h8.1ZM138.5 3.6v1.6l-2.2 1.1-.3.5v4.7l7.4-.2v-5l-.3-.5-2.6-.3.2-1.9h8.4v1.6L147 6.4l-.3.4v12.5l.3.4 2.2.5-.1 1.8h-8.2v-1.5l2.2-1.3.3-.4V14L136 14v5.5l.3.4 2.6.3-.1 1.9h-8.6v-1.5l2.2-1.3.3-.4V6.3l-.3-.4-2.2-.4.2-1.9h8.1ZM160 3.6v1.6l-2.3 1.1-.3.5v4.7l7.4-.2v-5l-.3-.5-2.6-.3.2-1.9h8.4v1.6l-2.1 1.2-.3.4v12.5l.3.4 2.2.5-.1 1.8h-8.2v-1.5l2.2-1.3.3-.4V14l-7.4-.1v5.5l.3.4 2.6.3-.1 1.9h-8.6v-1.5l2.2-1.3.3-.4V6.3l-.3-.4-2.2-.4.2-1.9h8.1ZM181.4 3.6l6.1-.2.3.4-.8 6-2.3-.2-.1-3.6h-2.3l-3.2.2-.3.4v4.8h2l2.4-.3.3.3-.3 2.5-4.4-.2v5.7l4.6.2h1.4l1-4.7 2.3.2-.5 7-4.2-.1H173v-1.5l2.4-1.3.2-.4V6.3l-.3-.4-2.2-.4.2-1.9h8.2ZM57 29.6h4l5.7-.2.4.4-.8 6.8-2.3-.1-.2-4.3h-3.3v13.1l.3.4 3.1.4-.1 1.9H53.7v-1.5l3.2-1.3.3-.4V32.3l-2.2-.1h-.9l-1 4.4-2.2-.2.4-7 5.8.2ZM77.5 29.6l6.1-.2.3.4-.9 6-2.2-.2-.2-3.6h-2.2l-3.2.2-.3.4v4.8h2l2.4-.3.3.3-.3 2.5-4.4-.2v5.7l4.5.2H81l1-4.7 2.2.2-.4 7-4.2-.1H69v-1.5l2.3-1.3.3-.4V32.3l-.3-.4-2.2-.4.2-1.9h8.2ZM105 29.6v1.6l-2.1 1.2-.3.4v12.5l.3.4 2.3.5-.2 1.8h-8v-1.5l2-1.3.3-.4V32.2l-6.6-.1-.3.3v13l.3.4 2.5.3L95 48h-8.4v-1.5l2.2-1.3.3-.4V32.3l-.3-.4-2.2-.4.2-1.9H105ZM114 29.6h11.4v1.6l-2.3 1.2-.2.5v12.4l.3.4 2.3.5-.1 1.8h-9v-1.6l3-1.2.2-.4V32.2l-4.2-.1-.3.3-.2 3.6c0 2.5-.3 4.6-.7 6.3-.4 1.6-.9 3-1.5 4-.4.6-1 1.1-1.6 1.5-.7.3-1.4.5-2.3.5l-1.3-.1c-.4 0-.8-.2-1.1-.3l.7-3.2 1.4.2c.7 0 1.3-.2 1.9-.6a28.4 28.4 0 0 0 1.8-8.1v-3.8l-.2-.4-2.7-.5.2-2 4.4.1ZM135.7 29.2c1.2 0 2.4.3 3.4.7 1 .4 1.9 1 2.6 1.9.8.8 1.3 1.8 1.7 3a12 12 0 0 1 0 8c-.5 1-1 2-1.8 3a8 8 0 0 1-6 2.6c-1.2 0-2.3-.2-3.4-.7-1-.4-1.9-1-2.6-1.8a8.9 8.9 0 0 1-1.7-3 12.3 12.3 0 0 1 0-8c.5-1.1 1.1-2.1 1.9-3a8 8 0 0 1 5.9-2.7Zm-.2 2.8c-.6 0-1.2 0-1.8.3l-1.5.8a9.2 9.2 0 0 0-1.5 5.7c0 1.2.1 2.2.4 3 .3 1 .7 1.6 1.2 2.2a4.5 4.5 0 0 0 3.5 1.7l1.8-.3c.6-.2 1-.5 1.5-.9.5-.7.9-1.5 1.1-2.4a12.4 12.4 0 0 0 0-6.3c-.3-.9-.7-1.6-1.1-2.2-.5-.5-1-1-1.7-1.2-.6-.3-1.2-.4-1.9-.4ZM153.3 30v7h-1.7v-5.7h-3.1V37h-1.6v-7h6.3ZM158 30c.6 0 1.2.1 1.6.3.5.2.8.5 1 .9.3.4.5.8.5 1.3 0 .6-.2 1-.4 1.4-.3.4-.6.7-1 .9a4 4 0 0 1-1.7.3h-1.4V37H155v-7h3Zm0 3.7c.4 0 .8 0 1-.3.3-.2.4-.5.4-.9s-.1-.7-.4-.9c-.2-.2-.6-.3-1-.3h-1.4v2.4h1.3ZM162.1 30h1.6v4.6l3.4-4.6h1.5v7H167v-4.6l-3.3 4.6H162v-7ZM175.2 33.3l1 .7c.2.3.3.6.3 1 0 .6-.2 1.1-.7 1.5-.5.3-1.1.5-2 .5h-3.5v-7h3.3c.8 0 1.4.2 1.9.5.4.3.7.7.7 1.3 0 .4-.1.7-.3 1l-.7.5Zm-3.3-.4h1.6c.3 0 .6 0 .8-.2l.2-.7c0-.2 0-.4-.3-.6l-.7-.2h-1.6v1.7Zm1.8 2.9c.8 0 1.2-.3 1.2-.9 0-.6-.4-.9-1.2-.9H172v1.8h1.8ZM182.5 35.5h-3.2l-.6 1.5H177l3.1-7h1.6l3.1 7h-1.7l-.6-1.5Zm-.5-1.2-1-2.7-1.2 2.7h2.2ZM190.8 31.3h-2.3V37H187v-5.7h-2.2V30h6v1.3ZM198.2 30v7h-1.6v-2.9h-3.2V37h-1.6v-7h1.6v2.8h3.2V30h1.6ZM200 30h1.6v4.6l3.3-4.6h1.5v7h-1.6v-4.6l-3.3 4.6H200v-7ZM208.2 30h1.6v4.6L213 30h1.5v7H213v-4.6l-3.3 4.6h-1.5v-7Zm3.2-.5c-1.3 0-2-.5-2-1.5h1.2c0 .5.3.7.8.7l.6-.1c.2-.2.2-.3.2-.6h1.1c0 .5-.1.9-.4 1.2-.4.2-.8.3-1.5.3ZM153.3 42v7h-1.7v-5.7h-3.1V49h-1.6v-7h6.3ZM159.7 47.5h-3.2l-.6 1.5h-1.7l3.1-7h1.6l3.1 7h-1.7l-.6-1.5Zm-.5-1.2-1-2.7-1.2 2.7h2.2ZM169.4 42v7h-1.6v-2.9h-3.2V49H163v-7h1.6v2.8h3.2V42h1.6ZM174.5 49.1a4 4 0 0 1-2-.4 3.6 3.6 0 0 1-1.8-3.2c0-.7.1-1.3.5-1.9.3-.5.7-1 1.3-1.3a4 4 0 0 1 2-.4 4 4 0 0 1 1.6.3c.5.2 1 .5 1.2 1l-1 .9c-.5-.6-1-.8-1.8-.8-.4 0-.8 0-1.1.2a2 2 0 0 0-.8.8l-.3 1.2.3 1.2c.2.3.4.6.8.8l1.1.2c.7 0 1.3-.2 1.8-.8l1 1c-.3.4-.7.7-1.2.9-.5.2-1 .3-1.6.3ZM178.4 42h1.6v7h-1.6v-7ZM185 49.1c-.6 0-1.3-.1-1.9-.5-.6-.3-1-.7-1.3-1.2-.4-.6-.5-1.2-.5-1.9a3.5 3.5 0 0 1 1.8-3.2c.6-.3 1.3-.4 2-.4a4 4 0 0 1 2 .4 3.5 3.5 0 0 1 1.8 3.2 3.5 3.5 0 0 1-1.8 3.1 4 4 0 0 1-2 .5Zm0-1.4c.5 0 .9 0 1.2-.2l.8-.8.3-1.2-.3-1.2a2 2 0 0 0-.8-.8l-1.1-.2a2.2 2.2 0 0 0-2 1l-.2 1.2.3 1.2a2.1 2.1 0 0 0 1.9 1ZM196.6 42v7H195v-2.9h-3.2V49h-1.6v-7h1.6v2.8h3.2V42h1.6ZM203 47.5h-3.2l-.6 1.5h-1.6l3-7h1.7l3.1 7h-1.7l-.6-1.5Zm-.4-1.2-1.1-2.7-1.1 2.7h2.2ZM211.3 43.3h-2.2V49h-1.6v-5.7h-2.2V42h6v1.3Z" fill="#fff"/></g></symbol><symbol id="viber-icon" viewBox="0 0 532 532"><circle cx="266" cy="266" r="256" fill="#fff" stroke="#6151a2" stroke-miterlimit="10" stroke-width="20"/><path d="M401 120c-56-45-219-52-276 5-44 43-53 192 0 238 31 28 50 30 50 30l1 42c0 11 14 21 28 5l33-35s112 8 164-35 56-205 0-250Zm-21 230c-45 37-138 29-138 29l-38 43c-21 22-19 15-19 1l1-54s-15-3-38-19c-49-35-34-174-4-206 48-50 189-43 238-4s43 173-2 210Z" fill="#6151a2"/><path d="M197 163a13 13 0 0 1 13 2s5 4 14 16a151 151 0 0 1 13 21 12 12 0 0 1-3 13l-8 8a16 16 0 0 0-4 13 70 70 0 0 0 20 34 82 82 0 0 0 35 19 16 16 0 0 0 13-5l6-6a12 12 0 0 1 12-2 143 143 0 0 1 19 10 178 178 0 0 1 18 14 12 12 0 0 1 3 13 53 53 0 0 1-10 13 52 52 0 0 1-13 10 23 23 0 0 1-14 1s-48-16-83-50c-39-38-56-89-56-89a18 18 0 0 1 2-14s6-9 12-14a53 53 0 0 1 11-7Z" fill="#6151a2"/><path d="M263 159c61 0 87 49 85 89" fill="none" stroke="#6151a2" stroke-linecap="round" stroke-miterlimit="10" stroke-width="10"/><path d="M272 182c38 0 54 31 53 56m-48-33c19 0 27 16 27 28" fill="none" stroke="#6151a2" stroke-linecap="round" stroke-miterlimit="10" stroke-width="10"/></symbol><symbol id="vodafone-logo" viewBox="0 0 311.81 311.81">
    <circle fill="#E60000" stroke="none" cx="155.91" cy="155.91" r="155.91"/>
    <path stroke="none" fill="#ffffff" d="M157.13,242.31c-42.57.14-86.87-36.19-87.06-94.54C69.95,109.18,90.76,72,117.37,50c26-21.49,61.51-35.28,93.76-35.39,4.15,0,8.49.33,11.15,1.23-28.2,5.85-50.64,32.09-50.54,61.86a16.16,16.16,0,0,0,.19,2.52c47.18,11.49,68.6,40,68.73,79.35S209.69,242.13,157.13,242.31Z"/>
</symbol><symbol id="whatsapp-icon" viewBox="0 0 532 532"><circle cx="266" cy="266" r="256" fill="#fff" stroke="#2ab34b" stroke-miterlimit="10" stroke-width="20"/><path d="M126 260a146 146 0 1 1 69 124l-66 19 19-66a145 145 0 0 1-22-77Z" fill="none" stroke="#2ab34b" stroke-miterlimit="10" stroke-width="27.2"/><path d="M245 225a6 6 0 0 1-1 6l-11 14a7 7 0 0 0-1 6s5 14 22 27a142 142 0 0 0 35 21 6 6 0 0 0 5-1l15-17a5 5 0 0 1 6-1l34 17a7 7 0 0 1 4 5s2 18-18 28-58 7-98-29-55-77-41-98c14-22 29-17 29-17a9 9 0 0 1 4 5Z" fill="#2ab34b" stroke="#2ab34b" stroke-miterlimit="10"/></symbol></svg>