<svg xmlns="http://www.w3.org/2000/svg" xmlns:xlink="http://www.w3.org/1999/xlink" xmlns:serif="http://www.serif.com/"><symbol id="all-icons" viewBox="0 0 640 480">
	<g id="Layer_3">
		<path fill="#fff" stroke="#3caa35" stroke-miterlimit="10" stroke-width="12" d="M177 207.8H49.8c-14.7 0-26.7-12-26.7-26.7V79.7C23.1 64.9 35 53 49.8 53H177c14.7 0 26.7 12 26.7 26.7v101.4c0 14.8-11.9 26.7-26.7 26.7z"/>
		<path fill="#fff" stroke="#00aff0" stroke-miterlimit="10" stroke-width="12" d="M384.6 207.8H257.4c-14.7 0-26.7-12-26.7-26.7V79.7c0-14.7 12-26.7 26.7-26.7h127.2c14.7 0 26.7 12 26.7 26.7v101.4c0 14.8-11.9 26.7-26.7 26.7z"/>
		<path fill="#fff" stroke="#D3413B" stroke-miterlimit="10" stroke-width="10" d="M597.6 207.8H470.4c-14.7 0-26.7-12-26.7-26.7V79.7c0-14.7 12-26.7 26.7-26.7h127.2c14.7 0 26.7 12 26.7 26.7v101.4c0 14.8-11.9 26.7-26.7 26.7z"/>
		<path fill="#fff" stroke="#6046be" stroke-miterlimit="10" stroke-width="12" d="M384.6 415.3H257.4c-14.7 0-26.7-12-26.7-26.7V287.2c0-14.7 12-26.7 26.7-26.7h127.2c14.7 0 26.7 12 26.7 26.7v101.4c0 14.8-11.9 26.7-26.7 26.7z"/>
		<path fill="#fff" stroke="#0174FE" stroke-miterlimit="10" stroke-width="12" d="M201.3 287.2v101.4c0 14.7-12 26.7-26.7 26.7H47.4c-14.7 0-26.7-12-26.7-26.7V287.2c0-14.7 12-26.7 26.7-26.7h127.2c14.8 0 26.7 11.9 26.7 26.7z"/>
	</g>
	<g id="Layer_1">
		<g>
			<path fill="#D3413B" d="M513.3 81.9h-15.7c-3.6 0-6.5 1.3-8.6 3.8-2.1 2.3-3.2 4.9-3.2 7.9l.2 1.1c.9 11.4 3.9 22.2 8.8 32.4 4.7 10.1 11.1 19.1 19 26.8 8 8 16.9 14.3 26.8 19 10.2 4.9 21 7.9 32.4 8.9 3.5.3 6.5-.7 9-3 2.5-2.2 3.8-5.1 3.8-8.7v-15.9c0-2.9-1-5.5-3-7.8-1.9-2.1-4.3-3.4-7.3-3.8-3.5-.4-7-1.1-10.3-2.1-4.6-1.3-8.5-.4-11.8 2.9l-6.3 6.4c-12.6-6.9-22.3-16.6-29.2-29.2l6.4-6.4c3.3-3.3 4.3-7.2 2.8-11.7-1-3.5-1.7-7-2-10.4-.3-2.9-1.6-5.4-3.8-7.3-2.3-1.9-5-2.9-8-2.9z"/>
		</g>
		<g>
			<path fill="#00aff0" d="M353.5 98.2c-4.3-4.3-9.3-7.7-15-10.2-5.9-2.5-12-3.7-18.4-3.7-3 0-6 .3-9 .8-2-1.1-4.2-1.9-6.4-2.5-2.2-.6-4.4-.8-6.8-.8-3.7 0-7.3.7-10.8 2.1-3.4 1.4-6.4 3.4-9.1 6.1-2.6 2.6-4.6 5.7-6 9.1-1.4 3.4-2.1 7-2.1 10.7 0 2.4.3 4.8.9 7.1.6 2.3 1.4 4.5 2.6 6.5-.5 2.7-.8 5.4-.8 8.2 0 6.4 1.2 12.5 3.8 18.4 2.4 5.7 5.8 10.7 10.1 15.1 4.4 4.4 9.4 7.8 15.1 10.2 5.9 2.5 12 3.7 18.4 3.7 2.7 0 5.5-.2 8.2-.7 2.1 1.2 4.4 2.1 6.7 2.6 2.3.6 4.7 1 7.1 1 3.8 0 7.3-.7 10.7-2.1 3.4-1.4 6.5-3.4 9.1-6.1 2.6-2.6 4.6-5.7 6.1-9.1 1.4-3.4 2.1-7 2.1-10.7 0-2.4-.3-4.8-1-7.1-.6-2.3-1.5-4.5-2.6-6.6.5-2.9.8-5.7.8-8.6 0-6.5-1.2-12.6-3.7-18.4-2.2-5.7-5.6-10.7-10-15m-19 6.3c2.2 1.2 4 2.7 5.3 4.2 1.4 1.7 2.1 3.5 2.1 5.2 0 1.6-.6 2.9-1.8 3.8-1.2.9-2.6 1.3-4.2 1.3-1.3 0-2.5-.4-3.5-1.3-.4-.3-.8-.8-1.4-1.3-.9-1-1.3-1.5-1.4-1.6-1.3-1.3-2.6-2.3-4-2.9-1.9-.9-4.3-1.3-7-1.3-3 0-5.4.6-7.1 1.9-1.7 1.2-2.5 2.9-2.5 4.9 0 1.7 1 3.2 2.9 4.2 1.3.7 3.3 1.3 6.2 2l11.1 2.5c5.5 1.2 9.6 3.4 12.1 6.7 2 2.6 3.1 5.9 3.1 9.7 0 5.4-2 9.7-6 12.9-4.3 3.5-10.2 5.2-18 5.2-7.7 0-13.9-1.6-18.5-4.9-1.9-1.4-3.4-2.9-4.4-4.7-1-1.6-1.4-3.2-1.4-4.9 0-1.6.5-2.9 1.6-3.9 1-1 2.4-1.5 4-1.5s2.9.5 4.1 1.6c.4.4.9.9 1.5 1.6.3.4.8 1.1 1.5 1.9 1.3 1.6 2.7 2.8 4.1 3.6 2 1.1 4.6 1.6 7.6 1.6 3.3 0 5.9-.8 7.9-2.3 1.9-1.5 2.8-3.2 2.8-5.2 0-1.3-.4-2.5-1.2-3.4-.9-1.2-2.4-2-4.5-2.5l-14.9-3.8c-5.5-1.4-9.4-3.6-11.7-6.7-1.7-2.3-2.6-5.3-2.6-9 0-5.9 2.5-10.4 7.4-13.5 4.2-2.7 9.4-4 15.8-4 2.6 0 5.2.3 7.9 1 2.5.8 4.9 1.7 7.1 2.9z"/>
		</g>
		<g>
			<path fill="#6046be" d="M348 289.3h-.1c-16.2-3.1-32.5-3.1-48.6 0h-.1c-5 1.1-9.8 3.9-14.5 8.4-4.7 4.5-7.6 9.1-8.8 14v.1c-3 13.7-3 27.3 0 41v.1c1.1 4.7 3.9 9.2 8.2 13.5 4.3 4.3 8.9 7.2 13.8 8.6v10.9c0 2 .9 3.3 2.8 4 1.8.7 3.4.4 4.8-1l11.1-11.5c2.4.1 4.8.2 7.2.2 8.2 0 16.3-.8 24.3-2.3h.1c5-1.1 9.8-3.9 14.5-8.3 4.7-4.5 7.6-9.2 8.8-14.1v-.1c3-13.7 3-27.3 0-41v-.1c-1.2-4.9-4.1-9.5-8.8-14-4.9-4.5-9.7-7.3-14.7-8.4m-1.9 8.7c3.3.7 6.7 2.7 10.1 6 3.4 3.3 5.5 6.5 6.3 9.7 2.7 12.4 2.7 24.7 0 37-.8 3.2-2.9 6.4-6.3 9.7-3.4 3.3-6.8 5.3-10.1 6-8.6 1.6-17.2 2.3-25.9 2.1-.2 0-.3.1-.5.2l-16.6 17.1c-.3.3-.7.4-1.1.2-.4-.2-.6-.5-.6-1v-18c0-.1-.1-.3-.2-.4s-.2-.2-.3-.2h-.1c-3.3-.7-6.6-2.7-10-6-3.4-3.3-5.5-6.5-6.4-9.7-2.7-12.3-2.7-24.7 0-37 .8-3.2 2.9-6.4 6.4-9.7 3.4-3.3 6.8-5.3 10-6 15.2-2.8 30.3-2.8 45.3 0m-18.2 47.3c-.6.1-1.2 0-1.8-.2-.3-.1-.9-.3-1.6-.6-6.1-2.6-10.5-7.4-13.1-14.5-.4-.9-.3-1.8.2-2.6.2-.3.5-.7 1-1.1.7-.6 1.1-.9 1.4-1 1-.6 1.5-1.5 1.8-2.6.2-1 0-2-.5-3-1.6-2.8-3.7-5.7-6.3-8.8-.5-.7-1.1-1.1-1.8-1.2-.7-.2-1.5-.1-2.2.2-2.1 1-3.8 2.3-5 3.8-2 2.4-2.7 4.6-1.9 6.4.9 2.3 1.5 3.5 1.6 3.8.6 1.4 1.2 2.6 1.7 3.7 2.8 5.7 5.9 10.5 9.4 14.4 3.2 3.6 7 6.8 11.4 9.6 3.8 2.4 8.2 4.7 13.2 6.8.3.2.8.3 1.3.5l1.5.4 1.3-.4c.5-.2 1-.3 1.3-.5 2.6-1.4 4.5-3.5 6-6.5.4-.8.5-1.5.2-2.2-.2-.7-.6-1.4-1.2-1.9-.8-.7-2.2-1.7-4.2-3.1-1.7-1.2-3.2-2.3-4.4-3.1-.8-.5-1.6-.7-2.4-.7-.8 0-1.6.3-2.3.9-.1.1-.8.8-1.9 2.2-1.2.7-2 1.2-2.7 1.3m-2.3-35.5c.8.1 1.5.1 2 .2 4.5.8 8.4 2.9 11.6 6.2 3.2 3.4 5.2 7.3 5.8 11.8.1.9.2 2.6.4 5.2 0 .5.2.9.4 1.2.2.3.6.5 1 .5s.8-.2 1-.5c.3-.3.4-.7.3-1.2-.1-1.5-.2-2.5-.2-3.1-.1-1.2-.2-2.2-.4-3-1.1-5.9-3.9-10.8-8.4-14.5-4.3-3.6-9.4-5.5-15.2-5.8h-1.2c-.5 0-.8.2-1.1.5-.3.3-.4.7-.4 1.1.1.5.4.8.9.9.2.1.7.2 1.4.2.5.1 1.2.2 2.1.3m1.4 10c-.4 0-.7.1-1 .3-.3.2-.5.5-.5.9-.1.4 0 .7.2 1 .2.3.5.5 1 .6.2 0 .6.1 1.1.2.5 0 .9.1 1.1.1.6.2 1.1.5 1.6.8 1 .7 1.7 1.8 2 3.1.1.2.2.9.3 2 .1.9.6 1.4 1.5 1.5h.1c.3 0 .5-.1.7-.2.2-.2.3-.5.4-.8v-1.2c-.2-2.7-1.1-4.7-2.7-6.1-1.4-1.3-3.3-2.1-5.8-2.2m-2.1-3.9c.5.1 1.1.2 2 .3 1.8.3 3.3.7 4.6 1.4 1.2.6 2.2 1.3 3.2 2.2 1 .9 1.8 2 2.5 3.1 1.2 2.1 1.9 4.6 1.9 7.3 0 .5 0 .9.1 1.2.2.6.6.9 1.3.8.7 0 1.1-.4 1.2-.9 0-.1.1-.4.2-.9l-.2-2.9c-.8-5.7-3.8-9.8-8.8-12.4-2.2-1.2-4.9-1.9-7.9-2.1-.4 0-.8.1-1 .4-.2.2-.4.5-.4.9s.1.8.3 1.1c.2.3.5.4 1 .5z"/>
		</g>
		<g>
			<path fill="#09ba27" d="M111.8 74.9c-6.5.3-12.6 1.8-18.5 4.5-5.7 2.7-10.7 6.3-15 10.9-4.3 4.6-7.6 9.7-10 15.5-2.4 6-3.7 12.2-3.7 18.8 0 4 .5 7.9 1.4 11.7.9 3.7 2.2 7.2 4 10.6l-5.2 25.6c-.1.7 0 1.3.5 1.8s1.1.7 1.8.5l25-5.9c3.3 1.6 6.7 2.8 10.2 3.7 3.6.9 7.3 1.4 11.1 1.4 6.6.1 13-1.1 19.2-3.6 5.9-2.4 11.2-5.8 15.8-10.2 4.6-4.4 8.3-9.6 10.9-15.4 2.8-6 4.2-12.3 4.4-18.9.2-7.1-1-13.9-3.7-20.4-2.6-6.3-6.3-11.8-11.1-16.6-4.9-4.8-10.5-8.4-16.8-10.9-6.3-2.4-13.2-3.5-20.3-3.1m-25 22c3.6-3.6 7.8-6.4 12.6-8.4s9.7-3 14.8-3c5.2 0 10.1 1 14.9 3 4.7 1.9 8.9 4.7 12.6 8.4 3.7 3.7 6.5 7.9 8.4 12.6 1.9 4.7 2.9 9.7 2.9 14.9 0 5.1-1 10.1-2.9 14.9-2 4.8-4.8 9-8.4 12.6-3.7 3.7-7.9 6.5-12.6 8.5-4.7 2-9.7 2.9-14.9 2.9-6.1 0-11.9-1.4-17.3-4.1l-3.4-1.8-15.3 3.6 3.2-15.7-1.7-3.3c-2.8-5.5-4.2-11.4-4.2-17.7 0-5.2 1-10.2 2.9-14.9 1.9-4.6 4.7-8.8 8.4-12.5m53.8 40.5c-.4-1.1-1.2-1.9-2.3-2.2l-9.6-2.8c-.6-.2-1.3-.2-1.9 0-.6.2-1.2.5-1.7.9l-2.3 2.4c-.5.5-1.1.9-1.8 1-.7.1-1.4.1-2.1-.1-2.3-.9-5.3-3.1-9.1-6.4-3.8-3.3-6.3-6.1-7.5-8.2-.3-.6-.5-1.2-.4-1.9.1-.7.3-1.3.8-1.9l2.1-2.7c.4-.5.6-1.1.7-1.8.1-.7 0-1.3-.2-1.9l-4.1-9.2c-.5-1.1-1.3-1.8-2.5-2.1-1.1-.3-2.2 0-3.1.8-1.6 1.4-3 2.8-4 4.2-1.3 1.8-2.1 3.6-2.2 5.3-.8 8 3.6 16.5 13.1 25.5 5.8 5.4 11.4 9 16.9 10.8 4.4 1.5 8.6 1.8 12.4.9 1.7-.4 3.4-1.4 5-2.9 1.2-1.2 2.4-2.7 3.6-4.6.6-.9.7-2 .2-3.1z"/>
		</g>
		<g>
			<path fill="#0174FE" d="M113.8 286.1c-6.6-.1-13 1-19.1 3.4-5.9 2.4-11.2 5.8-15.8 10.2-4.6 4.4-8.2 9.5-10.8 15.3-2.7 6-4.1 12.3-4.3 19 0 6.9 1.5 13.5 4.4 19.7 2.9 6.2 7 11.6 12.2 16V384c0 .6.2 1.1.7 1.5.4.4.9.6 1.5.6.4 0 .8-.1 1.1-.3l11.6-7.2c6 2.3 12.2 3.4 18.6 3.4 6.6.1 13-1 19.1-3.5 5.9-2.4 11.2-5.8 15.8-10.2 4.6-4.4 8.2-9.5 10.9-15.3 2.7-6 4.1-12.4 4.2-19-.1-6.6-1.6-13-4.2-19-2.6-5.8-6.2-10.9-10.9-15.3-4.6-4.4-9.9-7.8-15.8-10.2-6.2-2.4-12.6-3.5-19.2-3.4m8.6 45.4 21.7-11.9c.5-.2.9-.3 1.4-.2.5.1.9.4 1.2.8.3.4.5.9.4 1.4 0 .5-.2 1-.6 1.4l-25 25c-.4.4-.9.6-1.4.6-.5 0-1-.1-1.5-.5l-13.5-11.6-21.6 11.8c-.4.2-.8.3-1.3.2-.5-.1-.8-.3-1.2-.6-.4-.4-.7-.9-.7-1.5s.2-1.1.7-1.5l25-25c.4-.4.8-.6 1.3-.6.6 0 1.1.1 1.5.4l13.6 11.8z"/>
		</g>
		<path fill="#fff" d="m191.85 135.313-76.272 51.446 7.829 11.606 76.271-51.445-7.828-11.607ZM22.432 1.108C17.145-.188 12.321.688 8.047 3.572 3.773 6.455 1.22 10.552.373 15.987c-.78 5.387.359 10.346 3.514 15.024l45.28 67.13-20.622-6.187-.476-.11c-2.618-.611-5.074-.684-7.486-.245a20.282 20.282 0 0 0-6.9 2.709l-.068.046a17.734 17.734 0 0 0-5.077 5.261c-1.31 2.073-2.182 4.497-2.578 7.033-.647 4.542.228 8.814 2.745 12.843 2.517 4.028 6.425 7.443 11.774 10.318 6.094 3.236 12.903 6.639 20.526 10.356a8770.72 8770.72 0 0 0 19.317 9.012c11.626 5.34 19.605 9.14 23.94 11.403 3.827 1.956 11.487 6.622 22.999 13.875 1.065.686 2.236 1.084 3.483 1 1.297-.01 2.393-.318 3.427-1.015l66.73-45.01c1.102-.744 1.886-1.812 2.35-3.206.464-1.394.434-2.777-.023-4.198a601.512 601.512 0 0 0-9.58-28.329c-6.395-17.51-11.527-29.283-15.584-35.298l-26.196-38.837c-3.156-4.679-7.377-7.666-12.683-8.84-5.237-1.222-10.062-.345-14.336 2.538-2.206 1.488-3.973 3.328-5.233 5.475-3.326-2.403-6.94-3.747-10.812-3.836-4.04-.192-7.706.768-10.946 2.953-2.413 1.628-4.287 3.756-5.723 6.237-3.163-1.864-6.546-2.715-10.11-2.796-3.634-.034-6.942 1.009-9.907 3.008-1.723 1.163-3.246 2.622-4.43 4.286L35.114 9.947c-3.156-4.677-7.377-7.664-12.683-8.84Zm-8.329 22.186c-1.055-1.564-1.424-3.157-1.14-4.974.284-1.817 1.04-3.085 2.424-4.018 1.384-.934 2.98-1.253 4.703-.789 1.722.464 3.13 1.356 4.184 2.92l35.967 53.322c1.054 1.564 2.512 2.531 4.234 2.995 1.792.417 3.389.098 4.842-.882 1.453-.98 2.416-2.388 2.7-4.205.285-1.817-.135-3.484-1.19-5.048L58.32 44.07c-1.055-1.564-1.424-3.156-1.14-4.974.285-1.817 1.11-3.131 2.493-4.065 1.384-.933 2.912-1.205 4.703-.788 1.792.417 3.13 1.356 4.185 2.92l17.53 25.99c1.056 1.565 2.513 2.532 4.236 2.995 1.791.417 3.388.099 4.841-.882 1.453-.98 2.297-2.415 2.7-4.205.285-1.817-.135-3.484-1.19-5.048L84.17 37.47c-1.055-1.564-1.425-3.156-1.14-4.973.215-1.77 1.109-3.132 2.492-4.066 1.384-.933 2.912-1.205 4.704-.788 1.722.463 3.13 1.356 4.184 2.92l17.531 25.99c1.055 1.565 2.513 2.532 4.304 2.949 1.791.417 3.389.098 4.842-.882 1.453-.98 2.296-2.416 2.7-4.205.285-1.817-.135-3.485-1.19-5.049L111.395 32.76c-1.055-1.564-1.424-3.157-1.14-4.974.266-1.696 1.11-3.132 2.493-4.065 1.384-.933 2.912-1.205 4.703-.788 1.722.463 3.18 1.43 4.185 2.92L147.907 64.8c2.813 4.17 6.622 12.653 11.446 25.327 3.507 9.229 7.019 19.212 10.487 29.876l-59.852 40.37c-10.092-6.304-16.878-10.395-20.309-12.198-4.807-2.5-12.983-6.412-24.716-11.718a1605.838 1605.838 0 0 1-19.092-8.901c-7.478-3.624-14.14-6.933-20.015-10.121-5.146-2.705-7.482-5.572-7.046-8.358.265-1.696 1.09-3.01 2.474-3.944 1.384-.933 2.911-1.206 4.533-.89l37.46 11.356c1.294.427 2.596.416 3.904-.033 1.308-.449 2.295-1.223 3.082-2.296.787-1.072 1.046-2.33 1.015-3.718-.03-1.389-.387-2.664-1.19-3.856L14.38 23.107l-.277.187Z" transform="translate(436.631192, 228.207331)" fill-rule="nonzero"/>
	</g>
</symbol><symbol id="angle-right" viewBox="0 0 256 512"><path fill="#fff" d="M224 273 88 409c-9 9-24 9-34 0l-22-23c-10-9-10-24 0-34l96-96-96-96c-10-10-10-25 0-34l22-23c10-9 25-9 34 0l136 136c10 9 10 25 0 34z"/></symbol><symbol id="call-icon" viewBox="0 0 512.2 512.2"><circle cx="256.3" cy="256.3" r="250" fill="#fff"/><path d="M256 512A256 256 0 0 1 75 75a256 256 0 0 1 362 362 254 254 0 0 1-181 75Zm0-493a237 237 0 1 0 1 474 237 237 0 0 0-1-474Z" fill="#bd2026"/><path d="M75 207c-7-23 3-55 20-70l39-34c6-5 12-8 18-8 10 0 19 8 23 23a383 383 0 0 0 25 61l-38 33c-9 8-10 27-2 41a383 383 0 0 0 86 97 39 39 0 0 0 24 9c7 0 13-2 17-6l38-33a383 383 0 0 0 57 32c22 10 27 28 10 43l-39 34a75 75 0 0 1-47 16 59 59 0 0 1-25-5A383 383 0 0 1 75 207Zm195-72 3-34a150 150 0 0 0-81 14l12 32a116 116 0 0 1 53-13 119 119 0 0 1 13 1Zm131 70a150 150 0 0 0-99-98l-10 32a116 116 0 0 1 76 77Zm-91 67v-15h-31a3 3 0 0 1-3-4v-11a3 3 0 0 1 0-2l30-47a3 3 0 0 1 2-2h23a3 3 0 0 1 3 3v42h6a3 3 0 0 1 3 4v13a3 3 0 0 1-3 4h-6v15a3 3 0 0 1-3 3h-18a3 3 0 0 1-3-3Zm0-36v-13l-1 1-7 12Zm97 14a153 153 0 0 0-1-16l-34 3a120 120 0 0 1 1 13 116 116 0 0 1-21 66l30 17a150 150 0 0 0 25-83Zm-192 25h55a3 3 0 0 0 4-3v-15a3 3 0 0 0-4-3h-20v-1c12-10 22-21 22-36 0-16-12-27-30-27-11 0-21 3-28 8a3 3 0 0 0-1 4l5 13a3 3 0 0 0 2 2 3 3 0 0 0 3 0c5-4 10-6 15-6 6 0 9 3 9 8 0 7-8 16-24 30l-10 9a3 3 0 0 0-1 3v11a3 3 0 0 0 3 3Z" fill="#bd2026"/></symbol><symbol id="click-to-call-ru" viewBox="0 0 154 138"><g style="enable-background:new 0 0 154 138">g style=&quot;enable-background:new 0 0 154 138&quot;&gt;<circle cx="76" cy="55" r="50" style="fill:#fff;stroke:#dd2033;stroke-width:10;stroke-miterlimit:10"/><path fill="#dd2033" d="M78.4 68.4s1.8.2 2.7-1L83 65c.9-1.2 3.1-1.9 5.2-.7 1.2.7 3.3 2 4.7 3 1.4 1 4.3 3.5 4.3 3.5 1.4 1.2 1.7 2.9.8 4.7-1 1.7-2.3 3.3-3.9 4.8-1.3 1.1-2.7 1.8-4 1.9h-.6c-.6 0-1.1-.1-1.7-.3v-.1c-2-.6-5.3-2-10.9-5-3.6-2-6.6-4-9.1-6-1.3-1.1-2.7-2.3-4.1-3.6l-.1-.1-.1-.1c-.1 0-.1-.1-.1-.1l-.1-.1c-1.4-1.4-2.6-2.8-3.6-4.1-2-2.5-4-5.5-6-9.1-3.1-5.5-4.5-8.9-5-10.9h-.1c-.2-.6-.3-1.1-.3-1.7v-.6c.2-1.3.8-2.6 1.9-4 1.5-1.6 3.1-2.9 4.8-3.9 1.8-.9 3.5-.6 4.7.8 0 0 2.4 2.9 3.5 4.3 1 1.3 2.3 3.5 3 4.7 1.2 2.1.4 4.3-.7 5.2l-2.4 1.9c-1.2 1-1 2.7-1 2.7s3.3 13 16.3 16.3"/><path fill="#dd2033" d="M98.9 57.5c-.7 0-1.3-.6-1.3-1.3-.1-7.8-2.3-13.7-6.8-18.1S80.7 31.5 74 31.5c-.7 0-1.3-.6-1.3-1.3 0-.7.6-1.3 1.3-1.3 7.4.1 13.6 2.5 18.6 7.4s7.5 11.6 7.6 19.9c0 .7-.6 1.3-1.3 1.3z"/><path fill="#dd2033" d="M92.3 54.9c-.7 0-1.3-.6-1.3-1.3.1-4.3-1.1-7.8-3.8-10.7-2.6-2.9-6.2-4.4-11.1-4.8-.7-.1-1.2-.7-1.2-1.4.1-.7.7-1.2 1.4-1.2 5.4.4 9.7 2.3 12.7 5.6 3.1 3.3 4.6 7.5 4.4 12.5.1.8-.4 1.3-1.1 1.3"/><path fill="#dd2033" d="M85.8 52.7c-.7 0-1.2-.5-1.3-1.2-.2-4.3-2.2-6.4-6.4-6.6-.7 0-1.2-.6-1.2-1.3s.6-1.2 1.3-1.2c5.5.3 8.5 3.4 8.8 9 .1.7-.5 1.3-1.2 1.3"/><path fill="#dd2033" d="M146.3 129.3H7.6c-4.2 0-7.6-3.4-7.6-7.6V102c0-4.2 3.4-7.6 7.6-7.6h138.7c4.2 0 7.6 3.4 7.6 7.6v19.7c.1 4.2-3.4 7.6-7.6 7.6z"/><text transform="translate(10.135 120.302)" style="font-size:23px;font-family:&apos;TrebuchetMS-BoldV, erdana, Geneva, Tahoma, sans-serif&apos;;fill:#fff">&#x41F;&#x41E;&#x417;&#x412;&#x41E;&#x41D;&#x418;&#x422;&#x42C;</text></g></symbol><symbol id="click-to-call" viewBox="0 0 154 138"><g style="enable-background:new 0 0 154 138"><circle cx="76" cy="55" r="50" style="fill:#fff;stroke:#dd2033;stroke-width:10;stroke-miterlimit:10"/><path fill="#dd2033" d="M78.4 68.4s1.8.2 2.7-1L83 65c.9-1.2 3.1-1.9 5.2-.7 1.2.7 3.3 2 4.7 3 1.4 1 4.3 3.5 4.3 3.5 1.4 1.2 1.7 2.9.8 4.7-1 1.7-2.3 3.3-3.9 4.8-1.3 1.1-2.7 1.8-4 1.9h-.6c-.6 0-1.1-.1-1.7-.3v-.1c-2-.6-5.3-2-10.9-5-3.6-2-6.6-4-9.1-6-1.3-1.1-2.7-2.3-4.1-3.6l-.1-.1-.1-.1c-.1 0-.1-.1-.1-.1l-.1-.1c-1.4-1.4-2.6-2.8-3.6-4.1-2-2.5-4-5.5-6-9.1-3.1-5.5-4.5-8.9-5-10.9h-.1c-.2-.6-.3-1.1-.3-1.7v-.6c.2-1.3.8-2.6 1.9-4 1.5-1.6 3.1-2.9 4.8-3.9 1.8-.9 3.5-.6 4.7.8 0 0 2.4 2.9 3.5 4.3 1 1.3 2.3 3.5 3 4.7 1.2 2.1.4 4.3-.7 5.2l-2.4 1.9c-1.2 1-1 2.7-1 2.7s3.3 13 16.3 16.3"/><path fill="#dd2033" d="M98.9 57.5c-.7 0-1.3-.6-1.3-1.3-.1-7.8-2.3-13.7-6.8-18.1S80.7 31.5 74 31.5c-.7 0-1.3-.6-1.3-1.3 0-.7.6-1.3 1.3-1.3 7.4.1 13.6 2.5 18.6 7.4s7.5 11.6 7.6 19.9c0 .7-.6 1.3-1.3 1.3z"/><path fill="#dd2033" d="M92.3 54.9c-.7 0-1.3-.6-1.3-1.3.1-4.3-1.1-7.8-3.8-10.7-2.6-2.9-6.2-4.4-11.1-4.8-.7-.1-1.2-.7-1.2-1.4.1-.7.7-1.2 1.4-1.2 5.4.4 9.7 2.3 12.7 5.6 3.1 3.3 4.6 7.5 4.4 12.5.1.8-.4 1.3-1.1 1.3"/><path fill="#dd2033" d="M85.8 52.7c-.7 0-1.2-.5-1.3-1.2-.2-4.3-2.2-6.4-6.4-6.6-.7 0-1.2-.6-1.2-1.3s.6-1.2 1.3-1.2c5.5.3 8.5 3.4 8.8 9 .1.7-.5 1.3-1.2 1.3"/><path fill="#dd2033" d="M146.3 129.3H7.6c-4.2 0-7.6-3.4-7.6-7.6V102c0-4.2 3.4-7.6 7.6-7.6h138.7c4.2 0 7.6 3.4 7.6 7.6v19.7c.1 4.2-3.4 7.6-7.6 7.6z"/><text transform="translate(10.135 120.302)" style="font-size:25px;font-family:&apos;TrebuchetMS-BoldV, erdana, Geneva, Tahoma, sans-serif&apos;;fill:#fff">&#x414;&#x417;&#x412;&#x41E;&#x41D;&#x418;&#x422;&#x418;</text></g></symbol><symbol id="click-to-viber-ru" viewBox="0 0 294 138"><g style="enable-background:new 0 0 294 138">&lt;<g style="enable-background:new 0 0 294 138"><path fill="#693786" d="M79.9 113.9c5.4.3 13.4.7 20.9 1 17.7.7 40.1 1.2 60.2.8 28.2.1 61.7-2.7 66.5-3 57.3-2.1 66-21.9 66.2-53.6.1-20.3-3.1-30-7.8-36-5.4-7.5-12.1-14-48.7-18.6C214.7 1.8 192.1.9 170.8.4c-26.8-.7-51.6-.4-71.7.7C68.6 2.8 31.6 6.4 23.4 11 13.1 15.5 8.9 21.6 8.6 22.2 3.4 29.3.2 39.8.4 56.6c.1 5.1.2 10.9 1 17.3 3.2 26.1 22.1 31.9 28.7 33.8 15.8 5 44.4 5.9 49.8 6.2"/><path d="M35.9 100.2C29.6 98.5 12 94.1 9 71.8c-.8-5.4-1-10.3-1.1-14.7-.2-14.4 2.7-23.3 7.6-29.3.3-.5 4.3-5.7 14.1-9.6 7.9-3.9 43.2-7 72.3-8.5 19.2-1 42.9-1.2 68.5-.6 20.4.4 41.9 1.2 63.4 3.4 34.9 3.9 41.3 9.4 46.5 15.9 2.8 4.1 4.4 9.3 5.9 17.8.8 7 .6 14-.3 21.2-2.7 22.1-8.1 33.3-61.2 37.5-4.6.3-9.6.9-14.9 1 0 0-22.1 1.2-48.6 1.6-19.2.3-40.6-.1-57.5-.7-7.1-.3-15.8-.9-15.8-.9s-14.5 19-19.2 24c-4.1 4-7.5 6.7-12.3 4.8-3.8-1.9-3.7-5.7-3.8-9.8-.1-3.5-.7-21.8-.7-21.8l-16-2.9z" style="fill:#fff;stroke:#693786;stroke-width:5;stroke-miterlimit:10"/><path fill="#693786" d="M62.9 72.1s1.8.2 2.7-1l1.9-2.4c.9-1.2 3.1-1.9 5.2-.7 1.2.7 3.3 2 4.7 3 1.4 1 4.3 3.5 4.3 3.5 1.4 1.2 1.7 2.9.8 4.7-1 1.7-2.3 3.3-3.9 4.8-1.3 1.1-2.7 1.8-4 1.9H74c-.6 0-1.1-.1-1.7-.3v-.1c-2-.6-5.3-2-10.9-5-3.6-2-6.6-4-9.1-6-1.3-1.1-2.7-2.3-4.1-3.6l-.1-.1-.1-.1c-.1 0-.1-.1-.1-.1l-.1-.1c-1.4-1.4-2.6-2.8-3.6-4.1-2-2.5-4-5.5-6-9.1-3.1-5.5-4.5-8.9-5-10.9h-.1c-.2-.6-.3-1.1-.3-1.7v-.6c.2-1.3.8-2.6 1.9-4 1.5-1.6 3.1-2.9 4.8-3.9 1.8-.9 3.5-.6 4.7.8 0 0 2.4 2.9 3.5 4.3 1 1.3 2.3 3.5 3 4.7 1.2 2.1.4 4.3-.7 5.2l-2.4 1.9c-1.2 1-1 2.7-1 2.7s3.3 13 16.3 16.3"/><path fill="#693786" d="M83.4 61.2c-.7 0-1.3-.6-1.3-1.3-.1-7.8-2.3-13.7-6.8-18.1s-10.1-6.6-16.8-6.6c-.7 0-1.3-.6-1.3-1.3s.6-1.3 1.3-1.3c7.4.1 13.6 2.5 18.6 7.4s7.5 11.6 7.6 19.9c0 .7-.6 1.3-1.3 1.3z"/><path fill="#693786" d="M76.7 58.6c-.7 0-1.3-.6-1.3-1.3.1-4.3-1.1-7.8-3.8-10.7-2.6-2.9-6.2-4.4-11.1-4.8-.7-.1-1.2-.7-1.2-1.4.1-.7.7-1.2 1.4-1.2 5.4.4 9.7 2.3 12.7 5.6 3.1 3.3 4.6 7.5 4.4 12.5.2.8-.4 1.3-1.1 1.3"/><path fill="#693786" d="M70.2 56.4c-.7 0-1.2-.5-1.3-1.2-.2-4.3-2.2-6.4-6.4-6.6-.7 0-1.2-.6-1.2-1.3s.6-1.2 1.3-1.2c5.5.3 8.5 3.4 8.8 9 .1.7-.4 1.3-1.2 1.3.1 0 .1 0 0 0"/><path fill="#693786" d="M138.7 38.4c0-1.7.6-3.1 1.8-4.3 1.2-1.2 2.6-1.8 4.3-1.8 1.7 0 3.1.6 4.3 1.8s1.8 2.6 1.8 4.3-.6 3.1-1.8 4.3c-1.2 1.2-2.6 1.8-4.3 1.8-1.7 0-3.2-.6-4.4-1.8-1.1-1.2-1.7-2.6-1.7-4.3"/><path fill="#693786" d="M237 77.5V54.1c0-2.9.5-5 1.4-6.4 1-1.4 2.4-2.1 4.4-2.1 1.2 0 2.2.3 3.1.9.9.6 1.7 1.5 2.4 2.8 1.2-1.3 2.5-2.3 3.8-2.9 1.3-.7 2.7-1 4.1-1 1.6 0 3 .6 4.2 1.7s1.7 2.5 1.7 4c0 2.3-2.1 4.3-6.4 5.8-1.5.6-2.7 1-3.5 1.4-1.5.7-2.4 1.5-2.9 2.3-.5.9-.7 2.4-.7 4.6v12.1c0 2.9-.5 5-1.4 6.4-1 1.4-2.4 2.1-4.4 2.1s-3.4-.7-4.4-2.1c-.9-1.3-1.4-3.4-1.4-6.2"/><path fill="#693786" d="M206.6 68.9c.3 2.2 1.8 3.9 3.4 5.1 1.5 1.2 3.6 1.8 6.1 1.8 2.2 0 4.6-.6 7.3-1.9 2.7-1.3 4.3-1.9 5-1.9 1.4 0 2.5.4 3.3 1.3.9.8 1.3 1.9 1.3 3.2 0 2.5-1.7 4.7-5.2 6.7s-7.6 3-12.3 3c-5.7 0-10.5-2-14.4-5.9-3.8-3.9-5.8-8.8-5.8-14.7 0-5.9 1.9-10.8 5.6-14.8 3.7-3.9 8.4-5.9 13.9-5.9 5.4 0 9.9 1.9 13.5 5.6 3.6 3.7 5.4 8.2 5.4 13.6 0 1.7-.4 3-1.2 3.7-.8.7-2.3 1-4.6 1h-21.3v.1zm-.5-6.8h17.1c-.2-2.2-1-4.4-2.6-5.8-1.6-1.4-3.5-2.2-5.7-2.2s-4.2.7-5.8 2.1c-1.5 1.4-2.5 3.6-3 5.9"/><path fill="#693786" d="M166.5 48.4c1.3-1.1 2.7-1.9 4.2-2.5s3.2-.8 5-.8c5 0 9.2 2 12.7 6 3.4 4 5.2 8.9 5.2 14.9 0 5.6-1.8 10.4-5.3 14.4s-7.7 6-12.6 6c-1.9 0-3.7-.3-5.3-1-1.6-.7-3-1.7-4.1-3-.7 1.2-1.5 2.2-2.5 2.8s-2 .9-3.1.9c-2 0-3.4-.7-4.4-2.1-.9-1.4-1.4-3.5-1.4-6.4V40.8c0-2.9.5-5 1.4-6.4s2.4-2.1 4.4-2.1 3.4.7 4.4 2.1c1 1.4 1.4 3.5 1.4 6.4v7.6zm-.8 17.4c0 3.2.8 5.7 2.3 7.7 1.6 1.9 3.6 2.9 6 2.9s4.4-1 6-2.9c1.6-2 2.4-4.5 2.4-7.6 0-3.2-.8-5.8-2.3-7.7-1.6-2-3.6-3-6-3-2.5 0-4.5 1-6 3-1.7 1.8-2.4 4.3-2.4 7.6"/><path fill="#693786" d="M150 78c0 2.7-.4 4.7-1.3 6s-2.2 1.9-4.1 1.9-3.2-.7-4.1-2-1.4-3.3-1.4-6V56.1c0-2.7.5-4.7 1.3-6 .9-1.3 2.3-1.9 4.2-1.9 1.8 0 3.2.7 4.1 1.9.9 1.3 1.3 3.3 1.3 6V78z"/><path fill="#693786" d="m107.9 81.5-16-39.8c-.2-.5-.4-1-.5-1.6s-.2-1.2-.2-1.8c0-1.7.6-3.1 1.8-4.2 1.2-1.1 2.7-1.7 4.4-1.7 1.3 0 2.4.4 3.2 1.2.8.8 1.6 2.1 2.3 3.9l10.8 29.3 10.5-28.9c.7-2.1 1.5-3.5 2.4-4.3s2.1-1.2 3.5-1.2c1.8 0 3.2.5 4.2 1.5s1.5 2.3 1.5 4c0 .7-.1 1.4-.2 2.1-.1.7-.3 1.4-.6 2.1l-15.5 39.1c-.7 1.8-1.5 3-2.4 3.8s-2.1 1.1-3.6 1.1c-1.4 0-2.5-.3-3.4-1-.8-.9-1.5-2-2.2-3.6"/><path fill="#693786" d="M245.8 129H103.1c-4.2 0-7.6-3.4-7.6-7.6v-19.7c0-4.2 3.4-7.6 7.6-7.6h142.7c4.2 0 7.6 3.4 7.6 7.6v19.7c.1 4.2-3.4 7.6-7.6 7.6z"/><text transform="translate(109.556 121.979)" style="font-size:25px;font-family:&apos;TrebuchetMS-BoldV, erdana, Geneva, Tahoma, sans-serif&apos;;fill:#fff">&#x41D;&#x410;&#x41F;&#x418;&#x421;&#x410;&#x422;&#x42C;</text></g></g></symbol><symbol id="click-to-viber" viewBox="0 0 294 138"><g style="enable-background:new 0 0 294 138"><path fill="#693786" d="M79.9 113.9c5.4.3 13.4.7 20.9 1 17.7.7 40.1 1.2 60.2.8 28.2.1 61.7-2.7 66.5-3 57.3-2.1 66-21.9 66.2-53.6.1-20.3-3.1-30-7.8-36-5.4-7.5-12.1-14-48.7-18.6C214.7 1.8 192.1.9 170.8.4c-26.8-.7-51.6-.4-71.7.7C68.6 2.8 31.6 6.4 23.4 11 13.1 15.5 8.9 21.6 8.6 22.2 3.4 29.3.2 39.8.4 56.6c.1 5.1.2 10.9 1 17.3 3.2 26.1 22.1 31.9 28.7 33.8 15.8 5 44.4 5.9 49.8 6.2"/><path d="M35.9 100.2C29.6 98.5 12 94.1 9 71.8c-.8-5.4-1-10.3-1.1-14.7-.2-14.4 2.7-23.3 7.6-29.3.3-.5 4.3-5.7 14.1-9.6 7.9-3.9 43.2-7 72.3-8.5 19.2-1 42.9-1.2 68.5-.6 20.4.4 41.9 1.2 63.4 3.4 34.9 3.9 41.3 9.4 46.5 15.9 2.8 4.1 4.4 9.3 5.9 17.8.8 7 .6 14-.3 21.2-2.7 22.1-8.1 33.3-61.2 37.5-4.6.3-9.6.9-14.9 1 0 0-22.1 1.2-48.6 1.6-19.2.3-40.6-.1-57.5-.7-7.1-.3-15.8-.9-15.8-.9s-14.5 19-19.2 24c-4.1 4-7.5 6.7-12.3 4.8-3.8-1.9-3.7-5.7-3.8-9.8-.1-3.5-.7-21.8-.7-21.8l-16-2.9z" style="fill:#fff;stroke:#693786;stroke-width:5;stroke-miterlimit:10"/><path fill="#693786" d="M62.9 72.1s1.8.2 2.7-1l1.9-2.4c.9-1.2 3.1-1.9 5.2-.7 1.2.7 3.3 2 4.7 3 1.4 1 4.3 3.5 4.3 3.5 1.4 1.2 1.7 2.9.8 4.7-1 1.7-2.3 3.3-3.9 4.8-1.3 1.1-2.7 1.8-4 1.9H74c-.6 0-1.1-.1-1.7-.3v-.1c-2-.6-5.3-2-10.9-5-3.6-2-6.6-4-9.1-6-1.3-1.1-2.7-2.3-4.1-3.6l-.1-.1-.1-.1c-.1 0-.1-.1-.1-.1l-.1-.1c-1.4-1.4-2.6-2.8-3.6-4.1-2-2.5-4-5.5-6-9.1-3.1-5.5-4.5-8.9-5-10.9h-.1c-.2-.6-.3-1.1-.3-1.7v-.6c.2-1.3.8-2.6 1.9-4 1.5-1.6 3.1-2.9 4.8-3.9 1.8-.9 3.5-.6 4.7.8 0 0 2.4 2.9 3.5 4.3 1 1.3 2.3 3.5 3 4.7 1.2 2.1.4 4.3-.7 5.2l-2.4 1.9c-1.2 1-1 2.7-1 2.7s3.3 13 16.3 16.3"/><path fill="#693786" d="M83.4 61.2c-.7 0-1.3-.6-1.3-1.3-.1-7.8-2.3-13.7-6.8-18.1s-10.1-6.6-16.8-6.6c-.7 0-1.3-.6-1.3-1.3s.6-1.3 1.3-1.3c7.4.1 13.6 2.5 18.6 7.4s7.5 11.6 7.6 19.9c0 .7-.6 1.3-1.3 1.3z"/><path fill="#693786" d="M76.7 58.6c-.7 0-1.3-.6-1.3-1.3.1-4.3-1.1-7.8-3.8-10.7-2.6-2.9-6.2-4.4-11.1-4.8-.7-.1-1.2-.7-1.2-1.4.1-.7.7-1.2 1.4-1.2 5.4.4 9.7 2.3 12.7 5.6 3.1 3.3 4.6 7.5 4.4 12.5.2.8-.4 1.3-1.1 1.3"/><path fill="#693786" d="M70.2 56.4c-.7 0-1.2-.5-1.3-1.2-.2-4.3-2.2-6.4-6.4-6.6-.7 0-1.2-.6-1.2-1.3s.6-1.2 1.3-1.2c5.5.3 8.5 3.4 8.8 9 .1.7-.4 1.3-1.2 1.3.1 0 .1 0 0 0"/><path fill="#693786" d="M138.7 38.4c0-1.7.6-3.1 1.8-4.3 1.2-1.2 2.6-1.8 4.3-1.8 1.7 0 3.1.6 4.3 1.8s1.8 2.6 1.8 4.3-.6 3.1-1.8 4.3c-1.2 1.2-2.6 1.8-4.3 1.8-1.7 0-3.2-.6-4.4-1.8-1.1-1.2-1.7-2.6-1.7-4.3"/><path fill="#693786" d="M237 77.5V54.1c0-2.9.5-5 1.4-6.4 1-1.4 2.4-2.1 4.4-2.1 1.2 0 2.2.3 3.1.9.9.6 1.7 1.5 2.4 2.8 1.2-1.3 2.5-2.3 3.8-2.9 1.3-.7 2.7-1 4.1-1 1.6 0 3 .6 4.2 1.7s1.7 2.5 1.7 4c0 2.3-2.1 4.3-6.4 5.8-1.5.6-2.7 1-3.5 1.4-1.5.7-2.4 1.5-2.9 2.3-.5.9-.7 2.4-.7 4.6v12.1c0 2.9-.5 5-1.4 6.4-1 1.4-2.4 2.1-4.4 2.1s-3.4-.7-4.4-2.1c-.9-1.3-1.4-3.4-1.4-6.2"/><path fill="#693786" d="M206.6 68.9c.3 2.2 1.8 3.9 3.4 5.1 1.5 1.2 3.6 1.8 6.1 1.8 2.2 0 4.6-.6 7.3-1.9 2.7-1.3 4.3-1.9 5-1.9 1.4 0 2.5.4 3.3 1.3.9.8 1.3 1.9 1.3 3.2 0 2.5-1.7 4.7-5.2 6.7s-7.6 3-12.3 3c-5.7 0-10.5-2-14.4-5.9-3.8-3.9-5.8-8.8-5.8-14.7 0-5.9 1.9-10.8 5.6-14.8 3.7-3.9 8.4-5.9 13.9-5.9 5.4 0 9.9 1.9 13.5 5.6 3.6 3.7 5.4 8.2 5.4 13.6 0 1.7-.4 3-1.2 3.7-.8.7-2.3 1-4.6 1h-21.3v.1zm-.5-6.8h17.1c-.2-2.2-1-4.4-2.6-5.8-1.6-1.4-3.5-2.2-5.7-2.2s-4.2.7-5.8 2.1c-1.5 1.4-2.5 3.6-3 5.9"/><path fill="#693786" d="M166.5 48.4c1.3-1.1 2.7-1.9 4.2-2.5s3.2-.8 5-.8c5 0 9.2 2 12.7 6 3.4 4 5.2 8.9 5.2 14.9 0 5.6-1.8 10.4-5.3 14.4s-7.7 6-12.6 6c-1.9 0-3.7-.3-5.3-1-1.6-.7-3-1.7-4.1-3-.7 1.2-1.5 2.2-2.5 2.8s-2 .9-3.1.9c-2 0-3.4-.7-4.4-2.1-.9-1.4-1.4-3.5-1.4-6.4V40.8c0-2.9.5-5 1.4-6.4s2.4-2.1 4.4-2.1 3.4.7 4.4 2.1c1 1.4 1.4 3.5 1.4 6.4v7.6zm-.8 17.4c0 3.2.8 5.7 2.3 7.7 1.6 1.9 3.6 2.9 6 2.9s4.4-1 6-2.9c1.6-2 2.4-4.5 2.4-7.6 0-3.2-.8-5.8-2.3-7.7-1.6-2-3.6-3-6-3-2.5 0-4.5 1-6 3-1.7 1.8-2.4 4.3-2.4 7.6"/><path fill="#693786" d="M150 78c0 2.7-.4 4.7-1.3 6s-2.2 1.9-4.1 1.9-3.2-.7-4.1-2-1.4-3.3-1.4-6V56.1c0-2.7.5-4.7 1.3-6 .9-1.3 2.3-1.9 4.2-1.9 1.8 0 3.2.7 4.1 1.9.9 1.3 1.3 3.3 1.3 6V78z"/><path fill="#693786" d="m107.9 81.5-16-39.8c-.2-.5-.4-1-.5-1.6s-.2-1.2-.2-1.8c0-1.7.6-3.1 1.8-4.2 1.2-1.1 2.7-1.7 4.4-1.7 1.3 0 2.4.4 3.2 1.2.8.8 1.6 2.1 2.3 3.9l10.8 29.3 10.5-28.9c.7-2.1 1.5-3.5 2.4-4.3s2.1-1.2 3.5-1.2c1.8 0 3.2.5 4.2 1.5s1.5 2.3 1.5 4c0 .7-.1 1.4-.2 2.1-.1.7-.3 1.4-.6 2.1l-15.5 39.1c-.7 1.8-1.5 3-2.4 3.8s-2.1 1.1-3.6 1.1c-1.4 0-2.5-.3-3.4-1-.8-.9-1.5-2-2.2-3.6"/><path fill="#693786" d="M245.8 129H103.1c-4.2 0-7.6-3.4-7.6-7.6v-19.7c0-4.2 3.4-7.6 7.6-7.6h142.7c4.2 0 7.6 3.4 7.6 7.6v19.7c.1 4.2-3.4 7.6-7.6 7.6z"/><text transform="translate(109.556 121.979)" style="font-size:25px;font-family:&apos;TrebuchetMS-BoldV, erdana, Geneva, Tahoma, sans-serif&apos;;fill:#fff">&#x41D;&#x410;&#x41F;&#x418;&#x421;&#x410;&#x422;&#x418;</text></g></symbol><symbol id="fbmess-icon" viewBox="0 0 513.1 513.1"><circle cx="256.6" cy="256.6" r="256.6" fill="#fff"/><path d="M256 0A256 256 0 0 0 75 438 256 256 0 1 0 437 75 254 254 0 0 0 256 0Zm0 493a237 237 0 1 1 1-474 237 237 0 0 1-1 474Z" fill="#34b2dd"/><path d="M256 82c-99 0-179 75-179 167 0 51 25 97 64 128l1 66 62-35a192 192 0 0 0 52 8c99 0 179-75 179-167S355 82 256 82Z" fill="#34b2dd"/><path fill="#fff" d="m236 204-98 103 89-49 46 49 97-103-89 47-45-47z"/></symbol><symbol id="ks-logo" viewBox="0 0 24 24"><g fill="none">
<path fill-rule="evenodd" clip-rule="evenodd" d="M12.0004 0C12.6632 0 13.2004 0.537258 13.2004 1.2V7.97905C13.2004 8.64179 12.6632 9.17905 12.0004 9.17905C11.3377 9.17905 10.8004 8.64179 10.8004 7.97905V1.2C10.8004 0.537258 11.3377 0 12.0004 0ZM23.9411 8.70424C24.1459 9.33454 23.801 10.0115 23.1707 10.2163L16.7234 12.3112C16.0931 12.516 15.4161 12.171 15.2113 11.5407C15.0065 10.9104 15.3515 10.2334 15.9818 10.0286L22.429 7.93379C23.0593 7.72899 23.7363 8.07393 23.9411 8.70424ZM0.0585679 8.70431C0.263366 8.07401 0.940351 7.72907 1.57066 7.93386L8.01791 10.0287C8.64822 10.2335 8.99316 10.9105 8.78836 11.5408C8.58356 12.1711 7.90658 12.516 7.27627 12.3112L0.829015 10.2164C0.198711 10.0116 -0.146231 9.33462 0.0585679 8.70431ZM14.0313 15.3532C14.5675 14.9637 15.3179 15.0825 15.7075 15.6187L19.6921 21.1031C20.0817 21.6392 19.9628 22.3897 19.4266 22.7792C18.8905 23.1688 18.14 23.0499 17.7505 22.5138L13.7659 17.0294C13.3763 16.4932 13.4952 15.7428 14.0313 15.3532ZM9.96949 15.3532C10.5057 15.7428 10.6245 16.4932 10.235 17.0294L6.25035 22.5138C5.8608 23.0499 5.11035 23.1688 4.57419 22.7792C4.03802 22.3897 3.91916 21.6392 4.30871 21.1031L8.29333 15.6187C8.68288 15.0825 9.43332 14.9637 9.96949 15.3532Z" fill="#0087E6"/>
</g></symbol><symbol id="location" viewBox="0 0 384 512"><path fill="#fff" d="M172 502C27 291 0 269 0 192a192 192 0 1 1 384 0c0 77-27 99-172 310a24 24 0 0 1-40 0zm20-230a80 80 0 1 0 0-160 80 80 0 0 0 0 160z"/></symbol><symbol id="locations2desk" viewBox="0 0 4167 2084"><g style="fill-rule:evenodd;clip-rule:evenodd;stroke-linecap:square;stroke-linejoin:round;stroke-miterlimit:1.5;"><g id="des"><path d="M102.116,1762.35l1138.28,-1472.96l2912.95,1473.17l-4051.23,-0.218Z" style="fill:#fff;fill-opacity:0.52;"/><rect x="427.306" y="1350.3" width="2176.84" height="412.454" style="fill:#613c82;"/><g><path d="M746.505,1453.2c-54.994,0 -95.414,41.245 -95.414,95.139c-0,53.894 40.42,95.14 95.414,95.14c54.994,-0 95.414,-41.246 95.414,-95.14c0,-53.894 -40.42,-95.139 -95.414,-95.139Zm0,164.432c-39.32,-0 -67.367,-28.597 -67.367,-69.293c-0,-40.695 28.047,-69.292 67.367,-69.292c39.321,0 67.368,28.597 67.368,69.292c-0,40.696 -28.047,69.293 -67.368,69.293Z" style="fill:#fff;fill-rule:nonzero;"/><path d="M877.115,1639.9l46.47,0c11.274,0 26.947,-1.1 40.146,-9.899c15.398,-10.174 22.822,-27.772 22.822,-44.545c0,-16.773 -6.874,-31.346 -17.323,-40.42c-14.023,-12.374 -32.721,-14.574 -45.92,-14.574l-18.148,0l0,-47.569l63.793,-0l0,-26.397l-91.84,-0l0,183.404Zm28.047,-83.041l17.598,0c29.697,0 36.296,15.674 36.296,28.872c0,27.772 -29.421,27.772 -36.846,27.772l-17.048,0l0,-56.644Z" style="fill:#fff;fill-rule:nonzero;"/><path d="M1122.94,1456.5l-101.189,-0l0,183.404l101.189,0l-0,-26.397l-73.142,0l0,-60.493l70.942,-0l0,-26.397l-70.942,-0l0,-43.72l73.142,-0l-0,-26.397Z" style="fill:#fff;fill-rule:nonzero;"/><path d="M1159.23,1456.5l-0,183.404l28.047,0l-0,-74.517l12.648,0c13.474,0 30.247,-1.924 44.82,-14.298c15.123,-12.924 17.873,-29.422 17.873,-40.145c0,-16.774 -7.424,-34.372 -22.822,-44.545c-13.199,-8.799 -28.872,-9.899 -40.146,-9.899l-40.42,-0Zm28.047,25.847l12.373,-0c31.897,-0 36.021,18.148 36.021,28.322c0,17.048 -11.549,28.871 -35.746,28.871l-12.648,0l-0,-57.193Z" style="fill:#fff;fill-rule:nonzero;"/><rect x="1291.22" y="1456.5" width="28.047" height="183.404" style="fill:#fff;fill-rule:nonzero;"/><path d="M1456.2,1482.89l0,-26.397l-112.187,-0l-0,26.397l42.07,-0l0,157.007l28.047,0l0,-157.007l42.07,-0Z" style="fill:#fff;fill-rule:nonzero;"/><path d="M1480.95,1639.9l49.219,0c11.274,0 26.947,-1.1 40.146,-9.899c15.398,-10.174 22.822,-27.772 22.822,-44.545c-0,-16.773 -6.874,-31.346 -17.323,-40.42c-14.024,-12.374 -32.721,-14.574 -45.92,-14.574l-20.898,0l0,-73.966l-28.046,-0l-0,183.404Zm28.046,-83.041l20.348,0c29.697,0 36.296,15.674 36.296,28.872c0,27.772 -29.422,27.772 -36.846,27.772l-19.798,0l0,-56.644Z" style="fill:#fff;fill-rule:nonzero;"/><path d="M1685.8,1456.5l-0,183.404l42.07,0c18.698,0 33.821,-0.55 48.944,-12.923c17.323,-14.024 18.423,-34.372 18.423,-43.171c0,-18.698 -10.999,-36.296 -31.896,-42.62c13.198,-10.449 15.398,-24.197 15.398,-33.546c0,-23.922 -12.649,-35.746 -21.173,-41.52c-9.898,-6.875 -20.347,-9.624 -43.995,-9.624l-27.771,-0Zm28.046,26.397l9.624,-0c10.999,-0 28.872,2.749 28.872,25.572c0,26.672 -23.372,26.947 -29.972,26.947l-8.524,-0l0,-52.519Zm0,75.616l17.598,0c29.697,0 36.296,14.849 36.296,27.772c0,11.549 -5.774,27.222 -36.846,27.222l-17.048,0l0,-54.994Z" style="fill:#fff;fill-rule:nonzero;"/><path d="M1957.47,1639.9l30.247,0l-86.891,-194.128l-91.289,194.128l30.246,0l20.073,-44.27l78.366,0l19.248,44.27Zm-86.065,-70.667l28.321,-62.143l27.222,62.143l-55.543,0Z" style="fill:#fff;fill-rule:nonzero;"/><path d="M2010.81,1639.9l213.926,0l-0,-183.404l-28.047,-0l0,157.007l-64.893,0l0,-157.007l-28.046,-0l-0,157.007l-64.893,0l-0,-157.007l-28.047,-0l-0,183.404Z" style="fill:#fff;fill-rule:nonzero;"/><path d="M2248.39,1456.5l66.268,128.685l-24.747,54.719l29.146,0l82.766,-183.404l-29.147,-0l-42.07,95.139l-48.12,-95.139l-34.096,-0Z" style="fill:#fff;fill-rule:nonzero;"/></g></g><g id="houses"><rect x="2603.78" y="516.862" width="632.429" height="1228.19" style="fill:none;stroke:#613c82;stroke-width:33.33px;"/><path d="M3001.83,1744.93l-5.244,-588.458l387.357,-289.768l186.142,135.575l-6.672,-146.763l131.231,-2.47l13.094,255.631l58.787,47.095l1.762,590.842l-766.457,-1.684Z" style="fill:none;stroke:#613c82;stroke-width:33.33px;"/><rect x="2705.54" y="682.579" width="192.478" height="192.687" style="fill:none;stroke:#613c82;stroke-width:33.33px;"/><rect x="3337.97" y="1287.51" width="274.969" height="274.969" style="fill:none;stroke:#613c82;stroke-width:33.33px;"/><path d="M3000.66,1742.34l1.428,-586.291l233.03,-174.736l3.506,758.054l-237.964,2.973Z" style="fill:#613c82;"/></g><g id="red"><circle cx="758.308" cy="963.093" r="332.254" style="fill:#dc3731;"/><circle cx="813.652" cy="819.75" r="217.684" style="fill:#dc3731;"/><g><path d="M1316.85,839.658c-27.863,0 -38.129,-17.598 -67.092,-17.598c-24.931,0 -38.496,15.032 -38.496,42.896l28.597,-0c-0,-5.867 1.833,-11.366 11.732,-11.366c17.598,0 29.696,15.032 63.059,15.032c35.93,-0 64.893,-22.731 64.893,-56.094c0,-17.231 -7.699,-32.263 -30.43,-41.429c17.965,-8.799 26.397,-23.83 26.397,-39.229c0,-32.629 -31.163,-53.893 -76.991,-53.893c-40.329,-0 -74.792,21.264 -81.391,58.66l34.463,-0c5.133,-20.898 23.464,-28.964 46.928,-28.964c25.664,0 41.795,10.266 41.795,27.13c0,11.366 -8.066,23.831 -35.563,23.831l-26.763,0l-0,30.063l28.23,0c31.896,0 39.596,11.732 39.596,25.664c-0,14.665 -16.132,25.297 -28.964,25.297Z" style="fill:#dc3731;fill-rule:nonzero;"/><path d="M1520.32,677.977c-25.664,-0 -48.394,12.831 -63.793,33.362l0,-29.696l-32.996,-0l0,245.639l34.83,-0l-0,-89.823c15.031,19.431 37.395,31.163 61.959,31.163c48.761,-0 86.524,-39.596 86.524,-95.323c-0,-55.727 -37.763,-95.322 -86.524,-95.322Zm-5.866,158.382c-32.996,-0 -57.193,-26.397 -57.193,-63.06c-0,-36.662 24.197,-63.059 57.193,-63.059c32.63,-0 56.461,26.397 56.461,63.059c-0,36.663 -23.831,63.06 -56.461,63.06Z" style="fill:#dc3731;fill-rule:nonzero;"/><path d="M1782.1,681.643l-61.593,140.784l-65.626,-140.784l-40.696,-0l89.09,180.013l-5.499,12.832c-4.766,10.999 -11.365,20.531 -26.397,20.531c-10.632,-0 -14.298,-0 -24.564,-0.733l0,32.996c4.766,0.366 15.398,0.733 26.764,0.733c35.929,0 48.761,-23.097 56.093,-42.528l89.09,-203.844l-36.662,-0Z" style="fill:#dc3731;fill-rule:nonzero;"/><path d="M1961.01,681.643l0,80.657l-53.161,0c-21.631,0 -31.163,-9.532 -31.163,-28.23l0,-52.427l-34.829,-0l-0,53.527c-0,32.996 21.631,58.66 60.493,58.66l58.66,0l0,71.126l34.829,-0l0,-183.313l-34.829,-0Z" style="fill:#dc3731;fill-rule:nonzero;"/><path d="M2184.65,681.643l-0,75.158l-95.323,-0l-0,-75.158l-34.829,-0l-0,183.313l34.829,-0l-0,-75.159l95.323,0l-0,75.159l34.829,-0l-0,-183.313l-34.829,-0Z" style="fill:#dc3731;fill-rule:nonzero;"/><path d="M2276.31,608.318l-0,40.328l38.862,0l0,-40.328l-38.862,-0Zm1.833,73.325l0,183.313l34.829,-0l0,-183.313l-34.829,-0Z" style="fill:#dc3731;fill-rule:nonzero;"/><path d="M1416.2,1158.26l-79.925,-183.313l-43.262,0l-79.924,183.313l37.763,-0l63.426,-148.85l63.059,148.85l38.863,-0Z" style="fill:#dc3731;fill-rule:nonzero;"/><path d="M1526.56,1161.92c54.627,0 96.789,-41.429 96.789,-95.323c-0,-53.893 -42.162,-95.322 -96.789,-95.322c-54.994,-0 -97.522,41.429 -97.522,95.322c-0,53.894 42.528,95.323 97.522,95.323Zm-0,-32.263c-34.83,0 -61.593,-27.497 -61.593,-63.06c-0,-35.562 26.763,-63.059 61.593,-63.059c34.463,-0 60.86,27.497 60.86,63.059c-0,35.563 -26.397,63.06 -60.86,63.06Z" style="fill:#dc3731;fill-rule:nonzero;"/><path d="M1829.76,1125.63c-29.697,0 -60.126,-48.394 -94.223,-63.426l96.056,-87.257l-43.628,0l-87.624,81.024l0,-81.024l-34.829,0l-0,183.313l34.829,-0l0,-75.158l3.667,-0c29.696,-0 63.426,75.158 121.353,75.158l9.898,-0l0,-32.63l-5.499,0Z" style="fill:#dc3731;fill-rule:nonzero;"/><path d="M2017.1,1125.26c-5.866,-0 -9.533,-3.667 -9.533,-9.899l0,-70.392c0,-49.128 -35.562,-73.692 -79.557,-73.692c-42.162,-0 -75.158,24.197 -82.124,58.293l37.029,0c6.599,-18.698 26.763,-27.497 43.262,-27.497c27.863,0 44.728,10.266 44.728,26.764c-0,9.166 -2.933,15.398 -38.862,19.431l-20.531,2.2c-43.995,4.766 -67.093,28.597 -67.093,57.56c0,31.897 21.631,53.894 62.326,53.894c27.864,0 53.894,-12.099 69.293,-30.063c1.833,16.865 12.465,26.397 30.43,26.397l17.598,-0l-0,-32.996l-6.966,-0Zm-106.688,6.599c-20.165,-0 -31.53,-9.899 -31.53,-24.197c-0,-13.566 6.966,-26.031 36.662,-29.33l20.531,-2.2c20.532,-2.2 31.897,-6.6 39.596,-12.466l0,16.499c0,27.863 -30.43,51.694 -65.259,51.694Z" style="fill:#dc3731;fill-rule:nonzero;"/><path d="M2230.84,1131.13l0,-156.183l-34.829,0l-0,150.317l-95.323,-0l0,-150.317l-34.829,0l-0,183.313l143.717,-0c19.431,-0 26.764,8.799 26.764,17.598c-0,9.166 -5.5,18.331 -24.198,18.331c-34.096,0 -57.926,-16.498 -93.856,-16.498c-28.23,0 -41.428,14.665 -41.428,41.795l-0,4.766l32.629,0l0,-2.566c0,-6.233 1.1,-11.732 13.565,-11.732c19.432,0 51.695,14.298 89.457,14.298c44.728,0 59.393,-25.663 59.393,-50.227c0,-19.798 -14.298,-38.129 -41.062,-42.895Z" style="fill:#dc3731;fill-rule:nonzero;"/><path d="M2295,901.618l-0,40.329l38.862,-0l0,-40.329l-38.862,0Zm64.893,0l-0,40.329l40.328,-0l0,-40.329l-40.328,0Zm66.359,0l-0,40.329l40.329,-0l-0,-40.329l-40.329,0Zm-129.419,73.325l-0,183.313l34.829,-0l0,-183.313l-34.829,0Zm93.489,0l0,183.313l34.83,-0l-0,-183.313l-34.83,0Z" style="fill:#dc3731;fill-rule:nonzero;"/></g></g><path d="M989.816,1106.67l-199.697,-0l83.408,-98.645c32.08,-37.694 56.941,-67.368 76.189,-96.239c21.654,-32.08 38.496,-68.17 38.496,-112.279c-0,-83.408 -58.546,-161.201 -172.429,-161.201c-67.367,-0 -105.863,30.476 -125.111,52.129c-20.851,23.258 -42.505,64.962 -44.911,117.091l78.595,0c3.208,-50.525 34.486,-97.041 94.635,-97.041c59.348,0 89.021,41.704 89.021,86.616c0,31.277 -12.831,54.535 -28.069,76.991c-17.644,25.664 -45.714,60.951 -64.16,83.407l-185.26,224.558l359.293,0l-0,-75.387Z" style="fill:#fff;fill-rule:nonzero;"/></g></symbol><symbol id="locatios2mob" viewBox="0 0 4167 2084"><g style="fill-rule:evenodd;clip-rule:evenodd;stroke-linecap:square;stroke-linejoin:round;stroke-miterlimit:1.5;"><g id="houses"><rect x="2603.78" y="516.862" width="632.429" height="1228.19" style="fill:none;stroke:#613c82;stroke-width:33.33px;"/><path d="M3001.83,1744.93l-5.244,-588.458l387.357,-289.768l186.142,135.575l-6.672,-146.763l131.231,-2.47l13.094,255.631l58.787,47.095l1.762,590.842l-766.457,-1.684Z" style="fill:none;stroke:#613c82;stroke-width:33.33px;"/><rect x="2705.54" y="682.579" width="192.478" height="192.687" style="fill:none;stroke:#613c82;stroke-width:33.33px;"/><rect x="3337.97" y="1287.51" width="274.969" height="274.969" style="fill:none;stroke:#613c82;stroke-width:33.33px;"/><path d="M3000.66,1742.34l1.428,-586.291l233.03,-174.736l3.506,758.054l-237.964,2.973Z" style="fill:#613c82;"/></g><g id="red"><circle cx="758.308" cy="963.093" r="332.254" style="fill:#dc3731;"/><circle cx="813.652" cy="819.75" r="217.684" style="fill:#dc3731;"/><g><path d="M1316.85,839.658c-27.863,0 -38.129,-17.598 -67.092,-17.598c-24.931,0 -38.496,15.032 -38.496,42.896l28.597,-0c-0,-5.867 1.833,-11.366 11.732,-11.366c17.598,0 29.696,15.032 63.059,15.032c35.93,-0 64.893,-22.731 64.893,-56.094c0,-17.231 -7.699,-32.263 -30.43,-41.429c17.965,-8.799 26.397,-23.83 26.397,-39.229c0,-32.629 -31.163,-53.893 -76.991,-53.893c-40.329,-0 -74.792,21.264 -81.391,58.66l34.463,-0c5.133,-20.898 23.464,-28.964 46.928,-28.964c25.664,0 41.795,10.266 41.795,27.13c0,11.366 -8.066,23.831 -35.563,23.831l-26.763,0l-0,30.063l28.23,0c31.896,0 39.596,11.732 39.596,25.664c-0,14.665 -16.132,25.297 -28.964,25.297Z" style="fill:#dc3731;fill-rule:nonzero;"/><path d="M1520.32,677.977c-25.664,-0 -48.394,12.831 -63.793,33.362l0,-29.696l-32.996,-0l0,245.639l34.83,-0l-0,-89.823c15.031,19.431 37.395,31.163 61.959,31.163c48.761,-0 86.524,-39.596 86.524,-95.323c-0,-55.727 -37.763,-95.322 -86.524,-95.322Zm-5.866,158.382c-32.996,-0 -57.193,-26.397 -57.193,-63.06c-0,-36.662 24.197,-63.059 57.193,-63.059c32.63,-0 56.461,26.397 56.461,63.059c-0,36.663 -23.831,63.06 -56.461,63.06Z" style="fill:#dc3731;fill-rule:nonzero;"/><path d="M1782.1,681.643l-61.593,140.784l-65.626,-140.784l-40.696,-0l89.09,180.013l-5.499,12.832c-4.766,10.999 -11.365,20.531 -26.397,20.531c-10.632,-0 -14.298,-0 -24.564,-0.733l0,32.996c4.766,0.366 15.398,0.733 26.764,0.733c35.929,0 48.761,-23.097 56.093,-42.528l89.09,-203.844l-36.662,-0Z" style="fill:#dc3731;fill-rule:nonzero;"/><path d="M1961.01,681.643l0,80.657l-53.161,0c-21.631,0 -31.163,-9.532 -31.163,-28.23l0,-52.427l-34.829,-0l-0,53.527c-0,32.996 21.631,58.66 60.493,58.66l58.66,0l0,71.126l34.829,-0l0,-183.313l-34.829,-0Z" style="fill:#dc3731;fill-rule:nonzero;"/><path d="M2184.65,681.643l-0,75.158l-95.323,-0l-0,-75.158l-34.829,-0l-0,183.313l34.829,-0l-0,-75.159l95.323,0l-0,75.159l34.829,-0l-0,-183.313l-34.829,-0Z" style="fill:#dc3731;fill-rule:nonzero;"/><path d="M2276.31,608.318l-0,40.328l38.862,0l0,-40.328l-38.862,-0Zm1.833,73.325l0,183.313l34.829,-0l0,-183.313l-34.829,-0Z" style="fill:#dc3731;fill-rule:nonzero;"/><path d="M1416.2,1158.26l-79.925,-183.313l-43.262,0l-79.924,183.313l37.763,-0l63.426,-148.85l63.059,148.85l38.863,-0Z" style="fill:#dc3731;fill-rule:nonzero;"/><path d="M1526.56,1161.92c54.627,0 96.789,-41.429 96.789,-95.323c-0,-53.893 -42.162,-95.322 -96.789,-95.322c-54.994,-0 -97.522,41.429 -97.522,95.322c-0,53.894 42.528,95.323 97.522,95.323Zm-0,-32.263c-34.83,0 -61.593,-27.497 -61.593,-63.06c-0,-35.562 26.763,-63.059 61.593,-63.059c34.463,-0 60.86,27.497 60.86,63.059c-0,35.563 -26.397,63.06 -60.86,63.06Z" style="fill:#dc3731;fill-rule:nonzero;"/><path d="M1829.76,1125.63c-29.697,0 -60.126,-48.394 -94.223,-63.426l96.056,-87.257l-43.628,0l-87.624,81.024l0,-81.024l-34.829,0l-0,183.313l34.829,-0l0,-75.158l3.667,-0c29.696,-0 63.426,75.158 121.353,75.158l9.898,-0l0,-32.63l-5.499,0Z" style="fill:#dc3731;fill-rule:nonzero;"/><path d="M2017.1,1125.26c-5.866,-0 -9.533,-3.667 -9.533,-9.899l0,-70.392c0,-49.128 -35.562,-73.692 -79.557,-73.692c-42.162,-0 -75.158,24.197 -82.124,58.293l37.029,0c6.599,-18.698 26.763,-27.497 43.262,-27.497c27.863,0 44.728,10.266 44.728,26.764c-0,9.166 -2.933,15.398 -38.862,19.431l-20.531,2.2c-43.995,4.766 -67.093,28.597 -67.093,57.56c0,31.897 21.631,53.894 62.326,53.894c27.864,0 53.894,-12.099 69.293,-30.063c1.833,16.865 12.465,26.397 30.43,26.397l17.598,-0l-0,-32.996l-6.966,-0Zm-106.688,6.599c-20.165,-0 -31.53,-9.899 -31.53,-24.197c-0,-13.566 6.966,-26.031 36.662,-29.33l20.531,-2.2c20.532,-2.2 31.897,-6.6 39.596,-12.466l0,16.499c0,27.863 -30.43,51.694 -65.259,51.694Z" style="fill:#dc3731;fill-rule:nonzero;"/><path d="M2230.84,1131.13l0,-156.183l-34.829,0l-0,150.317l-95.323,-0l0,-150.317l-34.829,0l-0,183.313l143.717,-0c19.431,-0 26.764,8.799 26.764,17.598c-0,9.166 -5.5,18.331 -24.198,18.331c-34.096,0 -57.926,-16.498 -93.856,-16.498c-28.23,0 -41.428,14.665 -41.428,41.795l-0,4.766l32.629,0l0,-2.566c0,-6.233 1.1,-11.732 13.565,-11.732c19.432,0 51.695,14.298 89.457,14.298c44.728,0 59.393,-25.663 59.393,-50.227c0,-19.798 -14.298,-38.129 -41.062,-42.895Z" style="fill:#dc3731;fill-rule:nonzero;"/><path d="M2295,901.618l-0,40.329l38.862,-0l0,-40.329l-38.862,0Zm64.893,0l-0,40.329l40.328,-0l0,-40.329l-40.328,0Zm66.359,0l-0,40.329l40.329,-0l-0,-40.329l-40.329,0Zm-129.419,73.325l-0,183.313l34.829,-0l0,-183.313l-34.829,0Zm93.489,0l0,183.313l34.83,-0l-0,-183.313l-34.83,0Z" style="fill:#dc3731;fill-rule:nonzero;"/></g></g><g id="mob"><rect x="0.188" y="1350.3" width="2606.54" height="412.454" style="fill:#613c82;"/><rect x="3777.85" y="1350.3" width="387.178" height="412.454" style="fill:#613c82;"/><g><path d="M612.371,1460.71c-60,-0 -104.1,45 -104.1,103.8c-0,58.8 44.1,103.8 104.1,103.8c60,-0 104.1,-45 104.1,-103.8c-0,-58.8 -44.1,-103.8 -104.1,-103.8Zm-0,179.4c-42.9,-0 -73.5,-31.2 -73.5,-75.6c-0,-44.4 30.6,-75.6 73.5,-75.6c42.9,-0 73.5,31.2 73.5,75.6c-0,44.4 -30.6,75.6 -73.5,75.6Z" style="fill:#fff;fill-rule:nonzero;"/><path d="M754.871,1664.41l50.7,-0c12.3,-0 29.4,-1.2 43.8,-10.8c16.8,-11.1 24.9,-30.3 24.9,-48.6c-0,-18.3 -7.5,-34.2 -18.9,-44.1c-15.3,-13.5 -35.7,-15.9 -50.1,-15.9l-19.8,-0l-0,-51.9l69.6,-0l-0,-28.8l-100.2,-0l-0,200.1Zm30.6,-90.6l19.2,-0c32.4,-0 39.6,17.1 39.6,31.5c-0,30.3 -32.1,30.3 -40.2,30.3l-18.6,-0l-0,-61.8Z" style="fill:#fff;fill-rule:nonzero;"/><path d="M1023.07,1464.31l-110.4,-0l-0,200.1l110.4,-0l-0,-28.8l-79.8,-0l-0,-66l77.4,-0l-0,-28.8l-77.4,-0l-0,-47.7l79.8,-0l-0,-28.8Z" style="fill:#fff;fill-rule:nonzero;"/><path d="M1062.67,1464.31l-0,200.1l30.6,-0l-0,-81.3l13.8,-0c14.7,-0 33,-2.1 48.9,-15.6c16.5,-14.1 19.5,-32.1 19.5,-43.8c-0,-18.3 -8.1,-37.5 -24.9,-48.6c-14.4,-9.6 -31.5,-10.8 -43.8,-10.8l-44.1,-0Zm30.6,28.2l13.5,-0c34.8,-0 39.3,19.8 39.3,30.9c-0,18.6 -12.6,31.5 -39,31.5l-13.8,-0l-0,-62.4Z" style="fill:#fff;fill-rule:nonzero;"/><rect x="1206.67" y="1464.31" width="30.6" height="200.1" style="fill:#fff;fill-rule:nonzero;"/><path d="M1386.67,1493.11l-0,-28.8l-122.4,-0l-0,28.8l45.9,-0l-0,171.3l30.6,-0l-0,-171.3l45.9,-0Z" style="fill:#fff;fill-rule:nonzero;"/><path d="M1413.67,1664.41l53.7,-0c12.3,-0 29.4,-1.2 43.8,-10.8c16.8,-11.1 24.9,-30.3 24.9,-48.6c-0,-18.3 -7.5,-34.2 -18.9,-44.1c-15.3,-13.5 -35.7,-15.9 -50.1,-15.9l-22.8,-0l-0,-80.7l-30.6,-0l-0,200.1Zm30.6,-90.6l22.2,-0c32.4,-0 39.6,17.1 39.6,31.5c-0,30.3 -32.1,30.3 -40.2,30.3l-21.6,-0l-0,-61.8Z" style="fill:#fff;fill-rule:nonzero;"/><path d="M1637.17,1464.31l-0,200.1l45.9,-0c20.4,-0 36.9,-0.6 53.4,-14.1c18.9,-15.3 20.1,-37.5 20.1,-47.1c-0,-20.4 -12,-39.6 -34.8,-46.5c14.4,-11.4 16.8,-26.4 16.8,-36.6c-0,-26.1 -13.8,-39 -23.1,-45.3c-10.8,-7.5 -22.2,-10.5 -48,-10.5l-30.3,-0Zm30.6,28.8l10.5,-0c12,-0 31.5,3 31.5,27.9c-0,29.1 -25.5,29.4 -32.7,29.4l-9.3,-0l-0,-57.3Zm-0,82.5l19.2,-0c32.4,-0 39.6,16.2 39.6,30.3c-0,12.6 -6.3,29.7 -40.2,29.7l-18.6,-0l-0,-60Z" style="fill:#fff;fill-rule:nonzero;"/><path d="M1933.57,1664.41l33,-0l-94.8,-211.8l-99.6,211.8l33,-0l21.9,-48.3l85.5,-0l21,48.3Zm-93.9,-77.1l30.9,-67.8l29.7,67.8l-60.6,-0Z" style="fill:#fff;fill-rule:nonzero;"/><path d="M1991.77,1664.41l233.4,-0l-0,-200.1l-30.6,-0l-0,171.3l-70.8,-0l-0,-171.3l-30.6,-0l-0,171.3l-70.8,-0l-0,-171.3l-30.6,-0l-0,200.1Z" style="fill:#fff;fill-rule:nonzero;"/><path d="M2250.97,1464.31l72.3,140.4l-27,59.7l31.8,-0l90.3,-200.1l-31.8,-0l-45.9,103.8l-52.5,-103.8l-37.2,-0Z" style="fill:#fff;fill-rule:nonzero;"/></g></g><path d="M989.816,1106.67l-199.697,-0l83.408,-98.645c32.08,-37.694 56.941,-67.368 76.189,-96.239c21.654,-32.08 38.496,-68.17 38.496,-112.279c-0,-83.408 -58.546,-161.201 -172.429,-161.201c-67.367,-0 -105.863,30.476 -125.111,52.129c-20.851,23.258 -42.505,64.962 -44.911,117.091l78.595,0c3.208,-50.525 34.486,-97.041 94.635,-97.041c59.348,0 89.021,41.704 89.021,86.616c0,31.277 -12.831,54.535 -28.069,76.991c-17.644,25.664 -45.714,60.951 -64.16,83.407l-185.26,224.558l359.293,0l-0,-75.387Z" style="fill:#fff;fill-rule:nonzero;"/></g></symbol><symbol id="logo-like-favicon" viewBox="0 0 215 53"><g fill="none"><path fill-rule="evenodd" clip-rule="evenodd" d="M13.7 6.4c-1 .2-1.2.7-2.2 1.3C8.1 10 8.3 10 5.3 13c-8.9 9-5.8 24.8 3.3 32 2.5 2 5.2 3.4 8.1 4.8 5 2.5 7.6 3.8 13.8 2.5 2.9-.5 3.3-.9 5.5-2 .8-.4 5.4-2 2.9-3.6-1.2-.7-4.4 1.4-5.4 2-2.4 1.2-3.5.1-6.4-.1v-1c1.2 0 4.4.2 5.2-.2 1.4-.7 1.2-2.5-1-2.7l-10.2-.4c-3.3.2-3.4 1.3-7.8-2-10.3-7.5-11-19-4-29.6L12.5 8c.8-.9.8-.4 1.1-1.6Z" fill="#659803"/><path fill-rule="evenodd" clip-rule="evenodd" d="M9.8 4.6c.8 3 1.7 1.8 6.3-.5 2.1-1 3.7 0 6.1.1v1c-2 0-6-.6-6 1.5 0 2 2.6 1.3 4.5 1.5l6.8.3c4 0 4-1 7.1 1 13.8 8.7 12.2 23.2 2.7 34.9l-1.7 2.2c1.3-.4 3.8-2.4 4.8-3.3 3-2.5 2-1.8 4.1-4 8-8.4 5.7-23.5-3.3-31C37.7 5.2 28.6 0 22.6 0c-2.6 0-5 .7-7 1.5-1.7.7-4.6 1.8-5.8 3Z" fill="#FE9603"/><path fill-rule="evenodd" clip-rule="evenodd" d="M20 23.6c2.8.3 2.6 2 2.7 2.4 2.4 12.3-3.8 12-2.7 6.2.5-2.2-1.2-3.2 0-8.6Zm3.3-1c-2.4-1.2-1.2-1.5-1.1-3.9 6.6-.1.2-7.8-1.5-3-.7 2.1.8.5-.8 2-1.4 1.4-2.6 2.3-3.6 3.9-3.4 4.9-2.8 5.4-4 10.5h1.8l-.6 4c.1 1.3-.1 1 3.8 1-.4-1-.5-.8-1.8-1.5 0-.7.3-1.6.5-2.3.5-1.1.2-1 1.6-1.2l1 3.6c.2.5-.1.9 1.3 1.2l6.5.1c-.4-1-.6-.3-1.4-1.4.5-1 .7-2.2.7-3.8 1.6 1.1 1.2 3.3 2.1 5.2h3.6c-.4-1.4-.1-1-1.8-1-1-4-3.6-12.2.4-14.8 1.3.3.7.2 1.5 1.2L33 24c3 2.8 1.4 2.2 3.4 2.2-.4.9-1.8 9.3-1.8 11 1.4-1 1.8-7 2.1-8.9.4-2.3.7-1.6 1.1-2.8-1.4-.8-2.6-1.7-3.8-2.9-2-2-1.4-2.2-2.5-4.5 4.7-1.1 2.2-4.6.3-4.6-1.5 0-1.6 1-2.2 2-1.3 2.4-4.8 1-6.2 7.2ZM52.9 4.6c0 2 2.5.4 2.5 2.5v11.2c0 1.9-.9 2-2.5 2.2 0 2.7-.5 2 7.8 2 1.2 0 1-.8 1-2-4.3-1-3.2-.2-3.2-14.1 4 0 5.7-.5 5.7 3.8 0 3-3.2 2.9-5 2.9v2.4c11.1 0 8.9-8.3 6.9-10.3-2.4-2.4-7.7-1.7-12.1-1.7-.9 0-1.1.3-1.1 1Z" fill="#FEFEFE"/><path d="M78.6 3.2c1.3 0 2.4.3 3.4.7 1 .4 2 1 2.6 1.9.8.8 1.4 1.8 1.8 3a12 12 0 0 1-.1 8c-.4 1-1 2-1.8 3a8 8 0 0 1-6 2.6c-1.2 0-2.3-.2-3.3-.7-1-.4-2-1-2.7-1.8a8.9 8.9 0 0 1-1.7-3 12.3 12.3 0 0 1 0-8c.5-1.1 1.1-2.1 1.9-3a8 8 0 0 1 6-2.7ZM78.5 6c-.6 0-1.2 0-1.8.3l-1.6.8a9.2 9.2 0 0 0-1.5 5.7c0 1.2.2 2.2.4 3 .3 1 .7 1.6 1.2 2.2a4.5 4.5 0 0 0 3.5 1.7l1.8-.3c.6-.2 1.1-.5 1.6-.9.4-.7.8-1.5 1-2.4a12.4 12.4 0 0 0 0-6.3c-.3-.9-.7-1.6-1.1-2.2-.5-.5-1-1-1.7-1.2-.6-.3-1.2-.4-1.8-.4ZM94.7 3.6h11.6v1.6L104 6.4l-.2.5v12.6l2.6-.2.3.3-.4 6.7H104l-.4-4-.3-.3H91.9l-.3.4-.3 4H89l-.6-5.7v-1.3h.8c.3 0 .6 0 .8-.2l.7-.5c.7-.8 1.3-1.9 1.6-3.3.4-1.4.6-3.2.7-5.2l.1-3.8-.3-.4-2.7-.6.2-2 4.5.2Zm1.5 2.5-.3.3-.1 3.6c-.2 4.4-1 7.5-2.2 9.4l6.7.2.3-.3v-13L96.2 6ZM117 3.6v1.6l-2.2 1.1-.2.5V10l-.2 5h.3l7.3-8.3v-.6l-.3-.4-2.7-.3.2-1.9h8.6v1.6l-2.2 1.2-.3.4v12.5l.3.4 2.3.5-.2 1.8h-8.2v-1.5l2.2-1.2.3-.5v-3.7l.1-4.6h-.2l-7.3 8.3v.6l.3.4 2.6.3-.1 1.9h-8.7v-1.5l2.2-1.3.3-.4V6.3l-.3-.4-2.1-.4.1-1.9h8.1ZM138.5 3.6v1.6l-2.2 1.1-.3.5v4.7l7.4-.2v-5l-.3-.5-2.6-.3.2-1.9h8.4v1.6L147 6.4l-.3.4v12.5l.3.4 2.2.5-.1 1.8h-8.2v-1.5l2.2-1.3.3-.4V14L136 14v5.5l.3.4 2.6.3-.1 1.9h-8.6v-1.5l2.2-1.3.3-.4V6.3l-.3-.4-2.2-.4.2-1.9h8.1ZM160 3.6v1.6l-2.3 1.1-.3.5v4.7l7.4-.2v-5l-.3-.5-2.6-.3.2-1.9h8.4v1.6l-2.1 1.2-.3.4v12.5l.3.4 2.2.5-.1 1.8h-8.2v-1.5l2.2-1.3.3-.4V14l-7.4-.1v5.5l.3.4 2.6.3-.1 1.9h-8.6v-1.5l2.2-1.3.3-.4V6.3l-.3-.4-2.2-.4.2-1.9h8.1ZM181.4 3.6l6.1-.2.3.4-.8 6-2.3-.2-.1-3.6h-2.3l-3.2.2-.3.4v4.8h2l2.4-.3.3.3-.3 2.5-4.4-.2v5.7l4.6.2h1.4l1-4.7 2.3.2-.5 7-4.2-.1H173v-1.5l2.4-1.3.2-.4V6.3l-.3-.4-2.2-.4.2-1.9h8.2ZM57 29.6h4l5.7-.2.4.4-.8 6.8-2.3-.1-.2-4.3h-3.3v13.1l.3.4 3.1.4-.1 1.9H53.7v-1.5l3.2-1.3.3-.4V32.3l-2.2-.1h-.9l-1 4.4-2.2-.2.4-7 5.8.2ZM77.5 29.6l6.1-.2.3.4-.9 6-2.2-.2-.2-3.6h-2.2l-3.2.2-.3.4v4.8h2l2.4-.3.3.3-.3 2.5-4.4-.2v5.7l4.5.2H81l1-4.7 2.2.2-.4 7-4.2-.1H69v-1.5l2.3-1.3.3-.4V32.3l-.3-.4-2.2-.4.2-1.9h8.2ZM105 29.6v1.6l-2.1 1.2-.3.4v12.5l.3.4 2.3.5-.2 1.8h-8v-1.5l2-1.3.3-.4V32.2l-6.6-.1-.3.3v13l.3.4 2.5.3L95 48h-8.4v-1.5l2.2-1.3.3-.4V32.3l-.3-.4-2.2-.4.2-1.9H105ZM114 29.6h11.4v1.6l-2.3 1.2-.2.5v12.4l.3.4 2.3.5-.1 1.8h-9v-1.6l3-1.2.2-.4V32.2l-4.2-.1-.3.3-.2 3.6c0 2.5-.3 4.6-.7 6.3-.4 1.6-.9 3-1.5 4-.4.6-1 1.1-1.6 1.5-.7.3-1.4.5-2.3.5l-1.3-.1c-.4 0-.8-.2-1.1-.3l.7-3.2 1.4.2c.7 0 1.3-.2 1.9-.6a28.4 28.4 0 0 0 1.8-8.1v-3.8l-.2-.4-2.7-.5.2-2 4.4.1ZM135.7 29.2c1.2 0 2.4.3 3.4.7 1 .4 1.9 1 2.6 1.9.8.8 1.3 1.8 1.7 3a12 12 0 0 1 0 8c-.5 1-1 2-1.8 3a8 8 0 0 1-6 2.6c-1.2 0-2.3-.2-3.4-.7-1-.4-1.9-1-2.6-1.8a8.9 8.9 0 0 1-1.7-3 12.3 12.3 0 0 1 0-8c.5-1.1 1.1-2.1 1.9-3a8 8 0 0 1 5.9-2.7Zm-.2 2.8c-.6 0-1.2 0-1.8.3l-1.5.8a9.2 9.2 0 0 0-1.5 5.7c0 1.2.1 2.2.4 3 .3 1 .7 1.6 1.2 2.2a4.5 4.5 0 0 0 3.5 1.7l1.8-.3c.6-.2 1-.5 1.5-.9.5-.7.9-1.5 1.1-2.4a12.4 12.4 0 0 0 0-6.3c-.3-.9-.7-1.6-1.1-2.2-.5-.5-1-1-1.7-1.2-.6-.3-1.2-.4-1.9-.4ZM153.3 30v7h-1.7v-5.7h-3.1V37h-1.6v-7h6.3ZM158 30c.6 0 1.2.1 1.6.3.5.2.8.5 1 .9.3.4.5.8.5 1.3 0 .6-.2 1-.4 1.4-.3.4-.6.7-1 .9a4 4 0 0 1-1.7.3h-1.4V37H155v-7h3Zm0 3.7c.4 0 .8 0 1-.3.3-.2.4-.5.4-.9s-.1-.7-.4-.9c-.2-.2-.6-.3-1-.3h-1.4v2.4h1.3ZM162.1 30h1.6v4.6l3.4-4.6h1.5v7H167v-4.6l-3.3 4.6H162v-7ZM175.2 33.3l1 .7c.2.3.3.6.3 1 0 .6-.2 1.1-.7 1.5-.5.3-1.1.5-2 .5h-3.5v-7h3.3c.8 0 1.4.2 1.9.5.4.3.7.7.7 1.3 0 .4-.1.7-.3 1l-.7.5Zm-3.3-.4h1.6c.3 0 .6 0 .8-.2l.2-.7c0-.2 0-.4-.3-.6l-.7-.2h-1.6v1.7Zm1.8 2.9c.8 0 1.2-.3 1.2-.9 0-.6-.4-.9-1.2-.9H172v1.8h1.8ZM182.5 35.5h-3.2l-.6 1.5H177l3.1-7h1.6l3.1 7h-1.7l-.6-1.5Zm-.5-1.2-1-2.7-1.2 2.7h2.2ZM190.8 31.3h-2.3V37H187v-5.7h-2.2V30h6v1.3ZM198.2 30v7h-1.6v-2.9h-3.2V37h-1.6v-7h1.6v2.8h3.2V30h1.6ZM200 30h1.6v4.6l3.3-4.6h1.5v7h-1.6v-4.6l-3.3 4.6H200v-7ZM208.2 30h1.6v4.6L213 30h1.5v7H213v-4.6l-3.3 4.6h-1.5v-7Zm3.2-.5c-1.3 0-2-.5-2-1.5h1.2c0 .5.3.7.8.7l.6-.1c.2-.2.2-.3.2-.6h1.1c0 .5-.1.9-.4 1.2-.4.2-.8.3-1.5.3ZM153.3 42v7h-1.7v-5.7h-3.1V49h-1.6v-7h6.3ZM159.7 47.5h-3.2l-.6 1.5h-1.7l3.1-7h1.6l3.1 7h-1.7l-.6-1.5Zm-.5-1.2-1-2.7-1.2 2.7h2.2ZM169.4 42v7h-1.6v-2.9h-3.2V49H163v-7h1.6v2.8h3.2V42h1.6ZM174.5 49.1a4 4 0 0 1-2-.4 3.6 3.6 0 0 1-1.8-3.2c0-.7.1-1.3.5-1.9.3-.5.7-1 1.3-1.3a4 4 0 0 1 2-.4 4 4 0 0 1 1.6.3c.5.2 1 .5 1.2 1l-1 .9c-.5-.6-1-.8-1.8-.8-.4 0-.8 0-1.1.2a2 2 0 0 0-.8.8l-.3 1.2.3 1.2c.2.3.4.6.8.8l1.1.2c.7 0 1.3-.2 1.8-.8l1 1c-.3.4-.7.7-1.2.9-.5.2-1 .3-1.6.3ZM178.4 42h1.6v7h-1.6v-7ZM185 49.1c-.6 0-1.3-.1-1.9-.5-.6-.3-1-.7-1.3-1.2-.4-.6-.5-1.2-.5-1.9a3.5 3.5 0 0 1 1.8-3.2c.6-.3 1.3-.4 2-.4a4 4 0 0 1 2 .4 3.5 3.5 0 0 1 1.8 3.2 3.5 3.5 0 0 1-1.8 3.1 4 4 0 0 1-2 .5Zm0-1.4c.5 0 .9 0 1.2-.2l.8-.8.3-1.2-.3-1.2a2 2 0 0 0-.8-.8l-1.1-.2a2.2 2.2 0 0 0-2 1l-.2 1.2.3 1.2a2.1 2.1 0 0 0 1.9 1ZM196.6 42v7H195v-2.9h-3.2V49h-1.6v-7h1.6v2.8h3.2V42h1.6ZM203 47.5h-3.2l-.6 1.5h-1.6l3-7h1.7l3.1 7h-1.7l-.6-1.5Zm-.4-1.2-1.1-2.7-1.1 2.7h2.2ZM211.3 43.3h-2.2V49h-1.6v-5.7h-2.2V42h6v1.3Z" fill="#fff"/></g></symbol><symbol id="logo" viewBox="0 0 215 53"><g fill="none"><path fill-rule="evenodd" clip-rule="evenodd" d="M13.7 6.4c-1 .2-1.2.7-2.2 1.3C8.1 10 8.3 10 5.3 13c-8.9 9-5.8 24.8 3.3 32 2.5 2 5.2 3.4 8.1 4.8 5 2.5 7.6 3.8 13.8 2.5 2.9-.5 3.3-.9 5.5-2 .8-.4 5.4-2 2.9-3.6-1.2-.7-4.4 1.4-5.4 2-2.4 1.2-3.5.1-6.4-.1v-1c1.2 0 4.4.2 5.2-.2 1.4-.7 1.2-2.5-1-2.7l-10.2-.4c-3.3.2-3.4 1.3-7.8-2-10.3-7.5-11-19-4-29.6L12.5 8c.8-.9.8-.4 1.1-1.6Z" fill="#659803"/><path fill-rule="evenodd" clip-rule="evenodd" d="M9.8 4.6c.8 3 1.7 1.8 6.3-.5 2.1-1 3.7 0 6.1.1v1c-2 0-6-.6-6 1.5 0 2 2.6 1.3 4.5 1.5l6.8.3c4 0 4-1 7.1 1 13.8 8.7 12.2 23.2 2.7 34.9l-1.7 2.2c1.3-.4 3.8-2.4 4.8-3.3 3-2.5 2-1.8 4.1-4 8-8.4 5.7-23.5-3.3-31C37.7 5.2 28.6 0 22.6 0c-2.6 0-5 .7-7 1.5-1.7.7-4.6 1.8-5.8 3Z" fill="#FE9603"/><path fill-rule="evenodd" clip-rule="evenodd" d="M20 23.6c2.8.3 2.6 2 2.7 2.4 2.4 12.3-3.8 12-2.7 6.2.5-2.2-1.2-3.2 0-8.6Zm3.3-1c-2.4-1.2-1.2-1.5-1.1-3.9 6.6-.1.2-7.8-1.5-3-.7 2.1.8.5-.8 2-1.4 1.4-2.6 2.3-3.6 3.9-3.4 4.9-2.8 5.4-4 10.5h1.8l-.6 4c.1 1.3-.1 1 3.8 1-.4-1-.5-.8-1.8-1.5 0-.7.3-1.6.5-2.3.5-1.1.2-1 1.6-1.2l1 3.6c.2.5-.1.9 1.3 1.2l6.5.1c-.4-1-.6-.3-1.4-1.4.5-1 .7-2.2.7-3.8 1.6 1.1 1.2 3.3 2.1 5.2h3.6c-.4-1.4-.1-1-1.8-1-1-4-3.6-12.2.4-14.8 1.3.3.7.2 1.5 1.2L33 24c3 2.8 1.4 2.2 3.4 2.2-.4.9-1.8 9.3-1.8 11 1.4-1 1.8-7 2.1-8.9.4-2.3.7-1.6 1.1-2.8-1.4-.8-2.6-1.7-3.8-2.9-2-2-1.4-2.2-2.5-4.5 4.7-1.1 2.2-4.6.3-4.6-1.5 0-1.6 1-2.2 2-1.3 2.4-4.8 1-6.2 7.2ZM52.9 4.6c0 2 2.5.4 2.5 2.5v11.2c0 1.9-.9 2-2.5 2.2 0 2.7-.5 2 7.8 2 1.2 0 1-.8 1-2-4.3-1-3.2-.2-3.2-14.1 4 0 5.7-.5 5.7 3.8 0 3-3.2 2.9-5 2.9v2.4c11.1 0 8.9-8.3 6.9-10.3-2.4-2.4-7.7-1.7-12.1-1.7-.9 0-1.1.3-1.1 1Z" fill="#FEFEFE"/><path d="M78.6 3.2c1.3 0 2.4.3 3.4.7 1 .4 2 1 2.6 1.9.8.8 1.4 1.8 1.8 3a12 12 0 0 1-.1 8c-.4 1-1 2-1.8 3a8 8 0 0 1-6 2.6c-1.2 0-2.3-.2-3.3-.7-1-.4-2-1-2.7-1.8a8.9 8.9 0 0 1-1.7-3 12.3 12.3 0 0 1 0-8c.5-1.1 1.1-2.1 1.9-3a8 8 0 0 1 6-2.7ZM78.5 6c-.6 0-1.2 0-1.8.3l-1.6.8a9.2 9.2 0 0 0-1.5 5.7c0 1.2.2 2.2.4 3 .3 1 .7 1.6 1.2 2.2a4.5 4.5 0 0 0 3.5 1.7l1.8-.3c.6-.2 1.1-.5 1.6-.9.4-.7.8-1.5 1-2.4a12.4 12.4 0 0 0 0-6.3c-.3-.9-.7-1.6-1.1-2.2-.5-.5-1-1-1.7-1.2-.6-.3-1.2-.4-1.8-.4ZM94.7 3.6h11.6v1.6L104 6.4l-.2.5v12.6l2.6-.2.3.3-.4 6.7H104l-.4-4-.3-.3H91.9l-.3.4-.3 4H89l-.6-5.7v-1.3h.8c.3 0 .6 0 .8-.2l.7-.5c.7-.8 1.3-1.9 1.6-3.3.4-1.4.6-3.2.7-5.2l.1-3.8-.3-.4-2.7-.6.2-2 4.5.2Zm1.5 2.5-.3.3-.1 3.6c-.2 4.4-1 7.5-2.2 9.4l6.7.2.3-.3v-13L96.2 6ZM117 3.6v1.6l-2.2 1.1-.2.5V10l-.2 5h.3l7.3-8.3v-.6l-.3-.4-2.7-.3.2-1.9h8.6v1.6l-2.2 1.2-.3.4v12.5l.3.4 2.3.5-.2 1.8h-8.2v-1.5l2.2-1.2.3-.5v-3.7l.1-4.6h-.2l-7.3 8.3v.6l.3.4 2.6.3-.1 1.9h-8.7v-1.5l2.2-1.3.3-.4V6.3l-.3-.4-2.1-.4.1-1.9h8.1ZM138.5 3.6v1.6l-2.2 1.1-.3.5v4.7l7.4-.2v-5l-.3-.5-2.6-.3.2-1.9h8.4v1.6L147 6.4l-.3.4v12.5l.3.4 2.2.5-.1 1.8h-8.2v-1.5l2.2-1.3.3-.4V14L136 14v5.5l.3.4 2.6.3-.1 1.9h-8.6v-1.5l2.2-1.3.3-.4V6.3l-.3-.4-2.2-.4.2-1.9h8.1ZM160 3.6v1.6l-2.3 1.1-.3.5v4.7l7.4-.2v-5l-.3-.5-2.6-.3.2-1.9h8.4v1.6l-2.1 1.2-.3.4v12.5l.3.4 2.2.5-.1 1.8h-8.2v-1.5l2.2-1.3.3-.4V14l-7.4-.1v5.5l.3.4 2.6.3-.1 1.9h-8.6v-1.5l2.2-1.3.3-.4V6.3l-.3-.4-2.2-.4.2-1.9h8.1ZM181.4 3.6l6.1-.2.3.4-.8 6-2.3-.2-.1-3.6h-2.3l-3.2.2-.3.4v4.8h2l2.4-.3.3.3-.3 2.5-4.4-.2v5.7l4.6.2h1.4l1-4.7 2.3.2-.5 7-4.2-.1H173v-1.5l2.4-1.3.2-.4V6.3l-.3-.4-2.2-.4.2-1.9h8.2ZM57 29.6h4l5.7-.2.4.4-.8 6.8-2.3-.1-.2-4.3h-3.3v13.1l.3.4 3.1.4-.1 1.9H53.7v-1.5l3.2-1.3.3-.4V32.3l-2.2-.1h-.9l-1 4.4-2.2-.2.4-7 5.8.2ZM77.5 29.6l6.1-.2.3.4-.9 6-2.2-.2-.2-3.6h-2.2l-3.2.2-.3.4v4.8h2l2.4-.3.3.3-.3 2.5-4.4-.2v5.7l4.5.2H81l1-4.7 2.2.2-.4 7-4.2-.1H69v-1.5l2.3-1.3.3-.4V32.3l-.3-.4-2.2-.4.2-1.9h8.2ZM105 29.6v1.6l-2.1 1.2-.3.4v12.5l.3.4 2.3.5-.2 1.8h-8v-1.5l2-1.3.3-.4V32.2l-6.6-.1-.3.3v13l.3.4 2.5.3L95 48h-8.4v-1.5l2.2-1.3.3-.4V32.3l-.3-.4-2.2-.4.2-1.9H105ZM114 29.6h11.4v1.6l-2.3 1.2-.2.5v12.4l.3.4 2.3.5-.1 1.8h-9v-1.6l3-1.2.2-.4V32.2l-4.2-.1-.3.3-.2 3.6c0 2.5-.3 4.6-.7 6.3-.4 1.6-.9 3-1.5 4-.4.6-1 1.1-1.6 1.5-.7.3-1.4.5-2.3.5l-1.3-.1c-.4 0-.8-.2-1.1-.3l.7-3.2 1.4.2c.7 0 1.3-.2 1.9-.6a28.4 28.4 0 0 0 1.8-8.1v-3.8l-.2-.4-2.7-.5.2-2 4.4.1ZM135.7 29.2c1.2 0 2.4.3 3.4.7 1 .4 1.9 1 2.6 1.9.8.8 1.3 1.8 1.7 3a12 12 0 0 1 0 8c-.5 1-1 2-1.8 3a8 8 0 0 1-6 2.6c-1.2 0-2.3-.2-3.4-.7-1-.4-1.9-1-2.6-1.8a8.9 8.9 0 0 1-1.7-3 12.3 12.3 0 0 1 0-8c.5-1.1 1.1-2.1 1.9-3a8 8 0 0 1 5.9-2.7Zm-.2 2.8c-.6 0-1.2 0-1.8.3l-1.5.8a9.2 9.2 0 0 0-1.5 5.7c0 1.2.1 2.2.4 3 .3 1 .7 1.6 1.2 2.2a4.5 4.5 0 0 0 3.5 1.7l1.8-.3c.6-.2 1-.5 1.5-.9.5-.7.9-1.5 1.1-2.4a12.4 12.4 0 0 0 0-6.3c-.3-.9-.7-1.6-1.1-2.2-.5-.5-1-1-1.7-1.2-.6-.3-1.2-.4-1.9-.4ZM153.3 30v7h-1.7v-5.7h-3.1V37h-1.6v-7h6.3ZM158 30c.6 0 1.2.1 1.6.3.5.2.8.5 1 .9.3.4.5.8.5 1.3 0 .6-.2 1-.4 1.4-.3.4-.6.7-1 .9a4 4 0 0 1-1.7.3h-1.4V37H155v-7h3Zm0 3.7c.4 0 .8 0 1-.3.3-.2.4-.5.4-.9s-.1-.7-.4-.9c-.2-.2-.6-.3-1-.3h-1.4v2.4h1.3ZM162.1 30h1.6v4.6l3.4-4.6h1.5v7H167v-4.6l-3.3 4.6H162v-7ZM175.2 33.3l1 .7c.2.3.3.6.3 1 0 .6-.2 1.1-.7 1.5-.5.3-1.1.5-2 .5h-3.5v-7h3.3c.8 0 1.4.2 1.9.5.4.3.7.7.7 1.3 0 .4-.1.7-.3 1l-.7.5Zm-3.3-.4h1.6c.3 0 .6 0 .8-.2l.2-.7c0-.2 0-.4-.3-.6l-.7-.2h-1.6v1.7Zm1.8 2.9c.8 0 1.2-.3 1.2-.9 0-.6-.4-.9-1.2-.9H172v1.8h1.8ZM182.5 35.5h-3.2l-.6 1.5H177l3.1-7h1.6l3.1 7h-1.7l-.6-1.5Zm-.5-1.2-1-2.7-1.2 2.7h2.2ZM190.8 31.3h-2.3V37H187v-5.7h-2.2V30h6v1.3ZM198.2 30v7h-1.6v-2.9h-3.2V37h-1.6v-7h1.6v2.8h3.2V30h1.6ZM200 30h1.6v4.6l3.3-4.6h1.5v7h-1.6v-4.6l-3.3 4.6H200v-7ZM208.2 30h1.6v4.6L213 30h1.5v7H213v-4.6l-3.3 4.6h-1.5v-7Zm3.2-.5c-1.3 0-2-.5-2-1.5h1.2c0 .5.3.7.8.7l.6-.1c.2-.2.2-.3.2-.6h1.1c0 .5-.1.9-.4 1.2-.4.2-.8.3-1.5.3ZM153.3 42v7h-1.7v-5.7h-3.1V49h-1.6v-7h6.3ZM159.7 47.5h-3.2l-.6 1.5h-1.7l3.1-7h1.6l3.1 7h-1.7l-.6-1.5Zm-.5-1.2-1-2.7-1.2 2.7h2.2ZM169.4 42v7h-1.6v-2.9h-3.2V49H163v-7h1.6v2.8h3.2V42h1.6ZM174.5 49.1a4 4 0 0 1-2-.4 3.6 3.6 0 0 1-1.8-3.2c0-.7.1-1.3.5-1.9.3-.5.7-1 1.3-1.3a4 4 0 0 1 2-.4 4 4 0 0 1 1.6.3c.5.2 1 .5 1.2 1l-1 .9c-.5-.6-1-.8-1.8-.8-.4 0-.8 0-1.1.2a2 2 0 0 0-.8.8l-.3 1.2.3 1.2c.2.3.4.6.8.8l1.1.2c.7 0 1.3-.2 1.8-.8l1 1c-.3.4-.7.7-1.2.9-.5.2-1 .3-1.6.3ZM178.4 42h1.6v7h-1.6v-7ZM185 49.1c-.6 0-1.3-.1-1.9-.5-.6-.3-1-.7-1.3-1.2-.4-.6-.5-1.2-.5-1.9a3.5 3.5 0 0 1 1.8-3.2c.6-.3 1.3-.4 2-.4a4 4 0 0 1 2 .4 3.5 3.5 0 0 1 1.8 3.2 3.5 3.5 0 0 1-1.8 3.1 4 4 0 0 1-2 .5Zm0-1.4c.5 0 .9 0 1.2-.2l.8-.8.3-1.2-.3-1.2a2 2 0 0 0-.8-.8l-1.1-.2a2.2 2.2 0 0 0-2 1l-.2 1.2.3 1.2a2.1 2.1 0 0 0 1.9 1ZM196.6 42v7H195v-2.9h-3.2V49h-1.6v-7h1.6v2.8h3.2V42h1.6ZM203 47.5h-3.2l-.6 1.5h-1.6l3-7h1.7l3.1 7h-1.7l-.6-1.5Zm-.4-1.2-1.1-2.7-1.1 2.7h2.2ZM211.3 43.3h-2.2V49h-1.6v-5.7h-2.2V42h6v1.3Z" fill="#fff"/></g></symbol><symbol id="viber-icon" viewBox="0 0 532 532"><circle cx="266" cy="266" r="256" fill="#fff" stroke="#6151a2" stroke-miterlimit="10" stroke-width="20"/><path d="M401 120c-56-45-219-52-276 5-44 43-53 192 0 238 31 28 50 30 50 30l1 42c0 11 14 21 28 5l33-35s112 8 164-35 56-205 0-250Zm-21 230c-45 37-138 29-138 29l-38 43c-21 22-19 15-19 1l1-54s-15-3-38-19c-49-35-34-174-4-206 48-50 189-43 238-4s43 173-2 210Z" fill="#6151a2"/><path d="M197 163a13 13 0 0 1 13 2s5 4 14 16a151 151 0 0 1 13 21 12 12 0 0 1-3 13l-8 8a16 16 0 0 0-4 13 70 70 0 0 0 20 34 82 82 0 0 0 35 19 16 16 0 0 0 13-5l6-6a12 12 0 0 1 12-2 143 143 0 0 1 19 10 178 178 0 0 1 18 14 12 12 0 0 1 3 13 53 53 0 0 1-10 13 52 52 0 0 1-13 10 23 23 0 0 1-14 1s-48-16-83-50c-39-38-56-89-56-89a18 18 0 0 1 2-14s6-9 12-14a53 53 0 0 1 11-7Z" fill="#6151a2"/><path d="M263 159c61 0 87 49 85 89" fill="none" stroke="#6151a2" stroke-linecap="round" stroke-miterlimit="10" stroke-width="10"/><path d="M272 182c38 0 54 31 53 56m-48-33c19 0 27 16 27 28" fill="none" stroke="#6151a2" stroke-linecap="round" stroke-miterlimit="10" stroke-width="10"/></symbol><symbol id="vodafone-logo" viewBox="0 0 311.81 311.81">
    <circle fill="#E60000" stroke="none" cx="155.91" cy="155.91" r="155.91"/>
    <path stroke="none" fill="#ffffff" d="M157.13,242.31c-42.57.14-86.87-36.19-87.06-94.54C69.95,109.18,90.76,72,117.37,50c26-21.49,61.51-35.28,93.76-35.39,4.15,0,8.49.33,11.15,1.23-28.2,5.85-50.64,32.09-50.54,61.86a16.16,16.16,0,0,0,.19,2.52c47.18,11.49,68.6,40,68.73,79.35S209.69,242.13,157.13,242.31Z"/>
</symbol><symbol id="whatsapp-icon" viewBox="0 0 532 532"><circle cx="266" cy="266" r="256" fill="#fff" stroke="#2ab34b" stroke-miterlimit="10" stroke-width="20"/><path d="M126 260a146 146 0 1 1 69 124l-66 19 19-66a145 145 0 0 1-22-77Z" fill="none" stroke="#2ab34b" stroke-miterlimit="10" stroke-width="27.2"/><path d="M245 225a6 6 0 0 1-1 6l-11 14a7 7 0 0 0-1 6s5 14 22 27a142 142 0 0 0 35 21 6 6 0 0 0 5-1l15-17a5 5 0 0 1 6-1l34 17a7 7 0 0 1 4 5s2 18-18 28-58 7-98-29-55-77-41-98c14-22 29-17 29-17a9 9 0 0 1 4 5Z" fill="#2ab34b" stroke="#2ab34b" stroke-miterlimit="10"/></symbol></svg>