<svg width="215" height="53" viewBox="0 0 215 53" fill="none" xmlns="http://www.w3.org/2000/svg">
<path fill-rule="evenodd" clip-rule="evenodd" d="M13.7299 6.35129C12.732 6.61781 12.4621 7.05018 11.5405 7.69058C8.13483 10.0571 8.3382 10.1266 5.34219 13.1366C-3.59036 22.111 -0.505756 37.946 8.58059 45.022C11.146 47.0198 13.8476 48.4828 16.7328 49.9254C21.7262 52.4222 24.3128 53.6696 30.523 52.4316C33.4045 51.8572 33.8192 51.531 35.9599 50.4585C36.8052 50.0351 41.375 48.4904 38.8717 46.8383C37.7158 46.0755 34.4868 48.2035 33.502 48.7111C31.0593 49.9701 29.9837 48.931 27.1384 48.6941V47.6356C28.2665 47.6356 31.4584 47.8546 32.2984 47.4803C33.7429 46.8363 33.5299 44.9874 31.3936 44.7943L21.1279 44.4488C17.811 44.5558 17.6749 45.6821 13.2684 42.4513C2.96033 34.8936 2.31111 23.4283 9.20781 12.7678L12.6002 8.04449C13.4294 7.11709 13.3892 7.62722 13.7299 6.35129Z" fill="#659803"/>
<path fill-rule="evenodd" clip-rule="evenodd" d="M9.84842 4.58702C10.5509 7.60168 11.451 6.38089 16.0677 4.0927C18.1989 3.03655 19.8207 4.03634 22.1984 4.23423V5.29281C20.1286 5.29281 16.1999 4.57191 16.1999 6.70418C16.1999 8.74805 18.845 7.96866 20.7342 8.16837L27.4913 8.46845C31.4334 8.46845 31.4152 7.41626 34.6248 9.4507C48.3888 18.175 46.82 32.6531 37.2646 44.3532C36.525 45.2586 36.2244 45.6551 35.607 46.5771C36.9035 46.2309 39.3633 44.2134 40.4417 43.296C43.3972 40.7821 42.3447 41.5242 44.5177 39.2563C52.5514 30.8719 50.1546 15.8394 41.1503 8.21815C37.68 5.28095 28.5529 0 22.5513 0C19.9788 0 17.5297 0.726977 15.5903 1.50758C13.9425 2.17089 11.0395 3.33146 9.84842 4.58712V4.58702Z" fill="#FE9603"/>
<path fill-rule="evenodd" clip-rule="evenodd" d="M20.0813 23.6413C22.7986 23.8674 22.5963 25.5774 22.6773 25.9854C25.114 38.2573 18.8942 38.0184 20.0389 32.1523C20.4612 29.9884 18.8417 28.962 20.0812 23.6413H20.0813ZM23.2571 22.5828C20.942 21.3578 22.1458 21.0672 22.1985 18.7013C28.7538 18.5553 22.414 10.8717 20.6846 15.7794C19.9634 17.826 21.4979 16.2406 19.8685 17.7597C18.4693 19.0642 17.322 20.017 16.2625 21.5866C12.9488 26.495 13.5115 26.9896 12.3186 32.1098H14.0828C13.9638 32.621 13.4757 35.4772 13.5189 36.1426C13.6021 37.4254 13.3856 37.0499 17.2586 37.0499C16.9201 36.1147 16.8385 36.3496 15.4943 35.6385C15.5546 34.9139 15.7553 34.0177 16.0191 33.3404C16.4713 32.18 16.2471 32.2235 17.6116 32.1098L18.58 35.7285C18.8091 36.2412 18.4971 36.5832 19.8766 36.9019L26.4329 37.0499C26.0245 36.0378 25.8038 36.7062 25.0216 35.6385C25.5397 34.5588 25.7272 33.3811 25.7272 31.757C27.3117 32.9178 26.9242 35.1321 27.8444 37.0499H31.373C30.9944 35.6324 31.2772 36.0285 29.6088 35.9913C28.6839 32.0214 25.9896 23.8312 29.9616 21.1713C31.3292 21.5365 30.7423 21.381 31.537 22.4189C32.0564 23.0973 32.2657 23.362 32.8681 23.9105C35.9637 26.7297 34.3381 26.0673 36.3131 26.1113C35.8887 26.9959 34.5488 35.4022 34.5488 37.05C35.9104 36.0524 36.3284 30.122 36.6477 28.2104C37.0407 25.8575 37.2844 26.6216 37.7245 25.4057C36.2657 24.6338 35.0835 23.6827 33.9209 22.5051C31.943 20.5016 32.4971 20.3383 31.3731 17.9957C36.1341 16.8865 33.5511 13.4086 31.7259 13.4086C30.1906 13.4086 30.145 14.4027 29.545 15.4619C28.2001 17.8364 24.6921 16.4244 23.2573 22.5829L23.2571 22.5828Z" fill="#FEFEFE"/>
<path fill-rule="evenodd" clip-rule="evenodd" d="M52.8971 4.58701C52.8971 6.50528 55.367 5.04058 55.367 7.05697V18.3485C55.367 20.1784 54.5459 20.3284 52.8971 20.4655C52.8971 23.1956 52.416 22.5827 60.6599 22.5827C61.9343 22.5827 61.7184 21.6924 61.7184 20.4655C57.3697 19.4525 58.5427 20.2804 58.5427 6.35128C62.487 6.35128 64.1884 5.91597 64.1884 10.2328C64.1884 13.2894 61.0127 13.0556 59.2484 13.0556V15.5255C70.3285 15.5255 68.095 7.23631 66.0702 5.1751C63.7368 2.79994 58.3784 3.52843 53.9556 3.52843C53.1424 3.52843 52.897 3.77397 52.897 4.58691L52.8971 4.58701Z" fill="#FEFEFE"/>
<path d="M78.6265 3.23873C79.8714 3.23873 80.9996 3.46243 82.0111 3.90982C83.0421 4.33776 83.9174 4.96022 84.6371 5.77719C85.3763 6.59417 85.9501 7.59594 86.3586 8.7825C86.7671 9.9496 86.9714 11.2821 86.9714 12.7798C86.9714 14.2193 86.7477 15.5323 86.3003 16.7188C85.8529 17.8859 85.2499 18.8877 84.4912 19.7241C83.7326 20.5606 82.8378 21.2122 81.8069 21.679C80.7954 22.1459 79.7158 22.3793 78.5682 22.3793C77.3233 22.3793 76.1853 22.1653 75.1544 21.7374C74.1429 21.3095 73.2676 20.687 72.5284 19.87C71.8087 19.0531 71.2446 18.061 70.8361 16.8939C70.4276 15.7073 70.2233 14.3652 70.2233 12.8674C70.2233 11.4279 70.447 10.1247 70.8944 8.95756C71.3418 7.771 71.9448 6.75951 72.7035 5.92308C73.4621 5.0672 74.3471 4.40584 75.3586 3.939C76.3896 3.47215 77.4789 3.23873 78.6265 3.23873ZM78.4515 5.98144C77.8679 5.98144 77.2746 6.08842 76.6716 6.30239C76.0881 6.49691 75.5726 6.77896 75.1252 7.14854C74.1332 8.47127 73.6371 10.3484 73.6371 12.7798C73.6371 13.9664 73.7733 14.9973 74.0456 15.8727C74.3374 16.7286 74.7167 17.4386 75.1836 18.0027C75.6504 18.5668 76.1853 18.985 76.7883 19.2573C77.4108 19.5296 78.0527 19.6658 78.7141 19.6658C79.3171 19.6658 79.9103 19.5685 80.4939 19.374C81.0969 19.16 81.6221 18.8683 82.0695 18.4987C82.5363 17.8373 82.8962 17.0398 83.1491 16.1061C83.4019 15.1724 83.5284 14.0928 83.5284 12.8674C83.5284 11.6808 83.3825 10.6596 83.0907 9.80372C82.8184 8.92838 82.4488 8.20867 81.982 7.64457C81.5151 7.08046 80.9705 6.66225 80.348 6.38992C79.745 6.1176 79.1128 5.98144 78.4515 5.98144Z" fill="white"/>
<path d="M94.7028 3.61804H106.257V5.19364L104.098 6.4191L103.894 6.85677V19.5199L106.461 19.2865L106.782 19.6366L106.432 26.3475H104.01L103.602 22.3501L103.281 22H91.8725L91.5516 22.3501L91.3473 26.3475H88.8964L88.342 20.7454V19.374H89.1298C89.4216 19.374 89.6939 19.3157 89.9468 19.1989C90.1997 19.0822 90.4331 18.9266 90.6471 18.7321C91.3279 17.9151 91.8531 16.7966 92.2227 15.3767C92.5922 13.9567 92.8159 12.2255 92.8937 10.183L93.0105 6.36075L92.7479 5.95226L90.0051 5.42706L90.151 3.47215L94.7028 3.61804ZM96.1908 6.09815L95.8699 6.4191L95.7532 9.97878C95.5781 14.3749 94.8584 17.5261 93.594 19.4324L100.276 19.5782L100.597 19.2573V6.21486L96.1908 6.09815Z" fill="white"/>
<path d="M117.041 3.61804V5.16446L114.824 6.33157L114.561 6.76923V10.0955L114.357 15.1141H114.678L121.972 6.82759V6.21486L121.68 5.83555L119.025 5.51459L119.171 3.61804H127.778V5.16446L125.59 6.44828L125.298 6.82759V19.3448L125.59 19.695L127.866 20.1618L127.72 22H119.521V20.4828L121.68 19.2573L121.972 18.8488V15.1141L122.147 10.4748H121.855L114.561 18.7613V19.4032L114.853 19.7533L117.537 20.1326L117.391 22H108.667V20.4536L110.943 19.1989L111.235 18.8196V6.30239L110.914 5.8939L108.755 5.48541L108.9 3.61804H117.041Z" fill="white"/>
<path d="M138.525 3.61804V5.16446L136.308 6.33157L136.016 6.76923V11.5252L143.369 11.2918V6.24404L143.077 5.83555L140.539 5.54377L140.685 3.61804H149.146V5.16446L146.958 6.44828L146.666 6.82759V19.3448L146.958 19.695L149.234 20.1618L149.088 22H140.918V20.4536L143.106 19.2281L143.369 18.8488V14.0345L136.016 13.8594V19.4032L136.308 19.7533L138.905 20.1034L138.759 22H130.151V20.4536L132.427 19.1989L132.719 18.8196V6.30239L132.398 5.8939L130.239 5.48541L130.385 3.61804H138.525Z" fill="white"/>
<path d="M159.924 3.61804V5.16446L157.707 6.33157L157.415 6.76923V11.5252L164.768 11.2918V6.24404L164.476 5.83555L161.938 5.54377L162.083 3.61804H170.545V5.16446L168.357 6.44828L168.065 6.82759V19.3448L168.357 19.695L170.633 20.1618L170.487 22H162.317V20.4536L164.505 19.2281L164.768 18.8488V14.0345L157.415 13.8594V19.4032L157.707 19.7533L160.304 20.1034L160.158 22H151.55V20.4536L153.826 19.1989L154.118 18.8196V6.30239L153.797 5.8939L151.638 5.48541L151.784 3.61804H159.924Z" fill="white"/>
<path d="M181.382 3.61804L187.538 3.44297L187.771 3.79311L186.954 9.71618L184.708 9.59947L184.562 6.03979H182.315L179.106 6.21486L178.814 6.56499V11.3793H180.886L183.22 11.0875L183.482 11.3501L183.191 13.947L178.814 13.6552V19.4324L183.366 19.6074H184.795L185.846 14.8515L188.063 15.0849L187.626 22.1459L183.424 22H172.949V20.4536L175.254 19.1989L175.517 18.7905V6.27321L175.196 5.86472L173.037 5.45624L173.183 3.61804H181.382Z" fill="white"/>
<path d="M57.061 29.618H60.9416L66.748 29.443L67.069 29.8223L66.3395 36.5623L64.0345 36.504L63.8302 32.1565H62.9549L60.5332 32.2732V45.3157L60.8249 45.6658L63.9469 46.1034L63.8011 48H53.6764V46.4536L56.9151 45.1698L57.2069 44.7905V32.2732L55.0186 32.1565H54.1141L53.1512 36.6207L50.9045 36.3873L51.3422 29.4722L57.061 29.618Z" fill="white"/>
<path d="M77.4644 29.618L83.6209 29.443L83.8544 29.7931L83.0374 35.7162L80.7907 35.5995L80.6448 32.0398H78.3981L75.1886 32.2149L74.8968 32.565V37.3793H76.9684L79.3026 37.0875L79.5652 37.3501L79.2735 39.947L74.8968 39.6552V45.4324L79.4485 45.6074H80.8782L81.9286 40.8515L84.1461 41.0849L83.7085 48.1459L79.5069 48H69.0321V46.4536L71.3371 45.1989L71.5997 44.7905V32.2732L71.2788 31.8647L69.1196 31.4562L69.2655 29.618H77.4644Z" fill="white"/>
<path d="M105.084 29.618V31.1645L102.895 32.4483L102.604 32.8276V45.3448L102.895 45.695L105.171 46.1618L105.025 48H96.9139V46.4536L99.0147 45.2281L99.3065 44.8488V32.1857L92.7123 32.069L92.4205 32.4483V45.4032L92.7123 45.7533L95.1632 46.1034L95.0173 48H86.5558V46.4536L88.8317 45.1989L89.1234 44.8196V32.3316L88.8025 31.9231L86.6433 31.5146L86.7892 29.618H105.084Z" fill="white"/>
<path d="M113.919 29.618H125.415V31.1645L123.139 32.4483L122.935 32.8568V45.3448L123.227 45.695L125.503 46.1618L125.357 48H116.487V46.4244L119.317 45.1989L119.609 44.7905V32.244L115.378 32.0981L115.086 32.4191L114.94 35.9788C114.824 38.5075 114.581 40.5986 114.211 42.252C113.841 43.9054 113.336 45.2378 112.694 46.2493C112.266 46.9107 111.721 47.4164 111.06 47.7666C110.398 48.0973 109.659 48.2626 108.842 48.2626C108.395 48.2626 107.957 48.2334 107.529 48.1751C107.101 48.1167 106.722 48.0097 106.391 47.8541L107.092 44.7029C107.5 44.8391 107.957 44.9072 108.463 44.9072C109.183 44.9072 109.825 44.7029 110.389 44.2944C110.856 43.3996 111.235 42.2714 111.527 40.9098C111.838 39.5482 112.042 37.9629 112.139 36.1539L112.285 32.3899L112.023 31.9814L109.28 31.4562L109.455 29.4722L113.919 29.618Z" fill="white"/>
<path d="M135.7 29.2387C136.945 29.2387 138.073 29.4624 139.084 29.9098C140.115 30.3378 140.991 30.9602 141.71 31.7772C142.45 32.5942 143.023 33.5959 143.432 34.7825C143.84 35.9496 144.045 37.2821 144.045 38.7798C144.045 40.2193 143.821 41.5323 143.373 42.7188C142.926 43.8859 142.323 44.8877 141.564 45.7241C140.806 46.5606 139.911 47.2122 138.88 47.679C137.869 48.1459 136.789 48.3793 135.641 48.3793C134.396 48.3793 133.259 48.1653 132.228 47.7374C131.216 47.3095 130.341 46.687 129.602 45.87C128.882 45.053 128.318 44.061 127.909 42.8939C127.501 41.7073 127.297 40.3652 127.297 38.8674C127.297 37.4279 127.52 36.1247 127.968 34.9576C128.415 33.771 129.018 32.7595 129.777 31.9231C130.535 31.0672 131.42 30.4058 132.432 29.939C133.463 29.4722 134.552 29.2387 135.7 29.2387ZM135.525 31.9814C134.941 31.9814 134.348 32.0884 133.745 32.3024C133.161 32.4969 132.646 32.779 132.198 33.1485C131.206 34.4713 130.71 36.3484 130.71 38.7798C130.71 39.9664 130.847 40.9973 131.119 41.8727C131.411 42.7286 131.79 43.4386 132.257 44.0027C132.724 44.5668 133.259 44.985 133.862 45.2573C134.484 45.5296 135.126 45.6658 135.787 45.6658C136.39 45.6658 136.984 45.5685 137.567 45.374C138.17 45.16 138.695 44.8683 139.143 44.4987C139.61 43.8373 139.969 43.0398 140.222 42.1061C140.475 41.1724 140.602 40.0928 140.602 38.8674C140.602 37.6808 140.456 36.6596 140.164 35.8037C139.892 34.9284 139.522 34.2087 139.055 33.6446C138.588 33.0805 138.044 32.6622 137.421 32.3899C136.818 32.1176 136.186 31.9814 135.525 31.9814Z" fill="white"/>
<path d="M153.25 29.9999V36.9999H151.64V31.3199H148.48V36.9999H146.87V29.9999H153.25Z" fill="white"/>
<path d="M158.015 29.9999C158.635 29.9999 159.172 30.1032 159.625 30.3099C160.085 30.5166 160.439 30.8099 160.685 31.1899C160.932 31.5699 161.055 32.0199 161.055 32.5399C161.055 33.0532 160.932 33.5032 160.685 33.8899C160.439 34.2699 160.085 34.5632 159.625 34.7699C159.172 34.9699 158.635 35.0699 158.015 35.0699H156.605V36.9999H154.985V29.9999H158.015ZM157.925 33.7499C158.412 33.7499 158.782 33.6466 159.035 33.4399C159.289 33.2266 159.415 32.9266 159.415 32.5399C159.415 32.1466 159.289 31.8466 159.035 31.6399C158.782 31.4266 158.412 31.3199 157.925 31.3199H156.605V33.7499H157.925Z" fill="white"/>
<path d="M162.124 29.9999H163.734V34.5599L167.074 29.9999H168.594V36.9999H166.994V32.4499L163.654 36.9999H162.124V29.9999Z" fill="white"/>
<path d="M175.187 33.3499C175.613 33.4766 175.94 33.6832 176.167 33.9699C176.393 34.2566 176.507 34.6099 176.507 35.0299C176.507 35.6499 176.27 36.1332 175.797 36.4799C175.33 36.8266 174.66 36.9999 173.787 36.9999H170.337V29.9999H173.597C174.41 29.9999 175.043 30.1566 175.497 30.4699C175.95 30.7832 176.177 31.2299 176.177 31.8099C176.177 32.1566 176.09 32.4632 175.917 32.7299C175.743 32.9899 175.5 33.1966 175.187 33.3499ZM171.947 32.8999H173.457C173.81 32.8999 174.077 32.8299 174.257 32.6899C174.437 32.5432 174.527 32.3299 174.527 32.0499C174.527 31.7766 174.433 31.5666 174.247 31.4199C174.067 31.2732 173.803 31.1999 173.457 31.1999H171.947V32.8999ZM173.727 35.7999C174.487 35.7999 174.867 35.4999 174.867 34.8999C174.867 34.3199 174.487 34.0299 173.727 34.0299H171.947V35.7999H173.727Z" fill="white"/>
<path d="M182.528 35.4999H179.278L178.658 36.9999H176.998L180.118 29.9999H181.718L184.848 36.9999H183.148L182.528 35.4999ZM182.018 34.2699L180.908 31.5899L179.798 34.2699H182.018Z" fill="white"/>
<path d="M190.775 31.3199H188.535V36.9999H186.935V31.3199H184.705V29.9999H190.775V31.3199Z" fill="white"/>
<path d="M198.212 29.9999V36.9999H196.592V34.1299H193.412V36.9999H191.792V29.9999H193.412V32.7599H196.592V29.9999H198.212Z" fill="white"/>
<path d="M199.966 29.9999H201.576V34.5599L204.916 29.9999H206.436V36.9999H204.836V32.4499L201.496 36.9999H199.966V29.9999Z" fill="white"/>
<path d="M208.179 29.9999H209.789V34.5599L213.129 29.9999H214.649V36.9999H213.049V32.4499L209.709 36.9999H208.179V29.9999ZM211.409 29.5499C210.129 29.5499 209.482 29.0399 209.469 28.0199H210.579C210.592 28.5066 210.869 28.7499 211.409 28.7499C211.675 28.7499 211.879 28.6899 212.019 28.5699C212.159 28.4432 212.232 28.2599 212.239 28.0199H213.349C213.342 28.5199 213.179 28.8999 212.859 29.1599C212.539 29.4199 212.055 29.5499 211.409 29.5499Z" fill="white"/>
<path d="M153.25 41.9999V48.9999H151.64V43.3199H148.48V48.9999H146.87V41.9999H153.25Z" fill="white"/>
<path d="M159.725 47.4999H156.475L155.855 48.9999H154.195L157.315 41.9999H158.915L162.045 48.9999H160.345L159.725 47.4999ZM159.215 46.2699L158.105 43.5899L156.995 46.2699H159.215Z" fill="white"/>
<path d="M169.394 41.9999V48.9999H167.774V46.1299H164.594V48.9999H162.974V41.9999H164.594V44.7599H167.774V41.9999H169.394Z" fill="white"/>
<path d="M174.457 49.1199C173.744 49.1199 173.097 48.9666 172.517 48.6599C171.944 48.3466 171.491 47.9166 171.157 47.3699C170.831 46.8166 170.667 46.1932 170.667 45.4999C170.667 44.8066 170.831 44.1866 171.157 43.6399C171.491 43.0866 171.944 42.6566 172.517 42.3499C173.097 42.0366 173.747 41.8799 174.467 41.8799C175.074 41.8799 175.621 41.9866 176.107 42.1999C176.601 42.4132 177.014 42.7199 177.347 43.1199L176.307 44.0799C175.834 43.5332 175.247 43.2599 174.547 43.2599C174.114 43.2599 173.727 43.3566 173.387 43.5499C173.047 43.7366 172.781 43.9999 172.587 44.3399C172.401 44.6799 172.307 45.0666 172.307 45.4999C172.307 45.9332 172.401 46.3199 172.587 46.6599C172.781 46.9999 173.047 47.2666 173.387 47.4599C173.727 47.6466 174.114 47.7399 174.547 47.7399C175.247 47.7399 175.834 47.4632 176.307 46.9099L177.347 47.8699C177.014 48.2766 176.601 48.5866 176.107 48.7999C175.614 49.0132 175.064 49.1199 174.457 49.1199Z" fill="white"/>
<path d="M178.403 41.9999H180.013V48.9999H178.403V41.9999Z" fill="white"/>
<path d="M185.093 49.1199C184.366 49.1199 183.709 48.9632 183.123 48.6499C182.543 48.3366 182.086 47.9066 181.753 47.3599C181.426 46.8066 181.263 46.1866 181.263 45.4999C181.263 44.8132 181.426 44.1966 181.753 43.6499C182.086 43.0966 182.543 42.6632 183.123 42.3499C183.709 42.0366 184.366 41.8799 185.093 41.8799C185.819 41.8799 186.473 42.0366 187.053 42.3499C187.633 42.6632 188.089 43.0966 188.423 43.6499C188.756 44.1966 188.923 44.8132 188.923 45.4999C188.923 46.1866 188.756 46.8066 188.423 47.3599C188.089 47.9066 187.633 48.3366 187.053 48.6499C186.473 48.9632 185.819 49.1199 185.093 49.1199ZM185.093 47.7399C185.506 47.7399 185.879 47.6466 186.213 47.4599C186.546 47.2666 186.806 46.9999 186.993 46.6599C187.186 46.3199 187.283 45.9332 187.283 45.4999C187.283 45.0666 187.186 44.6799 186.993 44.3399C186.806 43.9999 186.546 43.7366 186.213 43.5499C185.879 43.3566 185.506 43.2599 185.093 43.2599C184.679 43.2599 184.306 43.3566 183.973 43.5499C183.639 43.7366 183.376 43.9999 183.183 44.3399C182.996 44.6799 182.903 45.0666 182.903 45.4999C182.903 45.9332 182.996 46.3199 183.183 46.6599C183.376 46.9999 183.639 47.2666 183.973 47.4599C184.306 47.6466 184.679 47.7399 185.093 47.7399Z" fill="white"/>
<path d="M196.591 41.9999V48.9999H194.971V46.1299H191.791V48.9999H190.171V41.9999H191.791V44.7599H194.971V41.9999H196.591Z" fill="white"/>
<path d="M203.085 47.4999H199.835L199.215 48.9999H197.555L200.675 41.9999H202.275L205.405 48.9999H203.705L203.085 47.4999ZM202.575 46.2699L201.465 43.5899L200.355 46.2699H202.575Z" fill="white"/>
<path d="M211.331 43.3199H209.091V48.9999H207.491V43.3199H205.261V41.9999H211.331V43.3199Z" fill="white"/>
</svg>
