<svg id="Слой_1" data-name="Слой 1" xmlns="http://www.w3.org/2000/svg" viewBox="0 0 215 53"><defs><style>.cls-1{fill:#659803;}.cls-1,.cls-2,.cls-3{fill-rule:evenodd;}.cls-2{fill:#fe9603;}.cls-3{fill:#fefefe;}.cls-4,.cls-5{isolation:isolate;}.cls-4{font-size:24px;font-family:FedraSerifAPro-Bold, Fedra Serif A Pro;font-weight:700;}.cls-4,.cls-7{fill:#fff;}.cls-6{letter-spacing:-0.06em;}.cls-7{font-size:9px;font-family:ProximaNova-Semibold, Proxima Nova;font-weight:600;}</style></defs><path class="cls-1" d="M13.73,6.35a6.21,6.21,0,0,0-2.19,1.34c-3.41,2.37-3.2,2.44-6.2,5.45C-3.59,22.11-.51,38,8.58,45a47.94,47.94,0,0,0,8.15,4.91c5,2.49,7.58,3.74,13.79,2.5a15.52,15.52,0,0,0,5.44-2c.85-.42,5.42-2,2.91-3.62-1.15-.76-4.38,1.36-5.37,1.87-2.44,1.26-3.52.22-6.36,0v-1c1.13,0,4.32.21,5.16-.16,1.44-.64,1.23-2.49-.91-2.69l-10.26-.34c-3.32.11-3.46,1.23-7.86-2-10.31-7.56-11-19-4.06-29.68L12.6,8C13.43,7.12,13.39,7.63,13.73,6.35Z"/><path class="cls-2" d="M9.85,4.59c.7,3,1.6,1.79,6.22-.5,2.13-1,3.75,0,6.13.14V5.29c-2.07,0-6-.72-6,1.41S18.84,8,20.73,8.17l6.76.3c3.94,0,3.93-1.05,7.13,1,13.77,8.73,12.2,23.2,2.64,34.9a25.06,25.06,0,0,0-1.65,2.23c1.29-.35,3.75-2.37,4.83-3.28a30,30,0,0,0,4.08-4c8-8.39,5.63-23.42-3.37-31C37.68,5.28,28.55,0,22.55,0a19,19,0,0,0-7,1.51C13.94,2.17,11,3.33,9.85,4.59Z"/><path class="cls-3" d="M20.08,23.64c2.72.23,2.52,1.94,2.6,2.35,2.43,12.27-3.79,12-2.64,6.16.42-2.16-1.2-3.19,0-8.51Zm3.18-1.06c-2.32-1.22-1.11-1.51-1.06-3.88,6.55-.14.21-7.83-1.52-2.92-.72,2,.82.46-.81,2a21.42,21.42,0,0,0-3.61,3.83C13,26.5,13.51,27,12.32,32.11h1.76a30.82,30.82,0,0,0-.56,4c.08,1.29-.13.91,3.74.91-.34-.94-.42-.7-1.77-1.41a9,9,0,0,1,.53-2.3c.45-1.16.23-1.12,1.59-1.23l1,3.62c.23.51-.08.85,1.3,1.17l6.55.15c-.41-1-.63-.34-1.41-1.41a8.58,8.58,0,0,0,.71-3.88c1.58,1.16,1.19,3.37,2.11,5.29h3.53c-.38-1.42-.09-1-1.76-1.06C28.68,32,26,23.83,30,21.17c1.37.37.78.21,1.58,1.25a9.12,9.12,0,0,0,1.33,1.49c3.09,2.82,1.47,2.16,3.44,2.2a76.38,76.38,0,0,0-1.76,10.94c1.36-1,1.78-6.93,2.1-8.84.39-2.35.63-1.59,1.07-2.8a15.76,15.76,0,0,1-3.8-2.9c-2-2-1.42-2.17-2.55-4.51,4.76-1.11,2.18-4.59.36-4.59-1.54,0-1.58,1-2.18,2.05-1.35,2.38-4.86,1-6.29,7.12Z"/><text class="cls-4" transform="translate(55.94 47.63)">ТЕПЛО</text><g class="cls-5"><text class="cls-4" transform="translate(56.04 22.49)">Р<tspan class="cls-6" x="17.5" y="0">О</tspan><tspan x="36.22" y="0">ДИННЕ</tspan></text></g><text class="cls-7" transform="translate(152.78 38.06)">ПРИВАТНИЙ<tspan x="0" y="10">ПАНСІОНАТ</tspan></text></svg>