<svg xmlns="http://www.w3.org/2000/svg" viewBox="0 0 512.2 512.2"><circle cx="256.3" cy="256.3" r="250" fill="#fff"/><path d="M256 512A256 256 0 0 1 75 75a256 256 0 0 1 362 362 254 254 0 0 1-181 75Zm0-493a237 237 0 1 0 1 474 237 237 0 0 0-1-474Z" fill="#bd2026"/><path d="M75 207c-7-23 3-55 20-70l39-34c6-5 12-8 18-8 10 0 19 8 23 23a383 383 0 0 0 25 61l-38 33c-9 8-10 27-2 41a383 383 0 0 0 86 97 39 39 0 0 0 24 9c7 0 13-2 17-6l38-33a383 383 0 0 0 57 32c22 10 27 28 10 43l-39 34a75 75 0 0 1-47 16 59 59 0 0 1-25-5A383 383 0 0 1 75 207Zm195-72 3-34a150 150 0 0 0-81 14l12 32a116 116 0 0 1 53-13 119 119 0 0 1 13 1Zm131 70a150 150 0 0 0-99-98l-10 32a116 116 0 0 1 76 77Zm-91 67v-15h-31a3 3 0 0 1-3-4v-11a3 3 0 0 1 0-2l30-47a3 3 0 0 1 2-2h23a3 3 0 0 1 3 3v42h6a3 3 0 0 1 3 4v13a3 3 0 0 1-3 4h-6v15a3 3 0 0 1-3 3h-18a3 3 0 0 1-3-3Zm0-36v-13l-1 1-7 12Zm97 14a153 153 0 0 0-1-16l-34 3a120 120 0 0 1 1 13 116 116 0 0 1-21 66l30 17a150 150 0 0 0 25-83Zm-192 25h55a3 3 0 0 0 4-3v-15a3 3 0 0 0-4-3h-20v-1c12-10 22-21 22-36 0-16-12-27-30-27-11 0-21 3-28 8a3 3 0 0 0-1 4l5 13a3 3 0 0 0 2 2 3 3 0 0 0 3 0c5-4 10-6 15-6 6 0 9 3 9 8 0 7-8 16-24 30l-10 9a3 3 0 0 0-1 3v11a3 3 0 0 0 3 3Z" fill="#bd2026"/></svg>