<svg xmlns="http://www.w3.org/2000/svg" viewBox="0 0 340.3 95.9"><path d="M17 47a3 3 0 0 1 1 4l-7 8 1 9c0 2 2 4 2 2l-1-9a3 3 0 0 1 5 0l2 19a2 2 0 0 1 0 1 3 3 0 0 1 0 1l-8 13a3 3 0 0 1-2 1H3a3 3 0 0 1-2 0 3 3 0 0 1-1-3 3 3 0 0 1 0-1l5-9c2-5 1-18 1-25a5 5 0 0 1 1-2l7-9a3 3 0 0 1 3 0ZM81 47a3 3 0 0 0-1 4l7 8-1 9c0 2-2 4-2 2l1-9a3 3 0 0 0-5 0l-2 19a2 2 0 0 0 0 1v1l8 13a3 3 0 0 0 2 1h7a3 3 0 0 0 2 0 3 3 0 0 0 1-3 3 3 0 0 0 0-1l-5-9c-2-5-1-18-1-25a5 5 0 0 0-1-2l-7-9a3 3 0 0 0-3 0Z" fill="#ff9500"/><path d="m75 58-8-6c-1-2-4-5-5-10a4 4 0 0 0 1 0 4 4 0 1 0-4-4 3 3 0 0 0 0 1 17 17 0 0 0-7 4c-5 5-6 9-6 9s-2 0-3-2l1-6a4 4 0 0 0 1 0 4 4 0 1 0-4-4 4 4 0 0 0 0 1c-2 1-5 3-11 12-4 7-5 18-5 18h3l-1 9h7l-1-1-3-1 3-7h2l3 9h14l-3-1 2-6v-4a24 24 0 0 1 3 5 37 37 0 0 1 1 6h7l-2-1-1-1-2-9a68 68 0 0 1-2-11c0-3 2-9 5-10l5 5 4 4v2l2-1 1 1-3 22h1l3-22s2 0 2-1Zm-29 9c0 3 0 11-2 12-1 1-4-1-4-1l-1-7h1l-2-10c0-3 2-8 3-8l3 2a9 9 0 0 0 2 0 16 16 0 0 0-1 5l1 7Z" fill="#fff"/><path fill="#669901" d="M28 10h7v12L50 7l40 41 4-4L50 0 40 10V5H23v22L6 44l3 4 19-19V10z"/><text transform="translate(252 63)" font-size="14" fill="#fff" font-family="Verdana, Geneva, Tahoma, sans-serif">ПРИВАТНИЙ<tspan x="0" y="16.8">ПАНСІОНАТ</tspan></text><text transform="translate(104 42)" font-size="36" fill="#fff" font-family="Georgia-Bold, Georgia, 'Times New Roman', Times, serif" font-weight="700" letter-spacing="0em">РОДИННЕ<tspan x="0" y="38">ТЕПЛО</tspan></text></svg>