<svg xmlns="http://www.w3.org/2000/svg" viewBox="0 0 532 532"><circle cx="266" cy="266" r="256" fill="#fff" stroke="#6151a2" stroke-miterlimit="10" stroke-width="20"/><path d="M401 120c-56-45-219-52-276 5-44 43-53 192 0 238 31 28 50 30 50 30l1 42c0 11 14 21 28 5l33-35s112 8 164-35 56-205 0-250Zm-21 230c-45 37-138 29-138 29l-38 43c-21 22-19 15-19 1l1-54s-15-3-38-19c-49-35-34-174-4-206 48-50 189-43 238-4s43 173-2 210Z" fill="#6151a2"/><path d="M197 163a13 13 0 0 1 13 2s5 4 14 16a151 151 0 0 1 13 21 12 12 0 0 1-3 13l-8 8a16 16 0 0 0-4 13 70 70 0 0 0 20 34 82 82 0 0 0 35 19 16 16 0 0 0 13-5l6-6a12 12 0 0 1 12-2 143 143 0 0 1 19 10 178 178 0 0 1 18 14 12 12 0 0 1 3 13 53 53 0 0 1-10 13 52 52 0 0 1-13 10 23 23 0 0 1-14 1s-48-16-83-50c-39-38-56-89-56-89a18 18 0 0 1 2-14s6-9 12-14a53 53 0 0 1 11-7Z" fill="#6151a2"/><path d="M263 159c61 0 87 49 85 89" fill="none" stroke="#6151a2" stroke-linecap="round" stroke-miterlimit="10" stroke-width="10"/><path d="M272 182c38 0 54 31 53 56m-48-33c19 0 27 16 27 28" fill="none" stroke="#6151a2" stroke-linecap="round" stroke-miterlimit="10" stroke-width="10"/></svg>