<svg xmlns="http://www.w3.org/2000/svg" xmlns:xlink="http://www.w3.org/1999/xlink"><symbol id="call-icon" viewBox="0 0 512.2 512.2"><circle cx="256.3" cy="256.3" r="250" fill="#fff"/><path d="M256 512A256 256 0 0 1 75 75a256 256 0 0 1 362 362 254 254 0 0 1-181 75Zm0-493a237 237 0 1 0 1 474 237 237 0 0 0-1-474Z" fill="#bd2026"/><path d="M75 207c-7-23 3-55 20-70l39-34c6-5 12-8 18-8 10 0 19 8 23 23a383 383 0 0 0 25 61l-38 33c-9 8-10 27-2 41a383 383 0 0 0 86 97 39 39 0 0 0 24 9c7 0 13-2 17-6l38-33a383 383 0 0 0 57 32c22 10 27 28 10 43l-39 34a75 75 0 0 1-47 16 59 59 0 0 1-25-5A383 383 0 0 1 75 207Zm195-72 3-34a150 150 0 0 0-81 14l12 32a116 116 0 0 1 53-13 119 119 0 0 1 13 1Zm131 70a150 150 0 0 0-99-98l-10 32a116 116 0 0 1 76 77Zm-91 67v-15h-31a3 3 0 0 1-3-4v-11a3 3 0 0 1 0-2l30-47a3 3 0 0 1 2-2h23a3 3 0 0 1 3 3v42h6a3 3 0 0 1 3 4v13a3 3 0 0 1-3 4h-6v15a3 3 0 0 1-3 3h-18a3 3 0 0 1-3-3Zm0-36v-13l-1 1-7 12Zm97 14a153 153 0 0 0-1-16l-34 3a120 120 0 0 1 1 13 116 116 0 0 1-21 66l30 17a150 150 0 0 0 25-83Zm-192 25h55a3 3 0 0 0 4-3v-15a3 3 0 0 0-4-3h-20v-1c12-10 22-21 22-36 0-16-12-27-30-27-11 0-21 3-28 8a3 3 0 0 0-1 4l5 13a3 3 0 0 0 2 2 3 3 0 0 0 3 0c5-4 10-6 15-6 6 0 9 3 9 8 0 7-8 16-24 30l-10 9a3 3 0 0 0-1 3v11a3 3 0 0 0 3 3Z" fill="#bd2026"/></symbol><symbol id="fbmess-icon" viewBox="0 0 513.1 513.1"><circle cx="256.6" cy="256.6" r="256.6" fill="#fff"/><path d="M256 0A256 256 0 0 0 75 438 256 256 0 1 0 437 75 254 254 0 0 0 256 0Zm0 493a237 237 0 1 1 1-474 237 237 0 0 1-1 474Z" fill="#34b2dd"/><path d="M256 82c-99 0-179 75-179 167 0 51 25 97 64 128l1 66 62-35a192 192 0 0 0 52 8c99 0 179-75 179-167S355 82 256 82Z" fill="#34b2dd"/><path fill="#fff" d="m236 204-98 103 89-49 46 49 97-103-89 47-45-47z"/></symbol><symbol id="viber-icon" viewBox="0 0 532 532"><circle cx="266" cy="266" r="256" fill="#fff" stroke="#6151a2" stroke-miterlimit="10" stroke-width="20"/><path d="M401 120c-56-45-219-52-276 5-44 43-53 192 0 238 31 28 50 30 50 30l1 42c0 11 14 21 28 5l33-35s112 8 164-35 56-205 0-250Zm-21 230c-45 37-138 29-138 29l-38 43c-21 22-19 15-19 1l1-54s-15-3-38-19c-49-35-34-174-4-206 48-50 189-43 238-4s43 173-2 210Z" fill="#6151a2"/><path d="M197 163a13 13 0 0 1 13 2s5 4 14 16a151 151 0 0 1 13 21 12 12 0 0 1-3 13l-8 8a16 16 0 0 0-4 13 70 70 0 0 0 20 34 82 82 0 0 0 35 19 16 16 0 0 0 13-5l6-6a12 12 0 0 1 12-2 143 143 0 0 1 19 10 178 178 0 0 1 18 14 12 12 0 0 1 3 13 53 53 0 0 1-10 13 52 52 0 0 1-13 10 23 23 0 0 1-14 1s-48-16-83-50c-39-38-56-89-56-89a18 18 0 0 1 2-14s6-9 12-14a53 53 0 0 1 11-7Z" fill="#6151a2"/><path d="M263 159c61 0 87 49 85 89" fill="none" stroke="#6151a2" stroke-linecap="round" stroke-miterlimit="10" stroke-width="10"/><path d="M272 182c38 0 54 31 53 56m-48-33c19 0 27 16 27 28" fill="none" stroke="#6151a2" stroke-linecap="round" stroke-miterlimit="10" stroke-width="10"/></symbol><symbol id="whatsapp-icon" viewBox="0 0 532 532"><circle cx="266" cy="266" r="256" fill="#fff" stroke="#2ab34b" stroke-miterlimit="10" stroke-width="20"/><path d="M126 260a146 146 0 1 1 69 124l-66 19 19-66a145 145 0 0 1-22-77Z" fill="none" stroke="#2ab34b" stroke-miterlimit="10" stroke-width="27.2"/><path d="M245 225a6 6 0 0 1-1 6l-11 14a7 7 0 0 0-1 6s5 14 22 27a142 142 0 0 0 35 21 6 6 0 0 0 5-1l15-17a5 5 0 0 1 6-1l34 17a7 7 0 0 1 4 5s2 18-18 28-58 7-98-29-55-77-41-98c14-22 29-17 29-17a9 9 0 0 1 4 5Z" fill="#2ab34b" stroke="#2ab34b" stroke-miterlimit="10"/></symbol></svg>