<svg xmlns="http://www.w3.org/2000/svg" xml:space="preserve" fill-rule="evenodd" stroke-linecap="square" stroke-linejoin="round" stroke-miterlimit="1.5" clip-rule="evenodd" viewBox="0 0 4167 1599"><path fill="none" stroke="#613c82" stroke-width="33.3" d="M2604 352h632v1228h-632z"/><path fill="none" stroke="#613c82" stroke-width="33.3" d="m3002 1580-5-589 387-289 186 135-7-146 132-3 13 256 59 47 1 591-766-2ZM2706 518h192v192h-192z"/><path fill="none" stroke="#613c82" stroke-width="33.3" d="M3338 1123h275v275h-275z"/><path fill="#613c82" d="m3001 1577 1-586 233-175 4 758-238 3Z"/><g transform="translate(0 -165)"><circle cx="758.3" cy="963.1" r="332.3" fill="#dc3731"/><circle cx="813.7" cy="819.8" r="217.7" fill="#dc3731"/><text x="911.7" y="403.6" fill="#dc3731" font-family="&quot;Georgia-Bold&quot;,&quot;Georgia&quot;,serif" font-size="416.8" font-weight="700" transform="matrix(.65 0 0 .65 615 646)">удобные</text><text x="911.7" y="820.3" fill="#dc3731" font-family="&quot;Georgia-Bold&quot;,&quot;Georgia&quot;,serif" font-size="416.8" font-weight="700" transform="matrix(.65 0 0 .65 615 646)">локации</text></g><path fill="#613c82" d="M0 1185h2607v413H0z"/><text x="576" y="1200.5" fill="#fff" font-family="&quot;ArialMT&quot;,&quot;Arial&quot;,sans-serif" font-size="838.8" transform="matrix(.53 0 0 .53 1904 912)">&gt;</text><path fill="#613c82" d="M3778 1185h387v413h-387z"/><text x="223.2" y="325.2" fill="#fff" font-family="&quot;Verdana-Bold&quot;,&quot;Verdana&quot;,sans-serif" font-size="311.8" font-weight="700" transform="matrix(.66 0 0 1.05 -83 1171)">ВЫБЕРИТЕ ВАШУ</text><path fill="#fff" fill-rule="nonzero" d="M990 942H790l84-99c32-38 56-67 76-96 21-32 38-68 38-112 0-84-58-162-172-162-68 0-106 31-125 52-21 24-43 65-45 118h78c4-51 35-98 95-98 59 0 89 42 89 87 0 31-13 55-28 77-18 26-46 61-64 83l-185 225h359v-75Z"/></svg>