<?xml version="1.0" encoding="UTF-8" standalone="no"?>
<!DOCTYPE svg PUBLIC "-//W3C//DTD SVG 1.1//EN" "http://www.w3.org/Graphics/SVG/1.1/DTD/svg11.dtd">
<svg width="100%" height="100%" viewBox="0 0 4051 1473" version="1.1" xmlns="http://www.w3.org/2000/svg" xmlns:xlink="http://www.w3.org/1999/xlink" xml:space="preserve" xmlns:serif="http://www.serif.com/" style="fill-rule:evenodd;clip-rule:evenodd;stroke-linecap:square;stroke-linejoin:round;stroke-miterlimit:1.5;">
    <g transform="matrix(0.999943,0,0,0.999753,-102.11,-289.319)">
        <g id="des">
            <path d="M102.116,1762.35L1240.4,289.39L4153.35,1762.56L102.116,1762.34L102.116,1762.35Z" style="fill:white;fill-opacity:0.52;"/>
            <rect x="427.306" y="1350.3" width="2176.84" height="412.454" style="fill:rgb(97,60,130);"/>
            <g transform="matrix(1,0,0,1,-157.009,0)">
                <path d="M746.505,1453.2C691.511,1453.2 651.091,1494.44 651.091,1548.34C651.091,1602.23 691.511,1643.48 746.505,1643.48C801.499,1643.48 841.919,1602.23 841.919,1548.34C841.919,1494.44 801.499,1453.2 746.505,1453.2ZM746.505,1617.63C707.185,1617.63 679.138,1589.04 679.138,1548.34C679.138,1507.64 707.185,1479.05 746.505,1479.05C785.826,1479.05 813.873,1507.64 813.873,1548.34C813.873,1589.04 785.826,1617.63 746.505,1617.63Z" style="fill:white;fill-rule:nonzero;"/>
                <path d="M877.115,1639.9L923.585,1639.9C934.859,1639.9 950.532,1638.8 963.731,1630C979.129,1619.83 986.553,1602.23 986.553,1585.46C986.553,1568.68 979.679,1554.11 969.23,1545.04C955.207,1532.66 936.509,1530.46 923.31,1530.46L905.162,1530.46L905.162,1482.89L968.955,1482.89L968.955,1456.5L877.115,1456.5L877.115,1639.9ZM905.162,1556.86L922.76,1556.86C952.457,1556.86 959.056,1572.53 959.056,1585.73C959.056,1613.5 929.635,1613.5 922.21,1613.5L905.162,1613.5L905.162,1556.86Z" style="fill:white;fill-rule:nonzero;"/>
                <path d="M1122.94,1456.5L1021.75,1456.5L1021.75,1639.9L1122.94,1639.9L1122.94,1613.51L1049.8,1613.51L1049.8,1553.01L1120.74,1553.01L1120.74,1526.62L1049.8,1526.62L1049.8,1482.9L1122.94,1482.9L1122.94,1456.5Z" style="fill:white;fill-rule:nonzero;"/>
                <path d="M1159.23,1456.5L1159.23,1639.9L1187.28,1639.9L1187.28,1565.39L1199.92,1565.39C1213.4,1565.39 1230.17,1563.46 1244.75,1551.09C1259.87,1538.16 1262.62,1521.67 1262.62,1510.94C1262.62,1494.17 1255.19,1476.57 1239.8,1466.4C1226.6,1457.6 1210.92,1456.5 1199.65,1456.5L1159.23,1456.5ZM1187.28,1482.35L1199.65,1482.35C1231.55,1482.35 1235.67,1500.5 1235.67,1510.67C1235.67,1527.72 1224.12,1539.54 1199.92,1539.54L1187.28,1539.54L1187.28,1482.35Z" style="fill:white;fill-rule:nonzero;"/>
                <rect x="1291.22" y="1456.5" width="28.047" height="183.404" style="fill:white;"/>
                <path d="M1456.2,1482.89L1456.2,1456.49L1344.01,1456.49L1344.01,1482.89L1386.08,1482.89L1386.08,1639.9L1414.13,1639.9L1414.13,1482.89L1456.2,1482.89Z" style="fill:white;fill-rule:nonzero;"/>
                <path d="M1480.95,1639.9L1530.17,1639.9C1541.44,1639.9 1557.12,1638.8 1570.32,1630C1585.71,1619.83 1593.14,1602.23 1593.14,1585.46C1593.14,1568.68 1586.26,1554.11 1575.81,1545.04C1561.79,1532.66 1543.09,1530.46 1529.89,1530.46L1509,1530.46L1509,1456.5L1480.95,1456.5L1480.95,1639.9ZM1509,1556.86L1529.34,1556.86C1559.04,1556.86 1565.64,1572.53 1565.64,1585.73C1565.64,1613.5 1536.22,1613.5 1528.79,1613.5L1509,1613.5L1509,1556.86Z" style="fill:white;fill-rule:nonzero;"/>
                <path d="M1685.8,1456.5L1685.8,1639.9L1727.87,1639.9C1746.57,1639.9 1761.69,1639.35 1776.81,1626.98C1794.14,1612.96 1795.24,1592.61 1795.24,1583.81C1795.24,1565.11 1784.24,1547.51 1763.34,1541.19C1776.54,1530.74 1778.74,1516.99 1778.74,1507.64C1778.74,1483.72 1766.09,1471.9 1757.57,1466.12C1747.67,1459.25 1737.22,1456.5 1713.57,1456.5L1685.8,1456.5ZM1713.85,1482.9L1723.47,1482.9C1734.47,1482.9 1752.34,1485.65 1752.34,1508.47C1752.34,1535.14 1728.97,1535.42 1722.37,1535.42L1713.85,1535.42L1713.85,1482.9ZM1713.85,1558.51L1731.44,1558.51C1761.14,1558.51 1767.74,1573.36 1767.74,1586.29C1767.74,1597.83 1761.97,1613.51 1730.89,1613.51L1713.85,1613.51L1713.85,1558.51Z" style="fill:white;fill-rule:nonzero;"/>
                <path d="M1957.47,1639.9L1987.72,1639.9L1900.83,1445.77L1809.54,1639.9L1839.78,1639.9L1859.86,1595.63L1938.22,1595.63L1957.47,1639.9ZM1871.4,1569.23L1899.73,1507.09L1926.95,1569.23L1871.4,1569.23Z" style="fill:white;fill-rule:nonzero;"/>
                <path d="M2010.81,1639.9L2224.74,1639.9L2224.74,1456.5L2196.69,1456.5L2196.69,1613.5L2131.8,1613.5L2131.8,1456.5L2103.75,1456.5L2103.75,1613.5L2038.86,1613.5L2038.86,1456.5L2010.81,1456.5L2010.81,1639.9Z" style="fill:white;fill-rule:nonzero;"/>
                <path d="M2248.39,1456.5L2314.66,1585.18L2289.91,1639.9L2319.06,1639.9L2401.82,1456.5L2372.68,1456.5L2330.61,1551.64L2282.49,1456.5L2248.39,1456.5Z" style="fill:white;fill-rule:nonzero;"/>
            </g>
        </g>
        <g id="houses">
            <rect x="2603.78" y="516.862" width="632.429" height="1228.19" style="fill:none;stroke:rgb(97,60,130);stroke-width:33.33px;"/>
            <path d="M3001.83,1744.93L2996.59,1156.47L3383.94,866.704L3570.09,1002.28L3563.41,855.516L3694.64,853.046L3707.74,1108.68L3766.53,1155.77L3768.29,1746.61L3001.83,1744.93Z" style="fill:none;stroke:rgb(97,60,130);stroke-width:33.33px;"/>
            <rect x="2705.54" y="682.579" width="192.478" height="192.687" style="fill:none;stroke:rgb(97,60,130);stroke-width:33.33px;"/>
            <rect x="3337.97" y="1287.51" width="274.969" height="274.969" style="fill:none;stroke:rgb(97,60,130);stroke-width:33.33px;"/>
            <path d="M3000.66,1742.34L3002.09,1156.05L3235.12,981.313L3238.62,1739.37L3000.66,1742.34Z" style="fill:rgb(97,60,130);"/>
        </g>
        <g id="red">
            <circle cx="758.308" cy="963.093" r="332.254" style="fill:rgb(220,55,49);"/>
            <circle cx="813.652" cy="819.75" r="217.684" style="fill:rgb(220,55,49);"/>
            <g>
                <path d="M1316.85,839.658C1288.99,839.658 1278.72,822.06 1249.76,822.06C1224.83,822.06 1211.26,837.092 1211.26,864.956L1239.86,864.956C1239.86,859.089 1241.69,853.59 1251.59,853.59C1269.19,853.59 1281.29,868.622 1314.65,868.622C1350.58,868.622 1379.54,845.891 1379.54,812.528C1379.54,795.297 1371.84,780.265 1349.11,771.099C1367.08,762.3 1375.51,747.269 1375.51,731.87C1375.51,699.241 1344.35,677.977 1298.52,677.977C1258.19,677.977 1223.73,699.241 1217.13,736.637L1251.59,736.637C1256.72,715.739 1275.06,707.673 1298.52,707.673C1324.18,707.673 1340.31,717.939 1340.31,734.803C1340.31,746.169 1332.25,758.634 1304.75,758.634L1277.99,758.634L1277.99,788.697L1306.22,788.697C1338.11,788.697 1345.81,800.429 1345.81,814.361C1345.81,829.026 1329.68,839.658 1316.85,839.658Z" style="fill:rgb(220,55,49);fill-rule:nonzero;"/>
                <path d="M1520.32,677.977C1494.66,677.977 1471.93,690.808 1456.53,711.339L1456.53,681.643L1423.53,681.643L1423.53,927.282L1458.36,927.282L1458.36,837.459C1473.39,856.89 1495.76,868.622 1520.32,868.622C1569.08,868.622 1606.84,829.026 1606.84,773.299C1606.84,717.572 1569.08,677.977 1520.32,677.977ZM1514.45,836.359C1481.46,836.359 1457.26,809.962 1457.26,773.299C1457.26,736.637 1481.46,710.24 1514.45,710.24C1547.08,710.24 1570.91,736.637 1570.91,773.299C1570.91,809.962 1547.08,836.359 1514.45,836.359Z" style="fill:rgb(220,55,49);fill-rule:nonzero;"/>
                <path d="M1782.1,681.643L1720.51,822.427L1654.88,681.643L1614.18,681.643L1703.28,861.656L1697.78,874.488C1693.01,885.487 1686.41,895.019 1671.38,895.019C1660.75,895.019 1657.08,895.019 1646.82,894.286L1646.82,927.282C1651.58,927.648 1662.21,928.015 1673.58,928.015C1709.51,928.015 1722.34,904.918 1729.67,885.487L1818.76,681.643L1782.1,681.643Z" style="fill:rgb(220,55,49);fill-rule:nonzero;"/>
                <path d="M1961.01,681.643L1961.01,762.3L1907.85,762.3C1886.22,762.3 1876.69,752.768 1876.69,734.07L1876.69,681.643L1841.86,681.643L1841.86,735.17C1841.86,768.166 1863.49,793.83 1902.35,793.83L1961.01,793.83L1961.01,864.956L1995.84,864.956L1995.84,681.643L1961.01,681.643Z" style="fill:rgb(220,55,49);fill-rule:nonzero;"/>
                <path d="M2184.65,681.643L2184.65,756.801L2089.33,756.801L2089.33,681.643L2054.5,681.643L2054.5,864.956L2089.33,864.956L2089.33,789.797L2184.65,789.797L2184.65,864.956L2219.48,864.956L2219.48,681.643L2184.65,681.643Z" style="fill:rgb(220,55,49);fill-rule:nonzero;"/>
                <path d="M2276.31,608.318L2276.31,648.646L2315.17,648.646L2315.17,608.318L2276.31,608.318ZM2278.14,681.643L2278.14,864.956L2312.97,864.956L2312.97,681.643L2278.14,681.643Z" style="fill:rgb(220,55,49);fill-rule:nonzero;"/>
                <path d="M1416.2,1158.26L1336.28,974.947L1293.01,974.947L1213.09,1158.26L1250.85,1158.26L1314.28,1009.41L1377.34,1158.26L1416.2,1158.26Z" style="fill:rgb(220,55,49);fill-rule:nonzero;"/>
                <path d="M1526.56,1161.92C1581.19,1161.92 1623.35,1120.49 1623.35,1066.6C1623.35,1012.7 1581.19,971.275 1526.56,971.275C1471.57,971.275 1429.04,1012.7 1429.04,1066.6C1429.04,1120.49 1471.57,1161.92 1526.56,1161.92ZM1526.56,1129.66C1491.73,1129.66 1464.97,1102.16 1464.97,1066.6C1464.97,1031.04 1491.73,1003.54 1526.56,1003.54C1561.02,1003.54 1587.42,1031.04 1587.42,1066.6C1587.42,1102.16 1561.02,1129.66 1526.56,1129.66Z" style="fill:rgb(220,55,49);fill-rule:nonzero;"/>
                <path d="M1829.76,1125.63C1800.06,1125.63 1769.63,1077.24 1735.54,1062.2L1831.59,974.947L1787.97,974.947L1700.34,1055.97L1700.34,974.947L1665.51,974.947L1665.51,1158.26L1700.34,1158.26L1700.34,1083.1L1704.01,1083.1C1733.7,1083.1 1767.43,1158.26 1825.36,1158.26L1835.26,1158.26L1835.26,1125.63L1829.76,1125.63Z" style="fill:rgb(220,55,49);fill-rule:nonzero;"/>
                <path d="M2017.1,1125.26C2011.23,1125.26 2007.57,1121.59 2007.57,1115.36L2007.57,1044.97C2007.57,995.841 1972.01,971.277 1928.01,971.277C1885.85,971.277 1852.85,995.474 1845.89,1029.57L1882.91,1029.57C1889.51,1010.87 1909.68,1002.07 1926.18,1002.07C1954.04,1002.07 1970.9,1012.34 1970.9,1028.84C1970.9,1038 1967.97,1044.24 1932.04,1048.27L1911.51,1050.47C1867.52,1055.23 1844.42,1079.07 1844.42,1108.03C1844.42,1139.92 1866.05,1161.92 1906.75,1161.92C1934.61,1161.92 1960.64,1149.82 1976.04,1131.86C1977.87,1148.72 1988.5,1158.26 2006.47,1158.26L2024.07,1158.26L2024.07,1125.26L2017.1,1125.26ZM1910.41,1131.86C1890.25,1131.86 1878.88,1121.96 1878.88,1107.66C1878.88,1094.1 1885.85,1081.63 1915.54,1078.33L1936.08,1076.13C1956.61,1073.93 1967.97,1069.53 1975.67,1063.67L1975.67,1080.16C1975.67,1108.03 1945.24,1131.86 1910.41,1131.86Z" style="fill:rgb(220,55,49);fill-rule:nonzero;"/>
                <path d="M2230.84,1131.13L2230.84,974.947L2196.01,974.947L2196.01,1125.26L2100.69,1125.26L2100.69,974.947L2065.86,974.947L2065.86,1158.26L2209.58,1158.26C2229.01,1158.26 2236.34,1167.06 2236.34,1175.86C2236.34,1185.02 2230.84,1194.19 2212.14,1194.19C2178.05,1194.19 2154.22,1177.69 2118.29,1177.69C2090.06,1177.69 2076.86,1192.36 2076.86,1219.49L2076.86,1224.25L2109.49,1224.25L2109.49,1221.69C2109.49,1215.45 2110.59,1209.95 2123.05,1209.95C2142.48,1209.95 2174.75,1224.25 2212.51,1224.25C2257.24,1224.25 2271.9,1198.59 2271.9,1174.03C2271.9,1154.23 2257.6,1135.9 2230.84,1131.13Z" style="fill:rgb(220,55,49);fill-rule:nonzero;"/>
                <path d="M2295,901.618L2295,941.947L2333.86,941.947L2333.86,901.618L2295,901.618ZM2359.89,901.618L2359.89,941.947L2400.22,941.947L2400.22,901.618L2359.89,901.618ZM2426.25,901.618L2426.25,941.947L2466.58,941.947L2466.58,901.618L2426.25,901.618ZM2296.83,974.943L2296.83,1158.26L2331.66,1158.26L2331.66,974.943L2296.83,974.943ZM2390.32,974.943L2390.32,1158.26L2425.15,1158.26L2425.15,974.943L2390.32,974.943Z" style="fill:rgb(220,55,49);fill-rule:nonzero;"/>
            </g>
        </g>
        <path d="M989.816,1106.67L790.119,1106.67L873.527,1008.02C905.607,970.331 930.468,940.657 949.716,911.786C971.37,879.706 988.212,843.616 988.212,799.507C988.212,716.099 929.666,638.306 815.783,638.306C748.416,638.306 709.92,668.782 690.672,690.435C669.821,713.693 648.167,755.397 645.761,807.526L724.356,807.526C727.564,757.001 758.842,710.485 818.991,710.485C878.339,710.485 908.012,752.189 908.012,797.101C908.012,828.378 895.181,851.636 879.943,874.092C862.299,899.756 834.229,935.043 815.783,957.499L630.523,1182.06L989.816,1182.06L989.816,1106.67Z" style="fill:white;fill-rule:nonzero;"/>
    </g>
    <g transform="matrix(0.43216,0,0,0.43216,1972.54,862.455)">
        <g transform="matrix(838.848,0,0,838.848,576.004,1200.5)">
            <path d="M0.529,-0.313L0.055,-0.11L0.055,-0.198L0.43,-0.354L0.055,-0.508L0.055,-0.595L0.529,-0.395L0.529,-0.313Z" style="fill:white;fill-rule:nonzero;"/>
        </g>
    </g>
</svg>
