<svg xmlns="http://www.w3.org/2000/svg" xml:space="preserve" fill-rule="evenodd" stroke-linecap="square" stroke-linejoin="round" stroke-miterlimit="1.5" clip-rule="evenodd" viewBox="0 0 4167 1599"><path fill="none" stroke="#613c82" stroke-width="33.3" d="M2604 352h632v1228h-632z"/><path fill="none" stroke="#613c82" stroke-width="33.3" d="m3002 1580-5-589 387-289 186 135-7-146 132-3 13 256 59 47 1 591-766-2ZM2706 518h192v192h-192z"/><path fill="none" stroke="#613c82" stroke-width="33.3" d="M3338 1123h275v275h-275z"/><path fill="#613c82" d="m3001 1577 1-586 233-175 4 758-238 3Z"/><g fill="#dc3731" transform="translate(0 -165)"><circle cx="758.3" cy="963.1" r="332.3"/><circle cx="813.7" cy="819.8" r="217.7"/><g fill-rule="nonzero"><path d="M1317 840c-28 0-38-18-67-18-25 0-39 15-39 43h29c0-6 2-11 12-11 17 0 29 15 63 15 36 0 65-23 65-56 0-18-8-33-31-42 18-9 27-24 27-39 0-33-32-54-77-54-41 0-75 21-82 59h35c5-21 23-29 47-29 25 0 41 10 41 27 0 11-8 24-35 24h-27v30h28c32 0 40 11 40 25 0 15-16 26-29 26ZM1520 678c-25 0-48 13-63 33v-29h-33v245h34v-90c15 20 38 32 62 32 49 0 87-40 87-96 0-55-38-95-87-95Zm-6 158c-33 0-57-26-57-63 0-36 24-63 57-63s57 27 57 63c0 37-24 63-57 63ZM1782 682l-61 140-66-140h-41l89 180-5 12c-5 11-12 21-27 21l-24-1v33l27 1c36 0 48-23 56-43l89-203h-37ZM1961 682v80h-53c-22 0-31-9-31-28v-52h-35v53c0 33 21 59 60 59h59v71h35V682h-35ZM2185 682v75h-96v-75h-34v183h34v-75h96v75h34V682h-34ZM2276 608v41h39v-41h-39Zm2 74v183h35V682h-35ZM1416 1158l-80-183h-43l-80 183h38l63-149 63 149h39ZM1527 1162c54 0 96-42 96-95 0-54-42-96-96-96-55 0-98 42-98 96 0 53 43 95 98 95Zm0-32c-35 0-62-28-62-63 0-36 27-63 62-63 34 0 60 27 60 63 0 35-26 63-60 63ZM1830 1126c-30 0-60-49-94-64l96-87h-44l-88 81v-81h-34v183h34v-75h4c30 0 63 75 121 75h10v-32h-5ZM2017 1125c-6 0-9-3-9-10v-70c0-49-36-74-80-74-42 0-75 24-82 59h37c7-19 27-28 43-28 28 0 45 10 45 27 0 9-3 15-39 19l-20 2c-44 5-68 29-68 58 0 32 22 54 63 54 28 0 54-12 69-30 2 17 13 26 30 26h18v-33h-7Zm-107 7c-20 0-31-10-31-24s7-26 37-30l20-2c21-2 32-6 40-12v16c0 28-31 52-66 52ZM2231 1131V975h-35v150h-95V975h-35v183h144c19 0 26 9 26 18s-5 18-24 18c-34 0-58-16-94-16-28 0-41 14-41 41v5h32v-2c0-7 2-12 14-12 19 0 52 14 90 14 44 0 59-25 59-50 0-20-14-38-41-43ZM2295 902v40h39v-40h-39Zm65 0v40h40v-40h-40Zm66 0v40h41v-40h-41Zm-129 73v183h35V975h-35Zm93 0v183h35V975h-35Z"/></g></g><path fill="#613c82" d="M0 1185h2607v413H0z"/><path fill="#fff" fill-rule="nonzero" d="m2445 1409-211 90v-39l167-69-167-68v-39l211 89v36Z"/><path fill="#613c82" d="M3778 1185h387v413h-387z"/><g fill="#fff"><path fill-rule="nonzero" d="M266 1292c-60 0-104 45-104 104 0 58 44 103 104 103s104-45 104-103c0-59-44-104-104-104Zm0 179c-43 0-73-31-73-75 0-45 30-76 73-76s74 31 74 76c0 44-31 75-74 75ZM409 1495h51c12 0 29-1 43-10 17-11 25-31 25-49s-7-34-19-44a75 75 0 0 0-50-16h-20v-52h70v-29H409v200Zm30-90h20c32 0 39 17 39 31 0 31-32 31-40 31h-19v-62ZM677 1295H567v200h110v-28h-80v-66h78v-29h-78v-48h80v-29ZM717 1295v200h30v-81h14c15 0 33-2 49-15 16-15 19-33 19-44 0-19-8-38-24-49a78 78 0 0 0-44-11h-44Zm30 29h14c35 0 39 19 39 30 0 19-13 32-39 32h-14v-62Z"/><path d="M861 1295h30v200h-30z"/><path fill-rule="nonzero" d="M1041 1324v-29H918v29h46v171h31v-171h46ZM1068 1495h53c13 0 30-1 44-10 17-11 25-31 25-49s-7-34-19-44a75 75 0 0 0-50-16h-23v-81h-30v200Zm30-90h22c33 0 40 17 40 31 0 31-32 31-40 31h-22v-62ZM1291 1295v200h46c20 0 37 0 53-14 19-15 21-37 21-47 0-20-12-39-35-46 14-12 17-27 17-37 0-26-14-39-24-45-10-8-22-11-48-11h-30Zm31 29h10c12 0 32 3 32 28 0 29-26 29-33 29h-9v-57Zm0 83h19c32 0 40 16 40 30 0 13-7 30-41 30h-18v-60ZM1588 1495h33l-95-211-100 211h33l22-48h86l21 48Zm-94-77 31-67 29 67h-60ZM1646 1495h233v-200h-30v172h-71v-172h-31v172h-71v-172h-30v200ZM1905 1295l72 141-27 59h32l90-200h-31l-46 104-53-104h-37Z"/></g><path fill="#fff" fill-rule="nonzero" d="M990 942H790l84-99c32-38 56-67 76-96 21-32 38-68 38-112 0-84-58-162-172-162-68 0-106 31-125 52-21 24-43 65-45 118h78c4-51 35-98 95-98 59 0 89 42 89 87 0 31-13 55-28 77-18 26-46 61-64 83l-185 225h359v-75Z"/></svg>