<svg xmlns="http://www.w3.org/2000/svg" xml:space="preserve" fill-rule="evenodd" stroke-linecap="square" stroke-linejoin="round" stroke-miterlimit="1.5" clip-rule="evenodd" viewBox="0 0 4051 1473"><path fill="#fff" fill-opacity=".5" d="M0 1473 1138 0l2913 1473H0Z"/><path fill="#613c82" d="M325 1060h2177v413H325z"/><path fill="none" stroke="#613c82" stroke-width="33.3" d="M2604 517h632v1228h-632z" transform="matrix(1 0 0 1 -102 -289)"/><path fill="none" stroke="#613c82" stroke-width="33.3" d="m3002 1745-5-589 387-289 186 135-7-146 132-3 13 256 59 47 1 591-766-2ZM2706 683h192v192h-192z" transform="matrix(1 0 0 1 -102 -289)"/><path fill="none" stroke="#613c82" stroke-width="33.3" d="M3338 1288h275v275h-275z" transform="matrix(1 0 0 1 -102 -289)"/><path fill="#613c82" d="m2898 1453 2-587 233-174 3 758-238 3Z"/><g fill="#dc3731" transform="matrix(1 0 0 1 -102 -289)"><circle cx="758.3" cy="963.1" r="332.3"/><circle cx="813.7" cy="819.8" r="217.7"/></g><path fill="#fff" fill-rule="nonzero" d="M888 817H688l83-99c32-37 57-67 77-96 21-32 38-68 38-112 0-83-58-161-172-161-68 0-106 30-125 52-21 23-43 65-45 117h78c3-51 35-97 95-97 59 0 89 42 89 87 0 31-13 54-28 77-18 25-46 60-64 83L528 892h360v-75Z"/><text x="223.2" y="325.2" fill="#fff" font-family="&quot;Verdana-Bold&quot;,&quot;Verdana&quot;,sans-serif" font-size="311.8" font-weight="700" transform="matrix(.58 0 0 .8 244 1090)">ВЫБЕРИТЕ ВАШУ</text><text x="576" y="1200.5" fill="#fff" font-family="&quot;ArialMT&quot;,&quot;Arial&quot;,sans-serif" font-size="838.8" transform="matrix(.43 0 0 .43 1973 862)">&gt;</text><text x="911.7" y="403.6" fill="#dc3731" font-family="&quot;Georgia-Bold&quot;,&quot;Georgia&quot;,serif" font-size="416.8" font-weight="700" transform="matrix(.56 0 0 .56 565 438)">удобные</text><text x="911.7" y="820.3" fill="#dc3731" font-family="&quot;Georgia-Bold&quot;,&quot;Georgia&quot;,serif" font-size="416.8" font-weight="700" transform="matrix(.56 0 0 .56 565 438)">локации</text></svg>