<svg xmlns="http://www.w3.org/2000/svg" xml:space="preserve" viewBox="0 0 640 480">
	<g id="Layer_3">
		<path fill="#fff" stroke="#3caa35" stroke-miterlimit="10" stroke-width="12" d="M177 207.8H49.8c-14.7 0-26.7-12-26.7-26.7V79.7C23.1 64.9 35 53 49.8 53H177c14.7 0 26.7 12 26.7 26.7v101.4c0 14.8-11.9 26.7-26.7 26.7z"/>
		<path fill="#fff" stroke="#00aff0" stroke-miterlimit="10" stroke-width="12" d="M384.6 207.8H257.4c-14.7 0-26.7-12-26.7-26.7V79.7c0-14.7 12-26.7 26.7-26.7h127.2c14.7 0 26.7 12 26.7 26.7v101.4c0 14.8-11.9 26.7-26.7 26.7z"/>
		<path fill="#fff" stroke="#D3413B" stroke-miterlimit="10" stroke-width="10" d="M597.6 207.8H470.4c-14.7 0-26.7-12-26.7-26.7V79.7c0-14.7 12-26.7 26.7-26.7h127.2c14.7 0 26.7 12 26.7 26.7v101.4c0 14.8-11.9 26.7-26.7 26.7z"/>
		<path fill="#fff" stroke="#6046be" stroke-miterlimit="10" stroke-width="12" d="M384.6 415.3H257.4c-14.7 0-26.7-12-26.7-26.7V287.2c0-14.7 12-26.7 26.7-26.7h127.2c14.7 0 26.7 12 26.7 26.7v101.4c0 14.8-11.9 26.7-26.7 26.7z"/>
		<path fill="#fff" stroke="#0174FE" stroke-miterlimit="10" stroke-width="12" d="M201.3 287.2v101.4c0 14.7-12 26.7-26.7 26.7H47.4c-14.7 0-26.7-12-26.7-26.7V287.2c0-14.7 12-26.7 26.7-26.7h127.2c14.8 0 26.7 11.9 26.7 26.7z"/>
	</g>
	<g id="Layer_1">
		<g>
			<path fill="#D3413B" d="M513.3 81.9h-15.7c-3.6 0-6.5 1.3-8.6 3.8-2.1 2.3-3.2 4.9-3.2 7.9l.2 1.1c.9 11.4 3.9 22.2 8.8 32.4 4.7 10.1 11.1 19.1 19 26.8 8 8 16.9 14.3 26.8 19 10.2 4.9 21 7.9 32.4 8.9 3.5.3 6.5-.7 9-3 2.5-2.2 3.8-5.1 3.8-8.7v-15.9c0-2.9-1-5.5-3-7.8-1.9-2.1-4.3-3.4-7.3-3.8-3.5-.4-7-1.1-10.3-2.1-4.6-1.3-8.5-.4-11.8 2.9l-6.3 6.4c-12.6-6.9-22.3-16.6-29.2-29.2l6.4-6.4c3.3-3.3 4.3-7.2 2.8-11.7-1-3.5-1.7-7-2-10.4-.3-2.9-1.6-5.4-3.8-7.3-2.3-1.9-5-2.9-8-2.9z" />
		</g>
		<g>
			<path fill="#00aff0" d="M353.5 98.2c-4.3-4.3-9.3-7.7-15-10.2-5.9-2.5-12-3.7-18.4-3.7-3 0-6 .3-9 .8-2-1.1-4.2-1.9-6.4-2.5-2.2-.6-4.4-.8-6.8-.8-3.7 0-7.3.7-10.8 2.1-3.4 1.4-6.4 3.4-9.1 6.1-2.6 2.6-4.6 5.7-6 9.1-1.4 3.4-2.1 7-2.1 10.7 0 2.4.3 4.8.9 7.1.6 2.3 1.4 4.5 2.6 6.5-.5 2.7-.8 5.4-.8 8.2 0 6.4 1.2 12.5 3.8 18.4 2.4 5.7 5.8 10.7 10.1 15.1 4.4 4.4 9.4 7.8 15.1 10.2 5.9 2.5 12 3.7 18.4 3.7 2.7 0 5.5-.2 8.2-.7 2.1 1.2 4.4 2.1 6.7 2.6 2.3.6 4.7 1 7.1 1 3.8 0 7.3-.7 10.7-2.1 3.4-1.4 6.5-3.4 9.1-6.1 2.6-2.6 4.6-5.7 6.1-9.1 1.4-3.4 2.1-7 2.1-10.7 0-2.4-.3-4.8-1-7.1-.6-2.3-1.5-4.5-2.6-6.6.5-2.9.8-5.7.8-8.6 0-6.5-1.2-12.6-3.7-18.4-2.2-5.7-5.6-10.7-10-15m-19 6.3c2.2 1.2 4 2.7 5.3 4.2 1.4 1.7 2.1 3.5 2.1 5.2 0 1.6-.6 2.9-1.8 3.8-1.2.9-2.6 1.3-4.2 1.3-1.3 0-2.5-.4-3.5-1.3-.4-.3-.8-.8-1.4-1.3-.9-1-1.3-1.5-1.4-1.6-1.3-1.3-2.6-2.3-4-2.9-1.9-.9-4.3-1.3-7-1.3-3 0-5.4.6-7.1 1.9-1.7 1.2-2.5 2.9-2.5 4.9 0 1.7 1 3.2 2.9 4.2 1.3.7 3.3 1.3 6.2 2l11.1 2.5c5.5 1.2 9.6 3.4 12.1 6.7 2 2.6 3.1 5.9 3.1 9.7 0 5.4-2 9.7-6 12.9-4.3 3.5-10.2 5.2-18 5.2-7.7 0-13.9-1.6-18.5-4.9-1.9-1.4-3.4-2.9-4.4-4.7-1-1.6-1.4-3.2-1.4-4.9 0-1.6.5-2.9 1.6-3.9 1-1 2.4-1.5 4-1.5s2.9.5 4.1 1.6c.4.4.9.9 1.5 1.6.3.4.8 1.1 1.5 1.9 1.3 1.6 2.7 2.8 4.1 3.6 2 1.1 4.6 1.6 7.6 1.6 3.3 0 5.9-.8 7.9-2.3 1.9-1.5 2.8-3.2 2.8-5.2 0-1.3-.4-2.5-1.2-3.4-.9-1.2-2.4-2-4.5-2.5l-14.9-3.8c-5.5-1.4-9.4-3.6-11.7-6.7-1.7-2.3-2.6-5.3-2.6-9 0-5.9 2.5-10.4 7.4-13.5 4.2-2.7 9.4-4 15.8-4 2.6 0 5.2.3 7.9 1 2.5.8 4.9 1.7 7.1 2.9z"/>
		</g>
		<g>
			<path fill="#6046be" d="M348 289.3h-.1c-16.2-3.1-32.5-3.1-48.6 0h-.1c-5 1.1-9.8 3.9-14.5 8.4-4.7 4.5-7.6 9.1-8.8 14v.1c-3 13.7-3 27.3 0 41v.1c1.1 4.7 3.9 9.2 8.2 13.5 4.3 4.3 8.9 7.2 13.8 8.6v10.9c0 2 .9 3.3 2.8 4 1.8.7 3.4.4 4.8-1l11.1-11.5c2.4.1 4.8.2 7.2.2 8.2 0 16.3-.8 24.3-2.3h.1c5-1.1 9.8-3.9 14.5-8.3 4.7-4.5 7.6-9.2 8.8-14.1v-.1c3-13.7 3-27.3 0-41v-.1c-1.2-4.9-4.1-9.5-8.8-14-4.9-4.5-9.7-7.3-14.7-8.4m-1.9 8.7c3.3.7 6.7 2.7 10.1 6 3.4 3.3 5.5 6.5 6.3 9.7 2.7 12.4 2.7 24.7 0 37-.8 3.2-2.9 6.4-6.3 9.7-3.4 3.3-6.8 5.3-10.1 6-8.6 1.6-17.2 2.3-25.9 2.1-.2 0-.3.1-.5.2l-16.6 17.1c-.3.3-.7.4-1.1.2-.4-.2-.6-.5-.6-1v-18c0-.1-.1-.3-.2-.4s-.2-.2-.3-.2h-.1c-3.3-.7-6.6-2.7-10-6-3.4-3.3-5.5-6.5-6.4-9.7-2.7-12.3-2.7-24.7 0-37 .8-3.2 2.9-6.4 6.4-9.7 3.4-3.3 6.8-5.3 10-6 15.2-2.8 30.3-2.8 45.3 0m-18.2 47.3c-.6.1-1.2 0-1.8-.2-.3-.1-.9-.3-1.6-.6-6.1-2.6-10.5-7.4-13.1-14.5-.4-.9-.3-1.8.2-2.6.2-.3.5-.7 1-1.1.7-.6 1.1-.9 1.4-1 1-.6 1.5-1.5 1.8-2.6.2-1 0-2-.5-3-1.6-2.8-3.7-5.7-6.3-8.8-.5-.7-1.1-1.1-1.8-1.2-.7-.2-1.5-.1-2.2.2-2.1 1-3.8 2.3-5 3.8-2 2.4-2.7 4.6-1.9 6.4.9 2.3 1.5 3.5 1.6 3.8.6 1.4 1.2 2.6 1.7 3.7 2.8 5.7 5.9 10.5 9.4 14.4 3.2 3.6 7 6.8 11.4 9.6 3.8 2.4 8.2 4.7 13.2 6.8.3.2.8.3 1.3.5l1.5.4 1.3-.4c.5-.2 1-.3 1.3-.5 2.6-1.4 4.5-3.5 6-6.5.4-.8.5-1.5.2-2.2-.2-.7-.6-1.4-1.2-1.9-.8-.7-2.2-1.7-4.2-3.1-1.7-1.2-3.2-2.3-4.4-3.1-.8-.5-1.6-.7-2.4-.7-.8 0-1.6.3-2.3.9-.1.1-.8.8-1.9 2.2-1.2.7-2 1.2-2.7 1.3m-2.3-35.5c.8.1 1.5.1 2 .2 4.5.8 8.4 2.9 11.6 6.2 3.2 3.4 5.2 7.3 5.8 11.8.1.9.2 2.6.4 5.2 0 .5.2.9.4 1.2.2.3.6.5 1 .5s.8-.2 1-.5c.3-.3.4-.7.3-1.2-.1-1.5-.2-2.5-.2-3.1-.1-1.2-.2-2.2-.4-3-1.1-5.9-3.9-10.8-8.4-14.5-4.3-3.6-9.4-5.5-15.2-5.8h-1.2c-.5 0-.8.2-1.1.5-.3.3-.4.7-.4 1.1.1.5.4.8.9.9.2.1.7.2 1.4.2.5.1 1.2.2 2.1.3m1.4 10c-.4 0-.7.1-1 .3-.3.2-.5.5-.5.9-.1.4 0 .7.2 1 .2.3.5.5 1 .6.2 0 .6.1 1.1.2.5 0 .9.1 1.1.1.6.2 1.1.5 1.6.8 1 .7 1.7 1.8 2 3.1.1.2.2.9.3 2 .1.9.6 1.4 1.5 1.5h.1c.3 0 .5-.1.7-.2.2-.2.3-.5.4-.8v-1.2c-.2-2.7-1.1-4.7-2.7-6.1-1.4-1.3-3.3-2.1-5.8-2.2m-2.1-3.9c.5.1 1.1.2 2 .3 1.8.3 3.3.7 4.6 1.4 1.2.6 2.2 1.3 3.2 2.2 1 .9 1.8 2 2.5 3.1 1.2 2.1 1.9 4.6 1.9 7.3 0 .5 0 .9.1 1.2.2.6.6.9 1.3.8.7 0 1.1-.4 1.2-.9 0-.1.1-.4.2-.9l-.2-2.9c-.8-5.7-3.8-9.8-8.8-12.4-2.2-1.2-4.9-1.9-7.9-2.1-.4 0-.8.1-1 .4-.2.2-.4.5-.4.9s.1.8.3 1.1c.2.3.5.4 1 .5z"/>
		</g>
		<g>
			<path fill="#09ba27" d="M111.8 74.9c-6.5.3-12.6 1.8-18.5 4.5-5.7 2.7-10.7 6.3-15 10.9-4.3 4.6-7.6 9.7-10 15.5-2.4 6-3.7 12.2-3.7 18.8 0 4 .5 7.9 1.4 11.7.9 3.7 2.2 7.2 4 10.6l-5.2 25.6c-.1.7 0 1.3.5 1.8s1.1.7 1.8.5l25-5.9c3.3 1.6 6.7 2.8 10.2 3.7 3.6.9 7.3 1.4 11.1 1.4 6.6.1 13-1.1 19.2-3.6 5.9-2.4 11.2-5.8 15.8-10.2 4.6-4.4 8.3-9.6 10.9-15.4 2.8-6 4.2-12.3 4.4-18.9.2-7.1-1-13.9-3.7-20.4-2.6-6.3-6.3-11.8-11.1-16.6-4.9-4.8-10.5-8.4-16.8-10.9-6.3-2.4-13.2-3.5-20.3-3.1m-25 22c3.6-3.6 7.8-6.4 12.6-8.4s9.7-3 14.8-3c5.2 0 10.1 1 14.9 3 4.7 1.9 8.9 4.7 12.6 8.4 3.7 3.7 6.5 7.9 8.4 12.6 1.9 4.7 2.9 9.7 2.9 14.9 0 5.1-1 10.1-2.9 14.9-2 4.8-4.8 9-8.4 12.6-3.7 3.7-7.9 6.5-12.6 8.5-4.7 2-9.7 2.9-14.9 2.9-6.1 0-11.9-1.4-17.3-4.1l-3.4-1.8-15.3 3.6 3.2-15.7-1.7-3.3c-2.8-5.5-4.2-11.4-4.2-17.7 0-5.2 1-10.2 2.9-14.9 1.9-4.6 4.7-8.8 8.4-12.5m53.8 40.5c-.4-1.1-1.2-1.9-2.3-2.2l-9.6-2.8c-.6-.2-1.3-.2-1.9 0-.6.2-1.2.5-1.7.9l-2.3 2.4c-.5.5-1.1.9-1.8 1-.7.1-1.4.1-2.1-.1-2.3-.9-5.3-3.1-9.1-6.4-3.8-3.3-6.3-6.1-7.5-8.2-.3-.6-.5-1.2-.4-1.9.1-.7.3-1.3.8-1.9l2.1-2.7c.4-.5.6-1.1.7-1.8.1-.7 0-1.3-.2-1.9l-4.1-9.2c-.5-1.1-1.3-1.8-2.5-2.1-1.1-.3-2.2 0-3.1.8-1.6 1.4-3 2.8-4 4.2-1.3 1.8-2.1 3.6-2.2 5.3-.8 8 3.6 16.5 13.1 25.5 5.8 5.4 11.4 9 16.9 10.8 4.4 1.5 8.6 1.8 12.4.9 1.7-.4 3.4-1.4 5-2.9 1.2-1.2 2.4-2.7 3.6-4.6.6-.9.7-2 .2-3.1z"/>
		</g>
		<g>
			<path fill="#0174FE" d="M113.8 286.1c-6.6-.1-13 1-19.1 3.4-5.9 2.4-11.2 5.8-15.8 10.2-4.6 4.4-8.2 9.5-10.8 15.3-2.7 6-4.1 12.3-4.3 19 0 6.9 1.5 13.5 4.4 19.7 2.9 6.2 7 11.6 12.2 16V384c0 .6.2 1.1.7 1.5.4.4.9.6 1.5.6.4 0 .8-.1 1.1-.3l11.6-7.2c6 2.3 12.2 3.4 18.6 3.4 6.6.1 13-1 19.1-3.5 5.9-2.4 11.2-5.8 15.8-10.2 4.6-4.4 8.2-9.5 10.9-15.3 2.7-6 4.1-12.4 4.2-19-.1-6.6-1.6-13-4.2-19-2.6-5.8-6.2-10.9-10.9-15.3-4.6-4.4-9.9-7.8-15.8-10.2-6.2-2.4-12.6-3.5-19.2-3.4m8.6 45.4 21.7-11.9c.5-.2.9-.3 1.4-.2.5.1.9.4 1.2.8.3.4.5.9.4 1.4 0 .5-.2 1-.6 1.4l-25 25c-.4.4-.9.6-1.4.6-.5 0-1-.1-1.5-.5l-13.5-11.6-21.6 11.8c-.4.2-.8.3-1.3.2-.5-.1-.8-.3-1.2-.6-.4-.4-.7-.9-.7-1.5s.2-1.1.7-1.5l25-25c.4-.4.8-.6 1.3-.6.6 0 1.1.1 1.5.4l13.6 11.8z"/>
		</g>
		<path fill="#fff" d="m191.85 135.313-76.272 51.446 7.829 11.606 76.271-51.445-7.828-11.607ZM22.432 1.108C17.145-.188 12.321.688 8.047 3.572 3.773 6.455 1.22 10.552.373 15.987c-.78 5.387.359 10.346 3.514 15.024l45.28 67.13-20.622-6.187-.476-.11c-2.618-.611-5.074-.684-7.486-.245a20.282 20.282 0 0 0-6.9 2.709l-.068.046a17.734 17.734 0 0 0-5.077 5.261c-1.31 2.073-2.182 4.497-2.578 7.033-.647 4.542.228 8.814 2.745 12.843 2.517 4.028 6.425 7.443 11.774 10.318 6.094 3.236 12.903 6.639 20.526 10.356a8770.72 8770.72 0 0 0 19.317 9.012c11.626 5.34 19.605 9.14 23.94 11.403 3.827 1.956 11.487 6.622 22.999 13.875 1.065.686 2.236 1.084 3.483 1 1.297-.01 2.393-.318 3.427-1.015l66.73-45.01c1.102-.744 1.886-1.812 2.35-3.206.464-1.394.434-2.777-.023-4.198a601.512 601.512 0 0 0-9.58-28.329c-6.395-17.51-11.527-29.283-15.584-35.298l-26.196-38.837c-3.156-4.679-7.377-7.666-12.683-8.84-5.237-1.222-10.062-.345-14.336 2.538-2.206 1.488-3.973 3.328-5.233 5.475-3.326-2.403-6.94-3.747-10.812-3.836-4.04-.192-7.706.768-10.946 2.953-2.413 1.628-4.287 3.756-5.723 6.237-3.163-1.864-6.546-2.715-10.11-2.796-3.634-.034-6.942 1.009-9.907 3.008-1.723 1.163-3.246 2.622-4.43 4.286L35.114 9.947c-3.156-4.677-7.377-7.664-12.683-8.84Zm-8.329 22.186c-1.055-1.564-1.424-3.157-1.14-4.974.284-1.817 1.04-3.085 2.424-4.018 1.384-.934 2.98-1.253 4.703-.789 1.722.464 3.13 1.356 4.184 2.92l35.967 53.322c1.054 1.564 2.512 2.531 4.234 2.995 1.792.417 3.389.098 4.842-.882 1.453-.98 2.416-2.388 2.7-4.205.285-1.817-.135-3.484-1.19-5.048L58.32 44.07c-1.055-1.564-1.424-3.156-1.14-4.974.285-1.817 1.11-3.131 2.493-4.065 1.384-.933 2.912-1.205 4.703-.788 1.792.417 3.13 1.356 4.185 2.92l17.53 25.99c1.056 1.565 2.513 2.532 4.236 2.995 1.791.417 3.388.099 4.841-.882 1.453-.98 2.297-2.415 2.7-4.205.285-1.817-.135-3.484-1.19-5.048L84.17 37.47c-1.055-1.564-1.425-3.156-1.14-4.973.215-1.77 1.109-3.132 2.492-4.066 1.384-.933 2.912-1.205 4.704-.788 1.722.463 3.13 1.356 4.184 2.92l17.531 25.99c1.055 1.565 2.513 2.532 4.304 2.949 1.791.417 3.389.098 4.842-.882 1.453-.98 2.296-2.416 2.7-4.205.285-1.817-.135-3.485-1.19-5.049L111.395 32.76c-1.055-1.564-1.424-3.157-1.14-4.974.266-1.696 1.11-3.132 2.493-4.065 1.384-.933 2.912-1.205 4.703-.788 1.722.463 3.18 1.43 4.185 2.92L147.907 64.8c2.813 4.17 6.622 12.653 11.446 25.327 3.507 9.229 7.019 19.212 10.487 29.876l-59.852 40.37c-10.092-6.304-16.878-10.395-20.309-12.198-4.807-2.5-12.983-6.412-24.716-11.718a1605.838 1605.838 0 0 1-19.092-8.901c-7.478-3.624-14.14-6.933-20.015-10.121-5.146-2.705-7.482-5.572-7.046-8.358.265-1.696 1.09-3.01 2.474-3.944 1.384-.933 2.911-1.206 4.533-.89l37.46 11.356c1.294.427 2.596.416 3.904-.033 1.308-.449 2.295-1.223 3.082-2.296.787-1.072 1.046-2.33 1.015-3.718-.03-1.389-.387-2.664-1.19-3.856L14.38 23.107l-.277.187Z" transform="translate(436.631192, 228.207331)" fill-rule="nonzero"/>
	</g>
</svg>