<svg version="1.1" xmlns="http://www.w3.org/2000/svg" x="0" y="0" viewBox="0 0 294 138" style="enable-background:new 0 0 294 138" xml:space="preserve"><<g style="enable-background:new 0 0 294 138"><path fill="#693786" d="M79.9 113.9c5.4.3 13.4.7 20.9 1 17.7.7 40.1 1.2 60.2.8 28.2.1 61.7-2.7 66.5-3 57.3-2.1 66-21.9 66.2-53.6.1-20.3-3.1-30-7.8-36-5.4-7.5-12.1-14-48.7-18.6C214.7 1.8 192.1.9 170.8.4c-26.8-.7-51.6-.4-71.7.7C68.6 2.8 31.6 6.4 23.4 11 13.1 15.5 8.9 21.6 8.6 22.2 3.4 29.3.2 39.8.4 56.6c.1 5.1.2 10.9 1 17.3 3.2 26.1 22.1 31.9 28.7 33.8 15.8 5 44.4 5.9 49.8 6.2"/><path d="M35.9 100.2C29.6 98.5 12 94.1 9 71.8c-.8-5.4-1-10.3-1.1-14.7-.2-14.4 2.7-23.3 7.6-29.3.3-.5 4.3-5.7 14.1-9.6 7.9-3.9 43.2-7 72.3-8.5 19.2-1 42.9-1.2 68.5-.6 20.4.4 41.9 1.2 63.4 3.4 34.9 3.9 41.3 9.4 46.5 15.9 2.8 4.1 4.4 9.3 5.9 17.8.8 7 .6 14-.3 21.2-2.7 22.1-8.1 33.3-61.2 37.5-4.6.3-9.6.9-14.9 1 0 0-22.1 1.2-48.6 1.6-19.2.3-40.6-.1-57.5-.7-7.1-.3-15.8-.9-15.8-.9s-14.5 19-19.2 24c-4.1 4-7.5 6.7-12.3 4.8-3.8-1.9-3.7-5.7-3.8-9.8-.1-3.5-.7-21.8-.7-21.8l-16-2.9z" style="fill:#fff;stroke:#693786;stroke-width:5;stroke-miterlimit:10"/><path fill="#693786" d="M62.9 72.1s1.8.2 2.7-1l1.9-2.4c.9-1.2 3.1-1.9 5.2-.7 1.2.7 3.3 2 4.7 3 1.4 1 4.3 3.5 4.3 3.5 1.4 1.2 1.7 2.9.8 4.7-1 1.7-2.3 3.3-3.9 4.8-1.3 1.1-2.7 1.8-4 1.9H74c-.6 0-1.1-.1-1.7-.3v-.1c-2-.6-5.3-2-10.9-5-3.6-2-6.6-4-9.1-6-1.3-1.1-2.7-2.3-4.1-3.6l-.1-.1-.1-.1c-.1 0-.1-.1-.1-.1l-.1-.1c-1.4-1.4-2.6-2.8-3.6-4.1-2-2.5-4-5.5-6-9.1-3.1-5.5-4.5-8.9-5-10.9h-.1c-.2-.6-.3-1.1-.3-1.7v-.6c.2-1.3.8-2.6 1.9-4 1.5-1.6 3.1-2.9 4.8-3.9 1.8-.9 3.5-.6 4.7.8 0 0 2.4 2.9 3.5 4.3 1 1.3 2.3 3.5 3 4.7 1.2 2.1.4 4.3-.7 5.2l-2.4 1.9c-1.2 1-1 2.7-1 2.7s3.3 13 16.3 16.3"/><path fill="#693786" d="M83.4 61.2c-.7 0-1.3-.6-1.3-1.3-.1-7.8-2.3-13.7-6.8-18.1s-10.1-6.6-16.8-6.6c-.7 0-1.3-.6-1.3-1.3s.6-1.3 1.3-1.3c7.4.1 13.6 2.5 18.6 7.4s7.5 11.6 7.6 19.9c0 .7-.6 1.3-1.3 1.3z"/><path fill="#693786" d="M76.7 58.6c-.7 0-1.3-.6-1.3-1.3.1-4.3-1.1-7.8-3.8-10.7-2.6-2.9-6.2-4.4-11.1-4.8-.7-.1-1.2-.7-1.2-1.4.1-.7.7-1.2 1.4-1.2 5.4.4 9.7 2.3 12.7 5.6 3.1 3.3 4.6 7.5 4.4 12.5.2.8-.4 1.3-1.1 1.3"/><path fill="#693786" d="M70.2 56.4c-.7 0-1.2-.5-1.3-1.2-.2-4.3-2.2-6.4-6.4-6.6-.7 0-1.2-.6-1.2-1.3s.6-1.2 1.3-1.2c5.5.3 8.5 3.4 8.8 9 .1.7-.4 1.3-1.2 1.3.1 0 .1 0 0 0"/><path fill="#693786" d="M138.7 38.4c0-1.7.6-3.1 1.8-4.3 1.2-1.2 2.6-1.8 4.3-1.8 1.7 0 3.1.6 4.3 1.8s1.8 2.6 1.8 4.3-.6 3.1-1.8 4.3c-1.2 1.2-2.6 1.8-4.3 1.8-1.7 0-3.2-.6-4.4-1.8-1.1-1.2-1.7-2.6-1.7-4.3"/><path fill="#693786" d="M237 77.5V54.1c0-2.9.5-5 1.4-6.4 1-1.4 2.4-2.1 4.4-2.1 1.2 0 2.2.3 3.1.9.9.6 1.7 1.5 2.4 2.8 1.2-1.3 2.5-2.3 3.8-2.9 1.3-.7 2.7-1 4.1-1 1.6 0 3 .6 4.2 1.7s1.7 2.5 1.7 4c0 2.3-2.1 4.3-6.4 5.8-1.5.6-2.7 1-3.5 1.4-1.5.7-2.4 1.5-2.9 2.3-.5.9-.7 2.4-.7 4.6v12.1c0 2.9-.5 5-1.4 6.4-1 1.4-2.4 2.1-4.4 2.1s-3.4-.7-4.4-2.1c-.9-1.3-1.4-3.4-1.4-6.2"/><path fill="#693786" d="M206.6 68.9c.3 2.2 1.8 3.9 3.4 5.1 1.5 1.2 3.6 1.8 6.1 1.8 2.2 0 4.6-.6 7.3-1.9 2.7-1.3 4.3-1.9 5-1.9 1.4 0 2.5.4 3.3 1.3.9.8 1.3 1.9 1.3 3.2 0 2.5-1.7 4.7-5.2 6.7s-7.6 3-12.3 3c-5.7 0-10.5-2-14.4-5.9-3.8-3.9-5.8-8.8-5.8-14.7 0-5.9 1.9-10.8 5.6-14.8 3.7-3.9 8.4-5.9 13.9-5.9 5.4 0 9.9 1.9 13.5 5.6 3.6 3.7 5.4 8.2 5.4 13.6 0 1.7-.4 3-1.2 3.7-.8.7-2.3 1-4.6 1h-21.3v.1zm-.5-6.8h17.1c-.2-2.2-1-4.4-2.6-5.8-1.6-1.4-3.5-2.2-5.7-2.2s-4.2.7-5.8 2.1c-1.5 1.4-2.5 3.6-3 5.9"/><path fill="#693786" d="M166.5 48.4c1.3-1.1 2.7-1.9 4.2-2.5s3.2-.8 5-.8c5 0 9.2 2 12.7 6 3.4 4 5.2 8.9 5.2 14.9 0 5.6-1.8 10.4-5.3 14.4s-7.7 6-12.6 6c-1.9 0-3.7-.3-5.3-1-1.6-.7-3-1.7-4.1-3-.7 1.2-1.5 2.2-2.5 2.8s-2 .9-3.1.9c-2 0-3.4-.7-4.4-2.1-.9-1.4-1.4-3.5-1.4-6.4V40.8c0-2.9.5-5 1.4-6.4s2.4-2.1 4.4-2.1 3.4.7 4.4 2.1c1 1.4 1.4 3.5 1.4 6.4v7.6zm-.8 17.4c0 3.2.8 5.7 2.3 7.7 1.6 1.9 3.6 2.9 6 2.9s4.4-1 6-2.9c1.6-2 2.4-4.5 2.4-7.6 0-3.2-.8-5.8-2.3-7.7-1.6-2-3.6-3-6-3-2.5 0-4.5 1-6 3-1.7 1.8-2.4 4.3-2.4 7.6"/><path fill="#693786" d="M150 78c0 2.7-.4 4.7-1.3 6s-2.2 1.9-4.1 1.9-3.2-.7-4.1-2-1.4-3.3-1.4-6V56.1c0-2.7.5-4.7 1.3-6 .9-1.3 2.3-1.9 4.2-1.9 1.8 0 3.2.7 4.1 1.9.9 1.3 1.3 3.3 1.3 6V78z"/><path fill="#693786" d="m107.9 81.5-16-39.8c-.2-.5-.4-1-.5-1.6s-.2-1.2-.2-1.8c0-1.7.6-3.1 1.8-4.2 1.2-1.1 2.7-1.7 4.4-1.7 1.3 0 2.4.4 3.2 1.2.8.8 1.6 2.1 2.3 3.9l10.8 29.3 10.5-28.9c.7-2.1 1.5-3.5 2.4-4.3s2.1-1.2 3.5-1.2c1.8 0 3.2.5 4.2 1.5s1.5 2.3 1.5 4c0 .7-.1 1.4-.2 2.1-.1.7-.3 1.4-.6 2.1l-15.5 39.1c-.7 1.8-1.5 3-2.4 3.8s-2.1 1.1-3.6 1.1c-1.4 0-2.5-.3-3.4-1-.8-.9-1.5-2-2.2-3.6"/><path fill="#693786" d="M245.8 129H103.1c-4.2 0-7.6-3.4-7.6-7.6v-19.7c0-4.2 3.4-7.6 7.6-7.6h142.7c4.2 0 7.6 3.4 7.6 7.6v19.7c.1 4.2-3.4 7.6-7.6 7.6z"/><text transform="translate(109.556 121.979)" style="font-size:25px;font-family:&apos;TrebuchetMS-BoldV, erdana, Geneva, Tahoma, sans-serif&apos;;fill:#fff">&#x41D;&#x410;&#x41F;&#x418;&#x421;&#x410;&#x422;&#x42C;</text></g></svg>