<svg version="1.1" xmlns="http://www.w3.org/2000/svg" x="0" y="0" viewBox="0 0 154 138" style="enable-background:new 0 0 154 138" xml:space="preserve">g style="enable-background:new 0 0 154 138"><circle cx="76" cy="55" r="50" style="fill:#fff;stroke:#dd2033;stroke-width:10;stroke-miterlimit:10"/><path fill="#dd2033" d="M78.4 68.4s1.8.2 2.7-1L83 65c.9-1.2 3.1-1.9 5.2-.7 1.2.7 3.3 2 4.7 3 1.4 1 4.3 3.5 4.3 3.5 1.4 1.2 1.7 2.9.8 4.7-1 1.7-2.3 3.3-3.9 4.8-1.3 1.1-2.7 1.8-4 1.9h-.6c-.6 0-1.1-.1-1.7-.3v-.1c-2-.6-5.3-2-10.9-5-3.6-2-6.6-4-9.1-6-1.3-1.1-2.7-2.3-4.1-3.6l-.1-.1-.1-.1c-.1 0-.1-.1-.1-.1l-.1-.1c-1.4-1.4-2.6-2.8-3.6-4.1-2-2.5-4-5.5-6-9.1-3.1-5.5-4.5-8.9-5-10.9h-.1c-.2-.6-.3-1.1-.3-1.7v-.6c.2-1.3.8-2.6 1.9-4 1.5-1.6 3.1-2.9 4.8-3.9 1.8-.9 3.5-.6 4.7.8 0 0 2.4 2.9 3.5 4.3 1 1.3 2.3 3.5 3 4.7 1.2 2.1.4 4.3-.7 5.2l-2.4 1.9c-1.2 1-1 2.7-1 2.7s3.3 13 16.3 16.3"/><path fill="#dd2033" d="M98.9 57.5c-.7 0-1.3-.6-1.3-1.3-.1-7.8-2.3-13.7-6.8-18.1S80.7 31.5 74 31.5c-.7 0-1.3-.6-1.3-1.3 0-.7.6-1.3 1.3-1.3 7.4.1 13.6 2.5 18.6 7.4s7.5 11.6 7.6 19.9c0 .7-.6 1.3-1.3 1.3z"/><path fill="#dd2033" d="M92.3 54.9c-.7 0-1.3-.6-1.3-1.3.1-4.3-1.1-7.8-3.8-10.7-2.6-2.9-6.2-4.4-11.1-4.8-.7-.1-1.2-.7-1.2-1.4.1-.7.7-1.2 1.4-1.2 5.4.4 9.7 2.3 12.7 5.6 3.1 3.3 4.6 7.5 4.4 12.5.1.8-.4 1.3-1.1 1.3"/><path fill="#dd2033" d="M85.8 52.7c-.7 0-1.2-.5-1.3-1.2-.2-4.3-2.2-6.4-6.4-6.6-.7 0-1.2-.6-1.2-1.3s.6-1.2 1.3-1.2c5.5.3 8.5 3.4 8.8 9 .1.7-.5 1.3-1.2 1.3"/><path fill="#dd2033" d="M146.3 129.3H7.6c-4.2 0-7.6-3.4-7.6-7.6V102c0-4.2 3.4-7.6 7.6-7.6h138.7c4.2 0 7.6 3.4 7.6 7.6v19.7c.1 4.2-3.4 7.6-7.6 7.6z"/><text transform="translate(10.135 120.302)" style="font-size:23px;font-family:&apos;TrebuchetMS-BoldV, erdana, Geneva, Tahoma, sans-serif&apos;;fill:#fff">&#x41F;&#x41E;&#x417;&#x412;&#x41E;&#x41D;&#x418;&#x422;&#x42C;</text></g></svg>