<svg width="24" height="24" viewBox="0 0 24 24" fill="none" xmlns="http://www.w3.org/2000/svg">
<path fill-rule="evenodd" clip-rule="evenodd" d="M12.0004 0C12.6632 0 13.2004 0.537258 13.2004 1.2V7.97905C13.2004 8.64179 12.6632 9.17905 12.0004 9.17905C11.3377 9.17905 10.8004 8.64179 10.8004 7.97905V1.2C10.8004 0.537258 11.3377 0 12.0004 0ZM23.9411 8.70424C24.1459 9.33454 23.801 10.0115 23.1707 10.2163L16.7234 12.3112C16.0931 12.516 15.4161 12.171 15.2113 11.5407C15.0065 10.9104 15.3515 10.2334 15.9818 10.0286L22.429 7.93379C23.0593 7.72899 23.7363 8.07393 23.9411 8.70424ZM0.0585679 8.70431C0.263366 8.07401 0.940351 7.72907 1.57066 7.93386L8.01791 10.0287C8.64822 10.2335 8.99316 10.9105 8.78836 11.5408C8.58356 12.1711 7.90658 12.516 7.27627 12.3112L0.829015 10.2164C0.198711 10.0116 -0.146231 9.33462 0.0585679 8.70431ZM14.0313 15.3532C14.5675 14.9637 15.3179 15.0825 15.7075 15.6187L19.6921 21.1031C20.0817 21.6392 19.9628 22.3897 19.4266 22.7792C18.8905 23.1688 18.14 23.0499 17.7505 22.5138L13.7659 17.0294C13.3763 16.4932 13.4952 15.7428 14.0313 15.3532ZM9.96949 15.3532C10.5057 15.7428 10.6245 16.4932 10.235 17.0294L6.25035 22.5138C5.8608 23.0499 5.11035 23.1688 4.57419 22.7792C4.03802 22.3897 3.91916 21.6392 4.30871 21.1031L8.29333 15.6187C8.68288 15.0825 9.43332 14.9637 9.96949 15.3532Z" fill="#0087E6"/>
</svg>