<?xml version="1.0" encoding="UTF-8" standalone="no"?><!DOCTYPE svg PUBLIC "-//W3C//DTD SVG 1.1//EN" "http://www.w3.org/Graphics/SVG/1.1/DTD/svg11.dtd"><svg width="100%" height="100%" viewBox="0 0 4167 2084" version="1.1" xmlns="http://www.w3.org/2000/svg" xmlns:xlink="http://www.w3.org/1999/xlink" xml:space="preserve" xmlns:serif="http://www.serif.com/" style="fill-rule:evenodd;clip-rule:evenodd;stroke-linecap:square;stroke-linejoin:round;stroke-miterlimit:1.5;"><g id="des"><path d="M102.116,1762.35l1138.28,-1472.96l2912.95,1473.17l-4051.23,-0.218Z" style="fill:#fff;fill-opacity:0.52;"/><rect x="427.306" y="1350.3" width="2176.84" height="412.454" style="fill:#613c82;"/><g><path d="M746.505,1453.2c-54.994,0 -95.414,41.245 -95.414,95.139c-0,53.894 40.42,95.14 95.414,95.14c54.994,-0 95.414,-41.246 95.414,-95.14c0,-53.894 -40.42,-95.139 -95.414,-95.139Zm0,164.432c-39.32,-0 -67.367,-28.597 -67.367,-69.293c-0,-40.695 28.047,-69.292 67.367,-69.292c39.321,0 67.368,28.597 67.368,69.292c-0,40.696 -28.047,69.293 -67.368,69.293Z" style="fill:#fff;fill-rule:nonzero;"/><path d="M877.115,1639.9l46.47,0c11.274,0 26.947,-1.1 40.146,-9.899c15.398,-10.174 22.822,-27.772 22.822,-44.545c0,-16.773 -6.874,-31.346 -17.323,-40.42c-14.023,-12.374 -32.721,-14.574 -45.92,-14.574l-18.148,0l0,-47.569l63.793,-0l0,-26.397l-91.84,-0l0,183.404Zm28.047,-83.041l17.598,0c29.697,0 36.296,15.674 36.296,28.872c0,27.772 -29.421,27.772 -36.846,27.772l-17.048,0l0,-56.644Z" style="fill:#fff;fill-rule:nonzero;"/><path d="M1122.94,1456.5l-101.189,-0l0,183.404l101.189,0l-0,-26.397l-73.142,0l0,-60.493l70.942,-0l0,-26.397l-70.942,-0l0,-43.72l73.142,-0l-0,-26.397Z" style="fill:#fff;fill-rule:nonzero;"/><path d="M1159.23,1456.5l-0,183.404l28.047,0l-0,-74.517l12.648,0c13.474,0 30.247,-1.924 44.82,-14.298c15.123,-12.924 17.873,-29.422 17.873,-40.145c0,-16.774 -7.424,-34.372 -22.822,-44.545c-13.199,-8.799 -28.872,-9.899 -40.146,-9.899l-40.42,-0Zm28.047,25.847l12.373,-0c31.897,-0 36.021,18.148 36.021,28.322c0,17.048 -11.549,28.871 -35.746,28.871l-12.648,0l-0,-57.193Z" style="fill:#fff;fill-rule:nonzero;"/><rect x="1291.22" y="1456.5" width="28.047" height="183.404" style="fill:#fff;fill-rule:nonzero;"/><path d="M1456.2,1482.89l0,-26.397l-112.187,-0l-0,26.397l42.07,-0l0,157.007l28.047,0l0,-157.007l42.07,-0Z" style="fill:#fff;fill-rule:nonzero;"/><path d="M1480.95,1639.9l49.219,0c11.274,0 26.947,-1.1 40.146,-9.899c15.398,-10.174 22.822,-27.772 22.822,-44.545c-0,-16.773 -6.874,-31.346 -17.323,-40.42c-14.024,-12.374 -32.721,-14.574 -45.92,-14.574l-20.898,0l0,-73.966l-28.046,-0l-0,183.404Zm28.046,-83.041l20.348,0c29.697,0 36.296,15.674 36.296,28.872c0,27.772 -29.422,27.772 -36.846,27.772l-19.798,0l0,-56.644Z" style="fill:#fff;fill-rule:nonzero;"/><path d="M1685.8,1456.5l-0,183.404l42.07,0c18.698,0 33.821,-0.55 48.944,-12.923c17.323,-14.024 18.423,-34.372 18.423,-43.171c0,-18.698 -10.999,-36.296 -31.896,-42.62c13.198,-10.449 15.398,-24.197 15.398,-33.546c0,-23.922 -12.649,-35.746 -21.173,-41.52c-9.898,-6.875 -20.347,-9.624 -43.995,-9.624l-27.771,-0Zm28.046,26.397l9.624,-0c10.999,-0 28.872,2.749 28.872,25.572c0,26.672 -23.372,26.947 -29.972,26.947l-8.524,-0l0,-52.519Zm0,75.616l17.598,0c29.697,0 36.296,14.849 36.296,27.772c0,11.549 -5.774,27.222 -36.846,27.222l-17.048,0l0,-54.994Z" style="fill:#fff;fill-rule:nonzero;"/><path d="M1957.47,1639.9l30.247,0l-86.891,-194.128l-91.289,194.128l30.246,0l20.073,-44.27l78.366,0l19.248,44.27Zm-86.065,-70.667l28.321,-62.143l27.222,62.143l-55.543,0Z" style="fill:#fff;fill-rule:nonzero;"/><path d="M2010.81,1639.9l213.926,0l-0,-183.404l-28.047,-0l0,157.007l-64.893,0l0,-157.007l-28.046,-0l-0,157.007l-64.893,0l-0,-157.007l-28.047,-0l-0,183.404Z" style="fill:#fff;fill-rule:nonzero;"/><path d="M2248.39,1456.5l66.268,128.685l-24.747,54.719l29.146,0l82.766,-183.404l-29.147,-0l-42.07,95.139l-48.12,-95.139l-34.096,-0Z" style="fill:#fff;fill-rule:nonzero;"/></g></g><g id="houses"><rect x="2603.78" y="516.862" width="632.429" height="1228.19" style="fill:none;stroke:#613c82;stroke-width:33.33px;"/><path d="M3001.83,1744.93l-5.244,-588.458l387.357,-289.768l186.142,135.575l-6.672,-146.763l131.231,-2.47l13.094,255.631l58.787,47.095l1.762,590.842l-766.457,-1.684Z" style="fill:none;stroke:#613c82;stroke-width:33.33px;"/><rect x="2705.54" y="682.579" width="192.478" height="192.687" style="fill:none;stroke:#613c82;stroke-width:33.33px;"/><rect x="3337.97" y="1287.51" width="274.969" height="274.969" style="fill:none;stroke:#613c82;stroke-width:33.33px;"/><path d="M3000.66,1742.34l1.428,-586.291l233.03,-174.736l3.506,758.054l-237.964,2.973Z" style="fill:#613c82;"/></g><g id="red"><circle cx="758.308" cy="963.093" r="332.254" style="fill:#dc3731;"/><circle cx="813.652" cy="819.75" r="217.684" style="fill:#dc3731;"/><g><path d="M1316.85,839.658c-27.863,0 -38.129,-17.598 -67.092,-17.598c-24.931,0 -38.496,15.032 -38.496,42.896l28.597,-0c-0,-5.867 1.833,-11.366 11.732,-11.366c17.598,0 29.696,15.032 63.059,15.032c35.93,-0 64.893,-22.731 64.893,-56.094c0,-17.231 -7.699,-32.263 -30.43,-41.429c17.965,-8.799 26.397,-23.83 26.397,-39.229c0,-32.629 -31.163,-53.893 -76.991,-53.893c-40.329,-0 -74.792,21.264 -81.391,58.66l34.463,-0c5.133,-20.898 23.464,-28.964 46.928,-28.964c25.664,0 41.795,10.266 41.795,27.13c0,11.366 -8.066,23.831 -35.563,23.831l-26.763,0l-0,30.063l28.23,0c31.896,0 39.596,11.732 39.596,25.664c-0,14.665 -16.132,25.297 -28.964,25.297Z" style="fill:#dc3731;fill-rule:nonzero;"/><path d="M1520.32,677.977c-25.664,-0 -48.394,12.831 -63.793,33.362l0,-29.696l-32.996,-0l0,245.639l34.83,-0l-0,-89.823c15.031,19.431 37.395,31.163 61.959,31.163c48.761,-0 86.524,-39.596 86.524,-95.323c-0,-55.727 -37.763,-95.322 -86.524,-95.322Zm-5.866,158.382c-32.996,-0 -57.193,-26.397 -57.193,-63.06c-0,-36.662 24.197,-63.059 57.193,-63.059c32.63,-0 56.461,26.397 56.461,63.059c-0,36.663 -23.831,63.06 -56.461,63.06Z" style="fill:#dc3731;fill-rule:nonzero;"/><path d="M1782.1,681.643l-61.593,140.784l-65.626,-140.784l-40.696,-0l89.09,180.013l-5.499,12.832c-4.766,10.999 -11.365,20.531 -26.397,20.531c-10.632,-0 -14.298,-0 -24.564,-0.733l0,32.996c4.766,0.366 15.398,0.733 26.764,0.733c35.929,0 48.761,-23.097 56.093,-42.528l89.09,-203.844l-36.662,-0Z" style="fill:#dc3731;fill-rule:nonzero;"/><path d="M1961.01,681.643l0,80.657l-53.161,0c-21.631,0 -31.163,-9.532 -31.163,-28.23l0,-52.427l-34.829,-0l-0,53.527c-0,32.996 21.631,58.66 60.493,58.66l58.66,0l0,71.126l34.829,-0l0,-183.313l-34.829,-0Z" style="fill:#dc3731;fill-rule:nonzero;"/><path d="M2184.65,681.643l-0,75.158l-95.323,-0l-0,-75.158l-34.829,-0l-0,183.313l34.829,-0l-0,-75.159l95.323,0l-0,75.159l34.829,-0l-0,-183.313l-34.829,-0Z" style="fill:#dc3731;fill-rule:nonzero;"/><path d="M2276.31,608.318l-0,40.328l38.862,0l0,-40.328l-38.862,-0Zm1.833,73.325l0,183.313l34.829,-0l0,-183.313l-34.829,-0Z" style="fill:#dc3731;fill-rule:nonzero;"/><path d="M1416.2,1158.26l-79.925,-183.313l-43.262,0l-79.924,183.313l37.763,-0l63.426,-148.85l63.059,148.85l38.863,-0Z" style="fill:#dc3731;fill-rule:nonzero;"/><path d="M1526.56,1161.92c54.627,0 96.789,-41.429 96.789,-95.323c-0,-53.893 -42.162,-95.322 -96.789,-95.322c-54.994,-0 -97.522,41.429 -97.522,95.322c-0,53.894 42.528,95.323 97.522,95.323Zm-0,-32.263c-34.83,0 -61.593,-27.497 -61.593,-63.06c-0,-35.562 26.763,-63.059 61.593,-63.059c34.463,-0 60.86,27.497 60.86,63.059c-0,35.563 -26.397,63.06 -60.86,63.06Z" style="fill:#dc3731;fill-rule:nonzero;"/><path d="M1829.76,1125.63c-29.697,0 -60.126,-48.394 -94.223,-63.426l96.056,-87.257l-43.628,0l-87.624,81.024l0,-81.024l-34.829,0l-0,183.313l34.829,-0l0,-75.158l3.667,-0c29.696,-0 63.426,75.158 121.353,75.158l9.898,-0l0,-32.63l-5.499,0Z" style="fill:#dc3731;fill-rule:nonzero;"/><path d="M2017.1,1125.26c-5.866,-0 -9.533,-3.667 -9.533,-9.899l0,-70.392c0,-49.128 -35.562,-73.692 -79.557,-73.692c-42.162,-0 -75.158,24.197 -82.124,58.293l37.029,0c6.599,-18.698 26.763,-27.497 43.262,-27.497c27.863,0 44.728,10.266 44.728,26.764c-0,9.166 -2.933,15.398 -38.862,19.431l-20.531,2.2c-43.995,4.766 -67.093,28.597 -67.093,57.56c0,31.897 21.631,53.894 62.326,53.894c27.864,0 53.894,-12.099 69.293,-30.063c1.833,16.865 12.465,26.397 30.43,26.397l17.598,-0l-0,-32.996l-6.966,-0Zm-106.688,6.599c-20.165,-0 -31.53,-9.899 -31.53,-24.197c-0,-13.566 6.966,-26.031 36.662,-29.33l20.531,-2.2c20.532,-2.2 31.897,-6.6 39.596,-12.466l0,16.499c0,27.863 -30.43,51.694 -65.259,51.694Z" style="fill:#dc3731;fill-rule:nonzero;"/><path d="M2230.84,1131.13l0,-156.183l-34.829,0l-0,150.317l-95.323,-0l0,-150.317l-34.829,0l-0,183.313l143.717,-0c19.431,-0 26.764,8.799 26.764,17.598c-0,9.166 -5.5,18.331 -24.198,18.331c-34.096,0 -57.926,-16.498 -93.856,-16.498c-28.23,0 -41.428,14.665 -41.428,41.795l-0,4.766l32.629,0l0,-2.566c0,-6.233 1.1,-11.732 13.565,-11.732c19.432,0 51.695,14.298 89.457,14.298c44.728,0 59.393,-25.663 59.393,-50.227c0,-19.798 -14.298,-38.129 -41.062,-42.895Z" style="fill:#dc3731;fill-rule:nonzero;"/><path d="M2295,901.618l-0,40.329l38.862,-0l0,-40.329l-38.862,0Zm64.893,0l-0,40.329l40.328,-0l0,-40.329l-40.328,0Zm66.359,0l-0,40.329l40.329,-0l-0,-40.329l-40.329,0Zm-129.419,73.325l-0,183.313l34.829,-0l0,-183.313l-34.829,0Zm93.489,0l0,183.313l34.83,-0l-0,-183.313l-34.83,0Z" style="fill:#dc3731;fill-rule:nonzero;"/></g></g><path d="M989.816,1106.67l-199.697,-0l83.408,-98.645c32.08,-37.694 56.941,-67.368 76.189,-96.239c21.654,-32.08 38.496,-68.17 38.496,-112.279c-0,-83.408 -58.546,-161.201 -172.429,-161.201c-67.367,-0 -105.863,30.476 -125.111,52.129c-20.851,23.258 -42.505,64.962 -44.911,117.091l78.595,0c3.208,-50.525 34.486,-97.041 94.635,-97.041c59.348,0 89.021,41.704 89.021,86.616c0,31.277 -12.831,54.535 -28.069,76.991c-17.644,25.664 -45.714,60.951 -64.16,83.407l-185.26,224.558l359.293,0l-0,-75.387Z" style="fill:#fff;fill-rule:nonzero;"/></svg>