<?xml version="1.0" encoding="UTF-8" standalone="no"?><!DOCTYPE svg PUBLIC "-//W3C//DTD SVG 1.1//EN" "http://www.w3.org/Graphics/SVG/1.1/DTD/svg11.dtd"><svg width="100%" height="100%" viewBox="0 0 4167 2084" version="1.1" xmlns="http://www.w3.org/2000/svg" xmlns:xlink="http://www.w3.org/1999/xlink" xml:space="preserve" xmlns:serif="http://www.serif.com/" style="fill-rule:evenodd;clip-rule:evenodd;stroke-linecap:square;stroke-linejoin:round;stroke-miterlimit:1.5;"><g id="houses"><rect x="2603.78" y="516.862" width="632.429" height="1228.19" style="fill:none;stroke:#613c82;stroke-width:33.33px;"/><path d="M3001.83,1744.93l-5.244,-588.458l387.357,-289.768l186.142,135.575l-6.672,-146.763l131.231,-2.47l13.094,255.631l58.787,47.095l1.762,590.842l-766.457,-1.684Z" style="fill:none;stroke:#613c82;stroke-width:33.33px;"/><rect x="2705.54" y="682.579" width="192.478" height="192.687" style="fill:none;stroke:#613c82;stroke-width:33.33px;"/><rect x="3337.97" y="1287.51" width="274.969" height="274.969" style="fill:none;stroke:#613c82;stroke-width:33.33px;"/><path d="M3000.66,1742.34l1.428,-586.291l233.03,-174.736l3.506,758.054l-237.964,2.973Z" style="fill:#613c82;"/></g><g id="red"><circle cx="758.308" cy="963.093" r="332.254" style="fill:#dc3731;"/><circle cx="813.652" cy="819.75" r="217.684" style="fill:#dc3731;"/><g><path d="M1316.85,839.658c-27.863,0 -38.129,-17.598 -67.092,-17.598c-24.931,0 -38.496,15.032 -38.496,42.896l28.597,-0c-0,-5.867 1.833,-11.366 11.732,-11.366c17.598,0 29.696,15.032 63.059,15.032c35.93,-0 64.893,-22.731 64.893,-56.094c0,-17.231 -7.699,-32.263 -30.43,-41.429c17.965,-8.799 26.397,-23.83 26.397,-39.229c0,-32.629 -31.163,-53.893 -76.991,-53.893c-40.329,-0 -74.792,21.264 -81.391,58.66l34.463,-0c5.133,-20.898 23.464,-28.964 46.928,-28.964c25.664,0 41.795,10.266 41.795,27.13c0,11.366 -8.066,23.831 -35.563,23.831l-26.763,0l-0,30.063l28.23,0c31.896,0 39.596,11.732 39.596,25.664c-0,14.665 -16.132,25.297 -28.964,25.297Z" style="fill:#dc3731;fill-rule:nonzero;"/><path d="M1520.32,677.977c-25.664,-0 -48.394,12.831 -63.793,33.362l0,-29.696l-32.996,-0l0,245.639l34.83,-0l-0,-89.823c15.031,19.431 37.395,31.163 61.959,31.163c48.761,-0 86.524,-39.596 86.524,-95.323c-0,-55.727 -37.763,-95.322 -86.524,-95.322Zm-5.866,158.382c-32.996,-0 -57.193,-26.397 -57.193,-63.06c-0,-36.662 24.197,-63.059 57.193,-63.059c32.63,-0 56.461,26.397 56.461,63.059c-0,36.663 -23.831,63.06 -56.461,63.06Z" style="fill:#dc3731;fill-rule:nonzero;"/><path d="M1782.1,681.643l-61.593,140.784l-65.626,-140.784l-40.696,-0l89.09,180.013l-5.499,12.832c-4.766,10.999 -11.365,20.531 -26.397,20.531c-10.632,-0 -14.298,-0 -24.564,-0.733l0,32.996c4.766,0.366 15.398,0.733 26.764,0.733c35.929,0 48.761,-23.097 56.093,-42.528l89.09,-203.844l-36.662,-0Z" style="fill:#dc3731;fill-rule:nonzero;"/><path d="M1961.01,681.643l0,80.657l-53.161,0c-21.631,0 -31.163,-9.532 -31.163,-28.23l0,-52.427l-34.829,-0l-0,53.527c-0,32.996 21.631,58.66 60.493,58.66l58.66,0l0,71.126l34.829,-0l0,-183.313l-34.829,-0Z" style="fill:#dc3731;fill-rule:nonzero;"/><path d="M2184.65,681.643l-0,75.158l-95.323,-0l-0,-75.158l-34.829,-0l-0,183.313l34.829,-0l-0,-75.159l95.323,0l-0,75.159l34.829,-0l-0,-183.313l-34.829,-0Z" style="fill:#dc3731;fill-rule:nonzero;"/><path d="M2276.31,608.318l-0,40.328l38.862,0l0,-40.328l-38.862,-0Zm1.833,73.325l0,183.313l34.829,-0l0,-183.313l-34.829,-0Z" style="fill:#dc3731;fill-rule:nonzero;"/><path d="M1416.2,1158.26l-79.925,-183.313l-43.262,0l-79.924,183.313l37.763,-0l63.426,-148.85l63.059,148.85l38.863,-0Z" style="fill:#dc3731;fill-rule:nonzero;"/><path d="M1526.56,1161.92c54.627,0 96.789,-41.429 96.789,-95.323c-0,-53.893 -42.162,-95.322 -96.789,-95.322c-54.994,-0 -97.522,41.429 -97.522,95.322c-0,53.894 42.528,95.323 97.522,95.323Zm-0,-32.263c-34.83,0 -61.593,-27.497 -61.593,-63.06c-0,-35.562 26.763,-63.059 61.593,-63.059c34.463,-0 60.86,27.497 60.86,63.059c-0,35.563 -26.397,63.06 -60.86,63.06Z" style="fill:#dc3731;fill-rule:nonzero;"/><path d="M1829.76,1125.63c-29.697,0 -60.126,-48.394 -94.223,-63.426l96.056,-87.257l-43.628,0l-87.624,81.024l0,-81.024l-34.829,0l-0,183.313l34.829,-0l0,-75.158l3.667,-0c29.696,-0 63.426,75.158 121.353,75.158l9.898,-0l0,-32.63l-5.499,0Z" style="fill:#dc3731;fill-rule:nonzero;"/><path d="M2017.1,1125.26c-5.866,-0 -9.533,-3.667 -9.533,-9.899l0,-70.392c0,-49.128 -35.562,-73.692 -79.557,-73.692c-42.162,-0 -75.158,24.197 -82.124,58.293l37.029,0c6.599,-18.698 26.763,-27.497 43.262,-27.497c27.863,0 44.728,10.266 44.728,26.764c-0,9.166 -2.933,15.398 -38.862,19.431l-20.531,2.2c-43.995,4.766 -67.093,28.597 -67.093,57.56c0,31.897 21.631,53.894 62.326,53.894c27.864,0 53.894,-12.099 69.293,-30.063c1.833,16.865 12.465,26.397 30.43,26.397l17.598,-0l-0,-32.996l-6.966,-0Zm-106.688,6.599c-20.165,-0 -31.53,-9.899 -31.53,-24.197c-0,-13.566 6.966,-26.031 36.662,-29.33l20.531,-2.2c20.532,-2.2 31.897,-6.6 39.596,-12.466l0,16.499c0,27.863 -30.43,51.694 -65.259,51.694Z" style="fill:#dc3731;fill-rule:nonzero;"/><path d="M2230.84,1131.13l0,-156.183l-34.829,0l-0,150.317l-95.323,-0l0,-150.317l-34.829,0l-0,183.313l143.717,-0c19.431,-0 26.764,8.799 26.764,17.598c-0,9.166 -5.5,18.331 -24.198,18.331c-34.096,0 -57.926,-16.498 -93.856,-16.498c-28.23,0 -41.428,14.665 -41.428,41.795l-0,4.766l32.629,0l0,-2.566c0,-6.233 1.1,-11.732 13.565,-11.732c19.432,0 51.695,14.298 89.457,14.298c44.728,0 59.393,-25.663 59.393,-50.227c0,-19.798 -14.298,-38.129 -41.062,-42.895Z" style="fill:#dc3731;fill-rule:nonzero;"/><path d="M2295,901.618l-0,40.329l38.862,-0l0,-40.329l-38.862,0Zm64.893,0l-0,40.329l40.328,-0l0,-40.329l-40.328,0Zm66.359,0l-0,40.329l40.329,-0l-0,-40.329l-40.329,0Zm-129.419,73.325l-0,183.313l34.829,-0l0,-183.313l-34.829,0Zm93.489,0l0,183.313l34.83,-0l-0,-183.313l-34.83,0Z" style="fill:#dc3731;fill-rule:nonzero;"/></g></g><g id="mob"><rect x="0.188" y="1350.3" width="2606.54" height="412.454" style="fill:#613c82;"/><rect x="3777.85" y="1350.3" width="387.178" height="412.454" style="fill:#613c82;"/><g><path d="M612.371,1460.71c-60,-0 -104.1,45 -104.1,103.8c-0,58.8 44.1,103.8 104.1,103.8c60,-0 104.1,-45 104.1,-103.8c-0,-58.8 -44.1,-103.8 -104.1,-103.8Zm-0,179.4c-42.9,-0 -73.5,-31.2 -73.5,-75.6c-0,-44.4 30.6,-75.6 73.5,-75.6c42.9,-0 73.5,31.2 73.5,75.6c-0,44.4 -30.6,75.6 -73.5,75.6Z" style="fill:#fff;fill-rule:nonzero;"/><path d="M754.871,1664.41l50.7,-0c12.3,-0 29.4,-1.2 43.8,-10.8c16.8,-11.1 24.9,-30.3 24.9,-48.6c-0,-18.3 -7.5,-34.2 -18.9,-44.1c-15.3,-13.5 -35.7,-15.9 -50.1,-15.9l-19.8,-0l-0,-51.9l69.6,-0l-0,-28.8l-100.2,-0l-0,200.1Zm30.6,-90.6l19.2,-0c32.4,-0 39.6,17.1 39.6,31.5c-0,30.3 -32.1,30.3 -40.2,30.3l-18.6,-0l-0,-61.8Z" style="fill:#fff;fill-rule:nonzero;"/><path d="M1023.07,1464.31l-110.4,-0l-0,200.1l110.4,-0l-0,-28.8l-79.8,-0l-0,-66l77.4,-0l-0,-28.8l-77.4,-0l-0,-47.7l79.8,-0l-0,-28.8Z" style="fill:#fff;fill-rule:nonzero;"/><path d="M1062.67,1464.31l-0,200.1l30.6,-0l-0,-81.3l13.8,-0c14.7,-0 33,-2.1 48.9,-15.6c16.5,-14.1 19.5,-32.1 19.5,-43.8c-0,-18.3 -8.1,-37.5 -24.9,-48.6c-14.4,-9.6 -31.5,-10.8 -43.8,-10.8l-44.1,-0Zm30.6,28.2l13.5,-0c34.8,-0 39.3,19.8 39.3,30.9c-0,18.6 -12.6,31.5 -39,31.5l-13.8,-0l-0,-62.4Z" style="fill:#fff;fill-rule:nonzero;"/><rect x="1206.67" y="1464.31" width="30.6" height="200.1" style="fill:#fff;fill-rule:nonzero;"/><path d="M1386.67,1493.11l-0,-28.8l-122.4,-0l-0,28.8l45.9,-0l-0,171.3l30.6,-0l-0,-171.3l45.9,-0Z" style="fill:#fff;fill-rule:nonzero;"/><path d="M1413.67,1664.41l53.7,-0c12.3,-0 29.4,-1.2 43.8,-10.8c16.8,-11.1 24.9,-30.3 24.9,-48.6c-0,-18.3 -7.5,-34.2 -18.9,-44.1c-15.3,-13.5 -35.7,-15.9 -50.1,-15.9l-22.8,-0l-0,-80.7l-30.6,-0l-0,200.1Zm30.6,-90.6l22.2,-0c32.4,-0 39.6,17.1 39.6,31.5c-0,30.3 -32.1,30.3 -40.2,30.3l-21.6,-0l-0,-61.8Z" style="fill:#fff;fill-rule:nonzero;"/><path d="M1637.17,1464.31l-0,200.1l45.9,-0c20.4,-0 36.9,-0.6 53.4,-14.1c18.9,-15.3 20.1,-37.5 20.1,-47.1c-0,-20.4 -12,-39.6 -34.8,-46.5c14.4,-11.4 16.8,-26.4 16.8,-36.6c-0,-26.1 -13.8,-39 -23.1,-45.3c-10.8,-7.5 -22.2,-10.5 -48,-10.5l-30.3,-0Zm30.6,28.8l10.5,-0c12,-0 31.5,3 31.5,27.9c-0,29.1 -25.5,29.4 -32.7,29.4l-9.3,-0l-0,-57.3Zm-0,82.5l19.2,-0c32.4,-0 39.6,16.2 39.6,30.3c-0,12.6 -6.3,29.7 -40.2,29.7l-18.6,-0l-0,-60Z" style="fill:#fff;fill-rule:nonzero;"/><path d="M1933.57,1664.41l33,-0l-94.8,-211.8l-99.6,211.8l33,-0l21.9,-48.3l85.5,-0l21,48.3Zm-93.9,-77.1l30.9,-67.8l29.7,67.8l-60.6,-0Z" style="fill:#fff;fill-rule:nonzero;"/><path d="M1991.77,1664.41l233.4,-0l-0,-200.1l-30.6,-0l-0,171.3l-70.8,-0l-0,-171.3l-30.6,-0l-0,171.3l-70.8,-0l-0,-171.3l-30.6,-0l-0,200.1Z" style="fill:#fff;fill-rule:nonzero;"/><path d="M2250.97,1464.31l72.3,140.4l-27,59.7l31.8,-0l90.3,-200.1l-31.8,-0l-45.9,103.8l-52.5,-103.8l-37.2,-0Z" style="fill:#fff;fill-rule:nonzero;"/></g></g><path d="M989.816,1106.67l-199.697,-0l83.408,-98.645c32.08,-37.694 56.941,-67.368 76.189,-96.239c21.654,-32.08 38.496,-68.17 38.496,-112.279c-0,-83.408 -58.546,-161.201 -172.429,-161.201c-67.367,-0 -105.863,30.476 -125.111,52.129c-20.851,23.258 -42.505,64.962 -44.911,117.091l78.595,0c3.208,-50.525 34.486,-97.041 94.635,-97.041c59.348,0 89.021,41.704 89.021,86.616c0,31.277 -12.831,54.535 -28.069,76.991c-17.644,25.664 -45.714,60.951 -64.16,83.407l-185.26,224.558l359.293,0l-0,-75.387Z" style="fill:#fff;fill-rule:nonzero;"/></svg>