<svg xmlns="http://www.w3.org/2000/svg" viewBox="0 0 532 532"><circle cx="266" cy="266" r="256" fill="#fff" stroke="#2ab34b" stroke-miterlimit="10" stroke-width="20"/><path d="M126 260a146 146 0 1 1 69 124l-66 19 19-66a145 145 0 0 1-22-77Z" fill="none" stroke="#2ab34b" stroke-miterlimit="10" stroke-width="27.2"/><path d="M245 225a6 6 0 0 1-1 6l-11 14a7 7 0 0 0-1 6s5 14 22 27a142 142 0 0 0 35 21 6 6 0 0 0 5-1l15-17a5 5 0 0 1 6-1l34 17a7 7 0 0 1 4 5s2 18-18 28-58 7-98-29-55-77-41-98c14-22 29-17 29-17a9 9 0 0 1 4 5Z" fill="#2ab34b" stroke="#2ab34b" stroke-miterlimit="10"/></svg>